<svg width="250" height="82" viewBox="0 0 250 82" fill="none" xmlns="http://www.w3.org/2000/svg">
<path fill-rule="evenodd" clip-rule="evenodd" d="M180.462 62.5329V64.3172H181.196C181.446 64.3281 181.697 64.3066 181.941 64.2535C182.097 64.2073 182.232 64.1105 182.323 63.9795C182.435 63.8221 182.49 63.6344 182.482 63.4442C182.488 63.3215 182.467 63.199 182.42 63.0847C182.373 62.9704 182.302 62.8671 182.21 62.7814C182.01 62.6109 181.749 62.5217 181.482 62.5329H180.462ZM180.462 60.3438V61.937H180.911C181.176 61.9473 181.442 61.9313 181.705 61.8892C181.844 61.8489 181.967 61.7688 182.057 61.6598C182.172 61.5219 182.231 61.3487 182.223 61.1723C182.231 60.9822 182.17 60.7953 182.05 60.6434C181.967 60.5178 181.838 60.4269 181.688 60.3885C181.43 60.3585 181.17 60.3468 180.911 60.3534L180.462 60.3438ZM181.326 64.8748H179.771V59.7767H181.293C181.519 59.7565 181.746 59.7799 181.963 59.8456C182.179 59.9113 182.379 60.0179 182.552 60.159C182.798 60.3985 182.935 60.7215 182.934 61.0576C182.951 61.2832 182.89 61.5077 182.761 61.697C182.632 61.8863 182.442 62.0299 182.22 62.1059C182.528 62.1854 182.799 62.3637 182.988 62.6111C183.176 62.8586 183.271 63.1603 183.256 63.4665C183.266 64.4096 182.618 64.8748 181.326 64.8748ZM175.743 60.2961C175.469 60.2924 175.196 60.3441 174.944 60.4479C174.692 60.5516 174.465 60.7051 174.278 60.8983C174.079 61.0889 173.922 61.3162 173.817 61.5665C173.712 61.8167 173.661 62.0847 173.667 62.3544C173.665 62.7134 173.76 63.0668 173.942 63.3804C174.12 63.6879 174.382 63.9425 174.7 64.1165C175.019 64.2858 175.379 64.3746 175.743 64.3746C176.108 64.3746 176.467 64.2858 176.787 64.1165C177.105 63.943 177.366 63.6881 177.541 63.3804C177.726 63.0676 177.822 62.7139 177.82 62.3544C177.825 62.0845 177.773 61.8164 177.668 61.5662C177.562 61.316 177.405 61.0888 177.206 60.8983C177.019 60.7056 176.793 60.5525 176.541 60.4488C176.289 60.3451 176.018 60.2931 175.743 60.2961ZM175.743 59.6588C176.127 59.65 176.508 59.7216 176.86 59.8685C177.212 60.0155 177.526 60.2342 177.78 60.5095C178.262 61.0171 178.526 61.6806 178.518 62.3667C178.511 63.0529 178.233 63.711 177.741 64.2089C177.211 64.714 176.494 64.9975 175.747 64.9975C175 64.9975 174.283 64.714 173.753 64.2089C173.263 63.7104 172.987 63.0533 172.979 62.3683C172.972 61.6833 173.234 61.0208 173.713 60.5127C173.967 60.2371 174.281 60.0175 174.632 59.869C174.983 59.7205 175.363 59.6466 175.747 59.6524L175.743 59.6588ZM171.018 62.4245H167.915V64.8812H167.234V59.7831H167.915V61.8096H171.018V59.7831H171.683V64.8812H171.018V62.4245ZM161.744 59.7831V63.5589L165.655 59.7831H165.708V64.8812H165.044V61.1277L161.163 64.8748H161.08V59.7767L161.744 59.7831ZM157.724 61.9147H158.082C158.312 61.9139 158.535 61.8387 158.714 61.7012C158.81 61.6276 158.886 61.5331 158.936 61.4256C158.986 61.3181 159.009 61.2007 159.003 61.0831C159.007 60.8662 158.924 60.6562 158.77 60.4968C158.677 60.4102 158.565 60.3438 158.442 60.302C158.319 60.2603 158.189 60.2441 158.059 60.2546C157.648 60.2682 157.252 60.4129 156.936 60.6657L156.551 60.2164C156.973 59.8534 157.518 59.6486 158.086 59.6397C158.496 59.6278 158.896 59.7617 159.209 60.0157C159.356 60.135 159.474 60.2847 159.552 60.4534C159.631 60.6222 159.669 60.8058 159.664 60.9907C159.681 61.2229 159.619 61.4542 159.485 61.6488C159.352 61.8435 159.156 61.9906 158.926 62.0677C159.216 62.163 159.466 62.3459 159.639 62.5889C159.811 62.8318 159.897 63.1218 159.883 63.4155C159.884 63.6356 159.837 63.8534 159.746 64.0553C159.654 64.2572 159.52 64.4387 159.352 64.5883C159.184 64.738 158.985 64.8527 158.768 64.925C158.551 64.9973 158.321 65.0258 158.092 65.0087C157.765 65.022 157.439 64.9681 157.135 64.8505C156.831 64.7329 156.557 64.5543 156.331 64.3268L156.757 63.8679C156.915 64.0425 157.111 64.1811 157.332 64.2737C157.552 64.3663 157.792 64.4105 158.033 64.4033C158.332 64.4208 158.627 64.3247 158.853 64.1356C158.953 64.0454 159.031 63.9359 159.082 63.8145C159.134 63.693 159.158 63.5624 159.152 63.4314C159.158 63.3027 159.134 63.1743 159.083 63.0554C159.031 62.9365 158.953 62.8299 158.853 62.7432C158.661 62.5735 158.407 62.4812 158.146 62.4851H157.724V61.9147ZM152.547 60.2929C152.177 60.2904 151.813 60.3828 151.493 60.5605C151.172 60.7414 150.907 61.0009 150.726 61.3125C150.54 61.6249 150.442 61.9787 150.443 62.3385C150.442 62.6987 150.541 63.0527 150.729 63.3645C150.909 63.681 151.175 63.9444 151.5 64.126C151.816 64.3059 152.176 64.4006 152.543 64.4001C152.915 64.401 153.281 64.3075 153.603 64.1292C153.927 63.9594 154.195 63.7068 154.377 63.3995C154.56 63.0804 154.652 62.7214 154.647 62.3576C154.654 62.0851 154.604 61.814 154.5 61.5604C154.395 61.3069 154.238 61.0763 154.039 60.8823C153.847 60.6901 153.615 60.538 153.359 60.4355C153.103 60.333 152.827 60.2822 152.55 60.2865L152.547 60.2929ZM155.288 59.7831V64.8812H154.607V64.005C154.345 64.3183 154.016 64.5746 153.643 64.7569C153.278 64.924 152.878 65.009 152.473 65.0055C152.114 65.0101 151.757 64.9431 151.426 64.8087C151.095 64.6743 150.796 64.4755 150.55 64.2248C150.289 63.9743 150.084 63.6758 149.947 63.3472C149.81 63.0186 149.743 62.6668 149.752 62.313C149.747 61.9643 149.815 61.6182 149.953 61.2956C150.092 60.973 150.297 60.6806 150.556 60.4363C150.806 60.1857 151.107 59.987 151.44 59.8527C151.773 59.7184 152.132 59.6513 152.493 59.6556C152.904 59.649 153.311 59.7398 153.676 59.9201C154.048 60.1111 154.367 60.3841 154.607 60.7167V59.7799L155.288 59.7831ZM147.061 60.3598V64.8812H146.379V59.7831H149.074V60.3598H147.061ZM142.096 60.2929C141.725 60.2898 141.36 60.3829 141.039 60.5624C140.719 60.7418 140.455 61.001 140.275 61.3125C140.087 61.6243 139.988 61.9782 139.988 62.3385C139.988 62.6988 140.087 63.0527 140.275 63.3645C140.453 63.6764 140.715 63.9369 141.034 64.1191C141.352 64.3012 141.715 64.3982 142.086 64.4001C142.459 64.4005 142.826 64.3071 143.15 64.1292C143.473 63.9605 143.74 63.7076 143.92 63.3995C144.105 63.0812 144.199 62.7218 144.193 62.3576C144.2 62.0851 144.15 61.814 144.046 61.5604C143.941 61.3069 143.785 61.0763 143.585 60.8823C143.393 60.6905 143.162 60.5386 142.907 60.4361C142.651 60.3336 142.377 60.2827 142.1 60.2865L142.096 60.2929ZM144.838 59.7831V64.8812H144.156V64.005C143.894 64.3183 143.566 64.5746 143.193 64.7569C142.828 64.924 142.428 65.009 142.023 65.0055C141.663 65.0101 141.306 64.9432 140.974 64.8088C140.642 64.6744 140.343 64.4756 140.096 64.2248C139.836 63.9739 139.631 63.6753 139.494 63.3468C139.357 63.0183 139.29 62.6667 139.298 62.313C139.293 61.964 139.362 61.6176 139.5 61.2949C139.639 60.9722 139.845 60.68 140.106 60.4363C140.355 60.1854 140.656 59.9865 140.99 59.8522C141.323 59.7179 141.682 59.6509 142.043 59.6556C142.454 59.6492 142.86 59.7401 143.226 59.9201C143.598 60.1111 143.917 60.3841 144.156 60.7167V59.7799L144.838 59.7831ZM136.53 59.7831H136.73L138.524 64.8812H137.81L136.481 61.1373L134.43 64.8812H134.304L132.254 61.1213L130.925 64.8812H130.26L132.074 59.7831H132.254L134.391 63.7724L136.53 59.7831ZM125.768 60.3502H125.316C125.018 60.3348 124.719 60.3616 124.429 60.4299C124.28 60.4803 124.154 60.5767 124.07 60.7039C123.978 60.8624 123.936 61.0425 123.947 61.2233C123.939 61.4105 124 61.5945 124.12 61.7427C124.215 61.8657 124.351 61.9544 124.505 61.9944C124.777 62.0322 125.051 62.0471 125.326 62.039H125.778L125.768 60.3502ZM125.768 62.6062H125.276L123.747 64.8812H123.016L124.625 62.5392C124.258 62.5065 123.914 62.3534 123.651 62.1059C123.528 61.987 123.432 61.8455 123.368 61.69C123.304 61.5345 123.274 61.3681 123.279 61.201C123.267 61.0073 123.299 60.8135 123.373 60.633C123.447 60.4525 123.561 60.2896 123.708 60.1559C124.019 59.8986 124.42 59.7652 124.831 59.7831H126.452V64.8812H125.771L125.768 62.6062ZM122.478 64.8812H121.76L119.959 61.1564L118.192 64.8748H117.461L119.886 59.7767H120.009L122.478 64.8812ZM114.171 60.8091L112.616 64.314H115.663L114.171 60.8091ZM111.951 64.314L114.005 59.7735H114.36L116.404 64.314H117.042V65.5248H116.377V64.8716H111.984V65.5535H111.32V64.314H111.951ZM99.6235 60.3311L99.1848 60.7644C98.91 60.467 98.5249 60.2841 98.1116 60.2546C97.8994 60.252 97.6944 60.3285 97.54 60.4681C97.4656 60.5283 97.4059 60.6035 97.3651 60.6883C97.3244 60.7731 97.3035 60.8654 97.3041 60.9588C97.3073 61.1331 97.3757 61.3005 97.4968 61.4304C97.7352 61.6564 98.0144 61.8388 98.3209 61.9689C98.7152 62.1411 99.0681 62.3895 99.3576 62.6986C99.533 62.9323 99.6261 63.2136 99.6235 63.5015C99.6272 63.6991 99.5884 63.8953 99.5095 64.0779C99.4306 64.2604 99.3133 64.4255 99.1649 64.5626C99.014 64.7069 98.8338 64.8202 98.6355 64.8952C98.4372 64.9703 98.225 65.0057 98.0119 64.9991C97.7082 64.9995 97.4083 64.9342 97.1346 64.8079C96.8639 64.685 96.6263 64.504 96.4402 64.279L96.8721 63.8074C97.0033 63.9741 97.1709 64.1113 97.3632 64.2093C97.5555 64.3072 97.7678 64.3637 97.9853 64.3746C98.2442 64.3812 98.4957 64.2909 98.6864 64.1229C98.7758 64.0489 98.8475 63.9575 98.8968 63.8547C98.9461 63.7519 98.9718 63.6402 98.9722 63.527C98.9741 63.3438 98.9069 63.1661 98.7828 63.0268C98.5292 62.8017 98.2383 62.6186 97.9221 62.4851C97.5446 62.325 97.2096 62.0854 96.9419 61.7841C96.7686 61.5556 96.6765 61.2796 96.6794 60.9971C96.675 60.8187 96.7097 60.6415 96.7813 60.4768C96.8528 60.3122 96.9596 60.1637 97.0948 60.0411C97.2341 59.9141 97.3984 59.8149 97.5781 59.7493C97.7578 59.6837 97.9493 59.6529 98.1415 59.6588C98.7079 59.6894 99.2395 59.9306 99.6235 60.3311ZM92.8648 60.2865C92.5867 60.2811 92.3104 60.3307 92.0532 60.4321C91.7959 60.5335 91.5632 60.6846 91.3695 60.876C91.1701 61.0701 91.0138 61.3008 90.9099 61.5544C90.806 61.8079 90.7566 62.0789 90.7647 62.3512C90.7591 62.715 90.8518 63.074 91.0339 63.3932C91.2152 63.7014 91.4835 63.9544 91.8081 64.1229C92.1317 64.3007 92.4984 64.3941 92.8714 64.3937C93.2365 64.3942 93.5949 64.2994 93.9081 64.1197C94.2336 63.9381 94.5013 63.6748 94.6824 63.3581C94.8695 63.046 94.968 62.6922 94.968 62.3321C94.968 61.9721 94.8695 61.6183 94.6824 61.3061C94.503 60.9951 94.2396 60.7362 93.9197 60.5568C93.5998 60.3774 93.2354 60.284 92.8648 60.2865ZM90.1234 59.7767H90.788V60.7135C91.0302 60.3818 91.3499 60.109 91.7217 59.9169C92.0861 59.7367 92.4914 59.6458 92.9013 59.6524C93.2628 59.6481 93.6213 59.7153 93.9546 59.8496C94.2879 59.9839 94.5887 60.1825 94.8385 60.4331C95.0991 60.6768 95.305 60.969 95.4439 61.2917C95.5827 61.6144 95.6515 61.9608 95.646 62.3098C95.654 62.6638 95.5872 63.0157 95.4496 63.3443C95.312 63.6729 95.1064 63.9713 94.8452 64.2216C94.5978 64.4726 94.2987 64.6715 93.967 64.8059C93.6352 64.9403 93.278 65.0071 92.9179 65.0023C92.5142 65.0052 92.1151 64.9191 91.7516 64.7506C91.379 64.566 91.0508 64.3088 90.788 63.9954V66.742H90.1234V59.7767ZM86.0662 60.2961C85.7921 60.2927 85.5203 60.3445 85.2685 60.4483C85.0166 60.552 84.7903 60.7053 84.6041 60.8983C84.4047 61.0888 84.2474 61.316 84.1418 61.5662C84.0362 61.8164 83.9843 62.0845 83.9894 62.3544C83.9877 62.7139 84.0839 63.0676 84.2685 63.3804C84.4458 63.6879 84.7079 63.9425 85.0261 64.1165C85.3449 64.2858 85.7034 64.3747 86.0679 64.3747C86.4323 64.3747 86.7908 64.2858 87.1096 64.1165C87.429 63.944 87.6915 63.689 87.8672 63.3804C88.0518 63.0676 88.148 62.7139 88.1463 62.3544C88.1515 62.0842 88.0994 61.8158 87.9932 61.5655C87.887 61.3152 87.7288 61.0882 87.5283 60.8983C87.3421 60.7053 87.1158 60.552 86.8639 60.4483C86.6121 60.3445 86.3403 60.2927 86.0662 60.2961ZM86.0662 59.6588C86.4498 59.65 86.8308 59.7216 87.1826 59.8685C87.5344 60.0155 87.8485 60.2342 88.1031 60.5095C88.5847 61.0171 88.8482 61.6806 88.8408 62.3667C88.8334 63.0529 88.5557 63.711 88.0632 64.2089C87.8006 64.4614 87.4885 64.6617 87.145 64.7984C86.8014 64.9351 86.4331 65.0055 86.0612 65.0055C85.6893 65.0055 85.321 64.9351 84.9774 64.7984C84.6339 64.6617 84.3219 64.4614 84.0592 64.2089C83.567 63.7115 83.2893 63.0539 83.2819 62.3683C83.2745 61.6827 83.538 61.0198 84.0193 60.5127C84.274 60.2344 84.5894 60.0131 84.9431 59.8645C85.2968 59.7158 85.6801 59.6434 86.0662 59.6524V59.6588ZM77.4268 57.8171H78.1113V60.7039C78.3534 60.3825 78.6651 60.1151 79.0251 59.9201C79.3569 59.7456 79.7299 59.6556 80.1083 59.6588C80.4839 59.6519 80.853 59.7529 81.1683 59.9487C81.4725 60.1364 81.7109 60.4072 81.8528 60.7262C82.0256 61.2193 82.1 61.7393 82.0721 62.2588V64.8812H81.4142V62.4532C81.4279 62.0601 81.4045 61.6666 81.3444 61.2775C81.2834 60.9814 81.1194 60.7141 80.8792 60.5191C80.6255 60.3384 80.3144 60.2472 79.9987 60.261C79.5891 60.2601 79.1929 60.4003 78.8822 60.6561C78.5564 60.9022 78.3231 61.2433 78.2176 61.6279C78.1353 62.0855 78.103 62.55 78.1212 63.014V64.8812H77.4367L77.4268 57.8171ZM76.2239 60.3375L75.7853 60.7708C75.5104 60.4734 75.1253 60.2905 74.712 60.261C74.4998 60.2583 74.2948 60.3349 74.1405 60.4745C74.0654 60.5344 74.0051 60.6094 73.9638 60.6942C73.9224 60.7791 73.9011 60.8716 73.9012 60.9652C73.9056 61.1398 73.9752 61.3071 74.0973 61.4368C74.3356 61.6627 74.6148 61.8452 74.9213 61.9753C75.3153 62.1465 75.6673 62.395 75.9547 62.7049C76.1326 62.9377 76.227 63.2194 76.2239 63.5079C76.2277 63.7055 76.1889 63.9017 76.11 64.0843C76.0311 64.2668 75.9138 64.4318 75.7653 64.5689C75.6142 64.713 75.434 64.826 75.2357 64.9011C75.0375 64.9761 74.8253 65.0117 74.6123 65.0055C74.3086 65.0059 74.0088 64.9405 73.7351 64.8143C73.4644 64.6914 73.2267 64.5104 73.0406 64.2854L73.4726 63.8138C73.6037 63.9805 73.7713 64.1176 73.9636 64.2156C74.1559 64.3136 74.3683 64.37 74.5857 64.3809C74.8447 64.3876 75.0961 64.2973 75.2868 64.1292C75.3766 64.0555 75.4489 63.9641 75.4988 63.8614C75.5486 63.7586 75.5749 63.6467 75.5759 63.5334C75.5752 63.3501 75.507 63.1729 75.3832 63.0331C75.1296 62.8081 74.8388 62.625 74.5226 62.4914C74.1446 62.3322 73.8093 62.0925 73.5423 61.7904C73.3687 61.5623 73.2776 61.2859 73.2832 61.0034C73.2784 60.8253 73.3125 60.6482 73.3835 60.4836C73.4545 60.3189 73.5607 60.1704 73.6952 60.0475C73.8351 59.9203 73.9999 59.8209 74.1802 59.7553C74.3605 59.6897 74.5525 59.659 74.7452 59.6652C75.3177 59.6892 75.8573 59.9285 76.2472 60.3311L76.2239 60.3375ZM67.4981 59.7831H68.1992V60.5287C68.3732 60.2698 68.5991 60.0467 68.8638 59.8723C69.0785 59.7352 69.3302 59.661 69.5882 59.6588C69.8028 59.6656 70.0121 59.7248 70.1962 59.8308L69.8374 60.3821C69.7242 60.329 69.601 60.2986 69.4752 60.2929C69.2266 60.2995 68.9896 60.3949 68.8106 60.5605C68.5688 60.7897 68.4004 61.0805 68.3255 61.3985C68.2169 61.9787 68.1745 62.5684 68.1992 63.1574V64.8812H67.4981V59.7831ZM63.72 60.3024C63.4454 60.299 63.1731 60.3508 62.9207 60.4545C62.6683 60.5583 62.4414 60.7116 62.2546 60.9046C62.0556 61.0953 61.8988 61.3226 61.7938 61.5728C61.6887 61.8231 61.6375 62.0911 61.6432 62.3608C61.6415 62.7203 61.7377 63.0739 61.9223 63.3868C62.0977 63.6945 62.3588 63.9494 62.6766 64.1229C62.996 64.2922 63.355 64.381 63.72 64.381C64.085 64.381 64.444 64.2922 64.7634 64.1229C65.0811 63.9494 65.3423 63.6945 65.5177 63.3868C65.7022 63.0739 65.7985 62.7203 65.7968 62.3608C65.8026 62.0908 65.7511 61.8225 65.6455 61.5721C65.5398 61.3218 65.3821 61.0947 65.182 60.9046C64.9991 60.7133 64.7768 60.5604 64.5292 60.4557C64.2815 60.3509 64.0139 60.2966 63.7432 60.2961L63.72 60.3024ZM63.72 59.6652C64.104 59.6572 64.4852 59.7291 64.8374 59.876C65.1896 60.0229 65.5044 60.2412 65.7602 60.5159C66.2399 61.0246 66.5019 61.688 66.4939 62.3737C66.4859 63.0594 66.2085 63.717 65.717 64.2153C65.1876 64.7212 64.4707 65.0052 63.7233 65.0052C62.9759 65.0052 62.259 64.7212 61.7296 64.2153C61.2374 63.7179 60.9597 63.0603 60.9523 62.3747C60.9449 61.6891 61.2084 61.0261 61.6897 60.5191C61.9448 60.2382 62.2614 60.0148 62.617 59.865C62.9726 59.7152 63.3583 59.6426 63.7466 59.6524L63.72 59.6652ZM60.2576 57.8298V58.4671C60.0548 58.3735 59.8344 58.3204 59.6096 58.311C59.4937 58.3073 59.3789 58.3337 59.2773 58.3874C59.2009 58.4252 59.1417 58.4888 59.1112 58.5659C59.0779 58.7424 59.0656 58.922 59.0746 59.1012V59.7894H60.1911V60.3566H59.0746V64.8876H58.3934V60.3438H57.6923V59.7767H58.3934V58.9928C58.3774 58.7288 58.4123 58.4641 58.4965 58.2122C58.5714 58.0524 58.6985 57.9205 58.8586 57.8362C59.0439 57.736 59.2542 57.6864 59.4667 57.6928C59.7441 57.6957 60.0195 57.7376 60.2842 57.8171L60.2576 57.8298Z" fill="#0D1414"/>
<path fill-rule="evenodd" clip-rule="evenodd" d="M106.335 59.9547C106.782 59.9547 107.22 60.0874 107.592 60.336C107.964 60.5846 108.254 60.9379 108.425 61.3514C108.596 61.7648 108.641 62.2197 108.554 62.6585C108.466 63.0974 108.251 63.5005 107.935 63.817C107.618 64.1334 107.215 64.3488 106.776 64.4361C106.337 64.5234 105.882 64.4786 105.469 64.3074C105.056 64.1361 104.702 63.8462 104.454 63.4741C104.205 63.102 104.072 62.6646 104.072 62.2172C104.072 61.6171 104.311 61.0417 104.735 60.6174C105.159 60.1931 105.735 59.9547 106.335 59.9547Z" fill="#0D1414"/>
<path fill-rule="evenodd" clip-rule="evenodd" d="M149.241 31.1725C149.145 31.0552 149.078 31.0485 149.052 31.1558C149.152 31.2731 149.208 31.2831 149.241 31.1725ZM147.246 34.1489C147.396 34.2259 147.472 34.2092 147.456 34.1086C147.303 34.0416 147.216 34.0584 147.233 34.1489H147.246ZM139.976 27.2577L140.242 27.2845C140.235 27.1571 139.986 27.1337 139.963 27.2577H139.976ZM139.72 30.1033C139.72 30.234 139.876 30.1838 140.003 30.1838C139.986 30.0095 139.863 30.0865 139.707 30.1033H139.72ZM144.675 26.2957L144.699 26.1617L144.419 26.1047C144.369 26.2622 144.519 26.2455 144.662 26.2957H144.675ZM140.518 34.2092C140.711 34.2092 141.01 34.2997 141.01 34.0751C140.817 34.0751 140.528 33.9813 140.518 34.2092ZM139.188 31.863C139.205 31.9166 139.215 31.9635 139.231 32.0138C139.757 31.873 139.747 31.7255 139.175 31.8563L139.188 31.863ZM145.703 34.1891C145.919 34.1891 146.308 34.3667 146.335 34.0986C146.132 34.0852 145.7 33.9645 145.69 34.1824L145.703 34.1891ZM144.343 34.2326C144.582 34.2595 144.838 34.4002 144.875 34.122C144.662 34.1086 144.353 33.9913 144.329 34.226L144.343 34.2326ZM140.748 26.3024C140.541 26.1415 140.375 25.86 140.192 26.1013C140.372 26.2287 140.568 26.5136 140.734 26.2957L140.748 26.3024ZM146.112 32.5668C146.029 32.4328 145.946 32.2987 145.853 32.1646L145.553 32.5568C145.74 32.5936 145.939 32.7043 146.099 32.5601L146.112 32.5668ZM147.539 30.834C147.412 30.834 147.289 30.8038 147.163 30.7938C146.774 30.9178 146.684 31.5211 146.734 31.863L146.335 32.1981C146.425 32.292 146.524 32.3825 146.624 32.4763C146.683 32.5065 146.73 32.5566 146.756 32.6178C146.782 32.6791 146.786 32.7476 146.767 32.8115C146.907 33.0696 146.767 33.1701 147.066 32.9188C147.366 32.6674 147.529 32.0239 147.622 31.6552C147.689 31.4591 147.722 31.2526 147.718 31.0451C147.808 30.8709 147.742 30.7971 147.525 30.8273L147.539 30.834ZM157.729 47.3312L157.905 47.3715C157.925 47.2575 157.775 47.167 157.715 47.3245L157.729 47.3312ZM129.364 15.7143C129.407 15.7143 129.184 15.5568 129.257 15.7646L129.364 15.7143ZM130.252 49.4596C130.322 49.4772 130.39 49.4984 130.458 49.5233C130.511 49.3725 130.342 49.282 130.252 49.4428V49.4596ZM130.345 16.9779C130.169 16.8941 130.086 16.9176 130.095 17.0349C130.285 17.1354 130.368 17.1187 130.342 16.9611L130.345 16.9779ZM134.901 15.9724C134.725 15.7813 134.668 15.8215 134.801 16.0461L134.901 15.9724ZM126.184 39.7027H126.517C126.51 39.5351 126.168 39.5954 126.184 39.7027ZM130.202 49.8182C130.278 49.9423 130.318 49.8752 130.385 49.7914C130.318 49.7747 130.145 49.7244 130.202 49.8182ZM149.474 48.8127C149.564 48.8395 149.657 48.873 149.747 48.8965C149.79 48.7457 149.517 48.6786 149.474 48.8127ZM135.862 16.5924L135.995 16.569C135.922 16.2238 135.846 16.2405 135.862 16.5924ZM152.993 18.3421C153.004 18.3093 153.018 18.2778 153.036 18.2482C152.943 18.2147 152.86 18.1745 152.777 18.1376C152.72 18.2817 152.87 18.2817 152.993 18.3421ZM153.621 48.2798C153.668 48.2481 153.717 48.2201 153.768 48.196C153.621 47.891 153.525 47.9513 153.621 48.2798ZM153.828 18.2247C153.984 18.2247 154.144 18.208 154.3 18.1912C154.303 18.0236 153.831 18.0303 153.841 18.2247H153.828ZM155.62 18.1141C155.504 18.1141 155.131 18.0471 155.115 18.1979C155.281 18.1979 155.447 18.2147 155.61 18.2314C155.623 18.1936 155.631 18.1541 155.633 18.1141H155.62ZM126.886 15.6372C126.703 15.6372 126.431 15.5232 126.421 15.7378C126.584 15.7378 126.893 15.8148 126.899 15.6372H126.886ZM128.233 18.1309C128.496 18.1074 128.762 18.0907 129.018 18.0639C129.031 17.9298 128.246 17.846 128.246 18.1309H128.233ZM131.02 16.9511C131.293 16.9947 131.459 17.0114 131.735 17.0516C131.532 16.6762 131.339 16.7198 131.033 16.9511H131.02ZM151.37 48.7457C151.373 48.7847 151.373 48.824 151.37 48.863H152.457C152.464 48.6384 151.626 48.7457 151.383 48.7457H151.37ZM158.407 17.9566C157.945 17.9968 157.562 18.0404 157.18 18.0739C157.372 18.1913 157.596 18.2433 157.819 18.2221C158.043 18.201 158.254 18.1079 158.42 17.9566H158.407ZM157.246 48.7624C156.964 48.739 156.681 48.7055 156.402 48.6719C156.382 48.9803 157.629 49.1546 157.645 48.6719C157.582 48.6786 157.243 48.6552 157.26 48.7624H157.246ZM151.26 18.2415H152.404C152.238 18.1366 152.045 18.0809 151.849 18.0809C151.652 18.0809 151.46 18.1366 151.293 18.2415H151.26ZM155.976 48.5949L153.043 48.7222C153.069 49.0038 155.999 49.0574 155.993 48.5949H155.976ZM161.709 48.6384C161.044 48.5949 160.379 48.5882 159.714 48.6049L158.716 48.6284C158.55 48.6082 158.382 48.6139 158.217 48.6451C157.995 48.8462 158.517 48.8563 158.59 48.8563C159.255 48.8563 159.92 48.8898 160.609 48.8563C160.915 48.8563 161.274 48.8161 161.536 48.8563C161.603 48.8563 161.64 49.0674 161.723 49.0004C161.806 48.9334 161.743 48.7222 161.726 48.6384H161.709ZM135.496 15.0775C135.613 15.1613 135.563 15.2283 135.35 15.2551C135.723 15.3724 136.145 15.3288 136.394 15.6908L136.062 15.9154C136.351 16.1668 136.517 16.0327 136.81 15.8886C137.026 15.788 137.641 15.7042 137.625 15.4629C137.363 15.5652 137.077 15.588 136.802 15.5285C136.527 15.4689 136.276 15.3296 136.078 15.1277C135.995 15.0339 135.929 14.8261 135.839 14.759C135.696 14.6585 135.55 14.7255 135.35 14.759C135.151 14.7926 134.934 14.759 134.934 14.9769C135.001 15.0171 135.067 15.0674 135.141 15.1076C135.29 15.3121 135.417 15.3054 135.496 15.0775ZM124.774 18.094C125.489 18.1108 126.201 18.1778 126.916 18.151C127.039 18.151 127.854 18.1946 127.914 18.1108C128.037 17.9164 127.648 17.96 127.558 17.8996C127.375 17.7991 127.392 17.7588 127.299 17.5309C127.117 17.6669 126.919 17.7795 126.71 17.8661C126.282 17.913 125.851 17.913 125.423 17.8661H124.262C123.93 17.8661 123.265 17.7086 123.225 18.0773C123.73 18.1074 124.252 18.0974 124.774 18.1074V18.094ZM126.351 28.8799C126.866 28.6788 127.092 28.2096 127.249 27.7001C126.683 27.794 126.118 27.8275 125.563 27.9113C124.941 28.0539 124.335 28.2582 123.753 28.5213C123.108 28.7626 122.466 29.014 121.828 29.2553C121.246 29.501 120.708 29.8406 120.235 30.2608C120.024 30.4149 119.822 30.5805 119.63 30.7569C119.447 30.9312 119.297 30.9312 119.131 31.0921C118.891 31.3233 119.324 31.3904 119.513 31.3334C119.809 31.1658 120.091 30.9752 120.358 30.7636C121.491 30.0975 122.728 29.6284 124.016 29.376C124.774 29.205 125.622 29.1581 126.351 28.8799ZM149.774 34.35C149.897 34.4673 149.84 35.0203 149.823 35.1778C149.793 35.6618 149.703 36.1402 149.557 36.6023C149.289 37.5088 148.827 38.3451 148.204 39.0525C146.677 40.8356 144.369 41.2177 142.148 41.2948C141.884 41.2912 141.621 41.3046 141.36 41.335C141.106 41.3698 140.847 41.3504 140.601 41.278C140.229 41.2009 139.271 41.4691 139.018 41.211C138.909 41.0937 139.018 40.3161 138.992 40.1485C138.992 39.8803 138.992 39.6122 138.975 39.3541C138.975 38.6838 138.952 38.0134 138.942 37.3632C138.925 36.0728 138.909 34.7957 138.919 33.5053C138.919 32.8852 138.919 32.2685 138.919 31.6485C138.919 31.2898 138.935 30.9379 138.945 30.586C138.945 30.11 138.902 30.0664 139.351 29.9357C139.062 29.7011 138.978 29.6575 138.978 29.2654V28.0286C138.978 27.8375 138.869 26.9828 138.978 26.8823C139.088 26.7817 139.723 26.8823 139.89 26.8823C139.89 26.7248 139.577 26.7315 139.427 26.6979C139.278 26.6644 139.111 26.6242 138.945 26.5907C138.945 26.5136 138.945 26.4399 138.962 26.3628C138.954 26.17 138.965 25.9769 138.995 25.7863C139.245 25.7343 139.501 25.7118 139.757 25.7192C140.753 25.6473 141.753 25.6473 142.75 25.7192C143.715 25.7457 144.672 25.9001 145.596 26.1784C145.99 26.3395 146.373 26.5242 146.744 26.7315C146.943 26.822 147.15 26.9225 147.349 27.0231C147.655 27.1739 147.665 27.2007 147.755 27.5325C147.422 27.6163 147.572 27.6163 147.665 27.794C147.764 27.9481 147.875 28.0939 147.998 28.2297C148.123 28.3604 148.265 28.4732 148.42 28.5649C148.664 28.7372 148.851 28.9787 148.959 29.2587C149.291 29.8687 150.289 32.0205 149.551 32.473C149.681 32.6446 149.773 32.8422 149.821 33.0526C149.869 33.263 149.872 33.4813 149.83 33.693C149.74 34.045 149.813 33.9209 149.498 34.045C149.325 34.112 148.975 34.0047 148.992 34.2293C149.135 34.2662 149.674 34.2528 149.774 34.35ZM145.357 45.585C145.252 45.4506 145.19 45.2871 145.18 45.1163C145.17 44.9455 145.212 44.7757 145.301 44.6297C145.683 44.0365 145.39 45.3604 145.357 45.585ZM138.706 41.6031C138.623 41.6266 138.606 41.5864 138.633 41.4858C138.726 41.4624 138.752 41.5026 138.692 41.6031H138.706ZM145.357 19.1465C145.397 19.2236 145.217 19.3308 145.164 19.2303C145.222 19.2093 145.278 19.1858 145.334 19.1599L145.357 19.1465ZM136.71 43.1047C136.753 43.1215 136.976 43.1717 136.966 43.2287C136.727 43.2823 136.66 43.2421 136.677 43.1181L136.71 43.1047ZM134.608 47.3514C134.462 47.2843 134.525 47.1536 134.652 47.1938C134.623 47.2493 134.597 47.3063 134.575 47.3648L134.608 47.3514ZM132.171 17.856C132.038 17.8963 131.988 17.8728 132.014 17.779C132.111 17.7253 132.171 17.7555 132.137 17.856H132.171ZM130.102 48.2798C130.029 48.1424 130.056 48.0854 130.162 48.1021C130.195 48.2262 130.179 48.2932 130.069 48.2798H130.102ZM130.019 44.9079C129.972 44.8577 129.989 44.8241 130.079 44.7906C130.122 44.8744 130.105 44.9079 129.986 44.9079H130.019ZM153.924 41.3853C154.107 41.4355 154.03 41.7372 153.891 41.7204C153.864 41.6031 153.884 41.4925 153.891 41.3853H153.924ZM154.064 40.7987C154.079 40.8224 154.09 40.8484 154.097 40.8758C154.007 40.9663 153.957 40.9663 153.934 40.859C153.968 40.8422 154 40.822 154.03 40.7987H154.064ZM154.769 36.961C154.795 37.028 154.819 37.095 154.852 37.1621C154.356 37.3297 154.287 37.1855 154.735 36.961H154.769ZM153.941 46.4464C154.605 46.0412 155.22 45.561 155.776 45.0152C156.283 44.3627 156.749 43.6787 157.17 42.9673C158.03 41.6338 158.632 40.1486 158.946 38.5899C159.331 36.8173 159.545 35.0112 159.584 33.197C159.571 31.4225 159.347 29.656 158.919 27.9347C158.214 24.8578 156.032 21.9217 153.402 20.2257C152.745 19.8095 152.053 19.4539 151.333 19.1632C150.961 19.0057 150.588 18.8281 150.213 18.694C149.861 18.6242 149.519 18.5116 149.195 18.3588C148.952 18.208 149.019 18.1745 148.736 18.1242C148.603 18.1125 148.47 18.1125 148.337 18.1242C147.963 18.105 147.59 18.0658 147.219 18.0069C146.311 17.871 145.396 17.7871 144.479 17.7555C142.484 17.6549 140.468 17.9298 138.463 17.8628C136.458 17.7957 134.452 17.9633 132.46 17.8628C132.909 17.1522 133.581 16.8572 134.352 16.6159C134.545 16.5556 135.44 16.4249 135.506 16.2807C135.59 16.0796 134.429 16.1735 134.263 16.2238C133.51 16.4806 132.807 16.8685 132.187 17.37C131.855 17.6214 131.645 17.8695 131.24 17.8963C130.761 17.9298 130.129 17.6114 129.663 17.8963C129.364 18.0706 129.44 18.1041 129.44 18.456V29.691C129.44 33.7735 129.513 37.8559 129.557 41.9282C129.557 43.8186 129.613 45.709 129.557 47.5994C129.59 47.8474 129.59 48.0988 129.557 48.3468C129.557 48.4306 129.557 48.5111 129.557 48.5949H124.688C124.159 48.5949 123.444 48.4708 122.929 48.5949C122.596 48.6887 122.596 48.6384 122.929 48.7557C123.177 48.8086 123.431 48.8278 123.684 48.8127C124.788 48.8798 125.892 48.8462 126.989 48.8395C127.595 48.8395 128.19 48.8395 128.798 48.863C128.922 48.863 129.487 48.8228 129.577 48.9133C129.666 49.0038 129.66 49.6238 129.67 49.7914C129.703 50.3445 129.67 50.9042 129.693 51.4673C129.71 51.7857 129.6 51.9701 129.952 52.027C130.305 52.084 130.285 51.8695 130.425 51.5846L129.926 51.5578C130.099 51.4405 130.275 51.3165 130.448 51.1891L130.009 50.9076L130.308 50.7835C130.247 50.7408 130.184 50.7016 130.119 50.6662C130.209 50.5918 130.304 50.5225 130.401 50.4584C130.196 50.2697 130.07 50.0077 130.052 49.7277C130.024 49.5794 130.024 49.427 130.052 49.2786C130.135 49.0339 130.135 49.0909 130.451 49.0909C130.767 49.0909 131.366 48.9669 131.589 49.0909C131.812 49.2149 132.038 49.6708 132.194 49.8786C132.527 49.4931 132.676 49.2686 133.192 49.1579C133.687 49.0639 134.192 49.0313 134.695 49.0607C135.164 49.1094 135.636 49.1094 136.105 49.0607C136.601 49.0143 137.1 48.9998 137.598 49.0172C138.546 49.0172 139.474 49.0172 140.422 49.0943C141.37 49.1714 142.324 48.987 143.275 48.9937C144.226 49.0004 145.271 49.054 146.268 49.0607C146.753 49.0742 147.239 49.0575 147.722 49.0105C147.955 49.0117 148.188 48.987 148.417 48.9367C148.576 48.8764 148.683 48.7356 148.842 48.6786C149.704 48.3602 150.618 48.2831 151.473 47.9077C152.329 47.5003 153.144 47.011 153.907 46.4464H153.941ZM85.0092 28.2598C84.9626 28.1459 84.9194 28.0252 84.8695 27.9247C84.9194 27.9247 84.9626 27.8979 85.0092 27.8912C85.0291 28.0085 85.0458 28.1325 85.0591 28.2565C85.0424 28.2557 85.0256 28.2568 85.0092 28.2598ZM81.0184 45.518C81.0166 45.4845 81.0166 45.4509 81.0184 45.4174C81.0184 45.4174 81.0416 45.4006 81.0583 45.3906C81.0749 45.3805 81.035 45.461 81.025 45.518H81.0184ZM80.8853 35.1544H80.8521C80.8521 35.0873 80.8521 35.0103 80.8354 34.9466H80.8853V35.1544ZM78.87 48.9468H78.9132H78.87ZM75.4678 45.9604L75.4844 45.8934L75.5011 45.9604H75.4678ZM75.4079 44.1974C75.4107 44.2049 75.4107 44.2133 75.4079 44.2208C75.4087 44.2353 75.4087 44.2499 75.4079 44.2644C75.3813 44.4152 75.3647 44.5627 75.3514 44.7135L75.2682 44.6901C75.3181 44.546 75.358 44.4052 75.4079 44.2644V44.2041H75.4246C75.4478 44.1102 75.4412 44.1437 75.4246 44.2041C75.4678 44.1136 75.4412 44.1471 75.4079 44.2041V44.1974ZM75.3015 45.4677L75.3181 45.4073V45.4677H75.3015ZM69.2155 27.4454L69.2421 27.3783L69.282 27.4018L69.2155 27.4454ZM65.5074 47.4352L65.4309 47.3111C65.4309 47.3111 65.4508 47.2944 65.4575 47.2944C65.4881 47.3313 65.5159 47.3705 65.5406 47.4117L65.5074 47.4352ZM62.3779 40.1351V41.6735C62.1355 41.7281 61.885 41.7361 61.6396 41.697C61.2998 41.5621 60.9763 41.3889 60.6752 41.1808C60.6519 41.2277 60.5754 41.3652 60.469 41.5562C59.8637 40.8691 59.9867 40.0915 60.0133 39.391L60.8015 38.5061C61.6037 38.479 62.3975 38.6787 63.0929 39.0826C62.8302 39.4513 62.6173 39.7865 62.3779 40.1485V40.1351ZM60.02 42.5852C59.7207 42.4511 59.581 42.3003 59.7739 41.9584C60.1131 42.0791 60.1198 42.2902 60.02 42.5986V42.5852ZM59.6874 27.194V27.261H59.6542L59.6874 27.194ZM59.9601 30.1201V30.1469L59.9102 30.1201H59.9601ZM58.6831 30.6832L59.0555 30.9412L59.438 30.834C59.3648 31.1323 59.0755 31.1055 58.693 30.6966L58.6831 30.6832ZM54.9417 27.1772L54.8818 27.1504H54.9483L54.9417 27.1772ZM86.8416 26.2488H86.3129C85.8905 26.6577 86.2364 27.0264 86.2862 27.3951C86.1299 27.127 85.9736 26.8689 85.8074 26.5907C85.7342 26.555 85.6554 26.5323 85.5746 26.5236C84.6533 26.5672 83.7388 26.6074 82.8275 26.6845C82.5078 26.7316 82.1912 26.7988 81.8797 26.8856C81.8564 26.8521 81.8132 26.775 81.8232 26.8018C81.3077 27.137 80.8687 27.4119 80.5361 27.6297C80.1304 28.8933 79.7546 30.053 79.3821 31.2094C78.5108 34.303 77.8124 37.4336 77.0541 40.7015C76.3424 38.2681 75.6673 35.9856 74.9989 33.7031C74.3304 31.4205 73.8249 29.0106 73.0301 26.7415H67.7422C66.2058 31.2161 65.0451 35.7275 63.8179 40.2356C62.5475 35.7443 61.45 31.2328 60.2162 26.6845C59.7007 26.718 59.275 26.7583 58.8527 26.7583C57.9082 26.7583 56.9604 26.7415 56.0159 26.7248C55.4106 26.7248 54.7787 26.5672 54.1901 26.9761C54.1648 27.182 54.1648 27.3903 54.1901 27.5962C55.4039 31.7959 56.6311 35.9923 57.8018 39.9976C58.4669 40.668 59.3116 40.9093 59.428 41.8545C59.1786 42.1562 58.9225 42.4578 58.6232 42.8165C59.1553 44.9347 59.8504 46.9927 60.5654 49.1244C61.8092 49.0004 63.0962 49.5769 64.1006 48.4139C64.2902 48.7323 64.4565 48.9904 64.6327 49.2685H66.3155C66.5816 48.6485 66.841 48.0452 66.6913 47.3514C66.5749 47.3178 66.4585 47.2944 66.3587 47.2575C66.3587 47.234 66.3587 47.2173 66.382 47.1905L66.7146 47.3413C66.8635 47.1501 66.9918 46.9433 67.097 46.7246C67.2467 46.2889 67.3298 45.8297 67.4529 45.3839C67.975 43.47 68.5005 41.5629 69.0226 39.6491L70.3828 34.6952C71.1211 37.2291 71.8262 39.6155 72.5079 41.9986C73.1897 44.3817 73.6786 46.8486 74.5033 49.1412C75.0587 49.2753 78.3312 49.1077 78.7702 48.9501L78.8367 48.9233C78.7935 49.0239 78.7436 49.1244 78.6538 49.3088L80.1803 49.0842C80.6126 47.7938 81.0616 46.5805 81.4241 45.3437C81.7866 44.1069 82.0227 42.8935 82.3719 41.6567C83.3696 38.1743 84.3673 34.6952 85.3916 31.2261C85.452 30.974 85.539 30.729 85.651 30.4955C86.1299 29.5268 86.4891 28.5313 86.3395 27.4186C86.5382 27.3084 86.6957 27.1358 86.7882 26.927C86.8806 26.7183 86.9029 26.4849 86.8516 26.2622L86.8416 26.2488ZM46.5343 43.0846C45.6697 43.872 44.5479 44.3113 43.3825 44.3187C42.2172 44.3261 41.09 43.9012 40.2155 43.1248C37.6681 40.8356 37.3288 35.1443 39.4373 32.5098C41.4327 30.0262 46.0521 29.9257 47.6285 33.3143C48.1939 34.5511 48.4666 35.9219 48.706 36.6928C48.41 39.4044 48.3169 41.5227 46.5343 43.0846ZM44.7983 46.5503C44.7651 46.4833 44.7252 46.4162 44.6919 46.3492L45.1642 46.0978L45.2639 46.2721L44.7983 46.5503ZM54.077 33.8137C52.6403 28.4073 46.98 24.469 40.0659 26.3259C35.7092 27.489 33.1717 30.6597 32.2173 34.9332C31.2628 39.2066 32.756 42.9773 35.6527 46.2017C36.534 47.1704 37.7113 47.4955 38.8055 48.0485C40.8009 49.054 42.8495 49.7713 44.9413 48.3502C45.6755 47.8213 46.3542 47.2182 46.9667 46.5503C47.7382 45.7559 48.4832 45.4978 49.3645 46.3592C49.2547 46.6173 49.1483 46.862 49.0319 47.0966C49.1583 47.1938 49.2747 47.2977 49.3978 47.3983C50.2857 46.6106 51.3499 45.9503 52.0284 45.0118C54.516 41.6601 55.1479 37.8659 54.077 33.8338V33.8137ZM26.3973 29.614C26.1479 28.4911 25.9683 27.6632 25.7521 26.7113C24.0494 26.7348 22.4065 26.46 20.7204 26.946C20.2149 31.1692 20.0985 47.5223 20.5641 49.0943H25.802C25.8697 48.9276 25.9166 48.7531 25.9417 48.5747C26.0249 45.7827 26.0415 42.9975 26.2144 40.1954C26.2809 39.1228 26.1579 38.238 25.4362 37.4503C25.3597 37.3598 25.4096 37.1487 25.393 36.8973L26.4406 36.5621C27.0558 32.9221 29.3106 31.2999 32.8625 31.2261V26.5371C29.9059 25.6522 28.0402 27.1102 26.3973 29.6341V29.614ZM3.5399 22.3206C3.47339 22.4714 3.3071 22.4882 3.12751 22.5485C3.01777 22.1798 2.81157 21.5865 3.26719 22.1061C3.28382 22.1061 3.47339 21.8279 3.51662 21.8714C3.55985 21.915 3.58313 22.2468 3.5399 22.3206ZM14.0324 26.5471C14.722 26.1717 15.4048 25.7919 16.0811 25.4075L17.1187 24.8411C17.326 24.7548 17.5216 24.6421 17.7007 24.5059C17.8337 24.3316 17.7672 24.2914 17.6441 24.04C17.3263 23.4934 16.9625 22.9753 16.5566 22.4915C15.8915 23.0848 16.2739 22.0457 15.7086 22.1831C15.5589 22.2133 15.6188 22.334 15.509 22.4077C15.3428 22.5317 15.4758 22.4915 15.2363 22.5016C15.0534 22.5016 14.9038 22.4178 14.7142 22.4312C14.5456 22.4565 14.3789 22.4934 14.2153 22.5418C13.8495 22.6256 13.7331 22.5083 13.3939 22.4747C13.0375 22.5032 12.6794 22.5032 12.323 22.4747C12.1235 22.4245 12.18 22.4747 12.0503 22.3407C11.9206 22.2066 12.0071 22.0994 11.7909 22.0826C11.7078 22.0826 11.4584 22.1731 11.485 22.2401C11.5116 22.3072 11.7676 22.2401 11.8475 22.2401C11.8475 22.4412 11.8242 22.6423 11.8075 22.8334C11.5016 22.4412 11.1424 22.525 10.6934 22.5652C10.2445 22.6055 9.77223 22.4178 9.5095 22.7932C9.30996 22.4077 9.31661 22.458 8.91753 22.5585C8.61751 22.6587 8.31076 22.7371 7.99964 22.7932C7.60056 22.8434 7.60056 22.649 7.25801 22.5418C6.91547 22.4345 6.9454 22.5418 6.70263 22.8166C6.4798 22.4077 6.27029 21.915 6.27029 22.6423C6.13061 22.6088 5.99758 22.5753 5.8579 22.5485C5.82042 22.6378 5.77241 22.7222 5.7149 22.7999C5.41558 22.9105 5.5087 22.8937 5.2493 22.7328C5.21937 22.5753 5.12625 22.5317 4.97659 22.5988C4.86685 22.5988 4.75377 22.6256 4.64403 22.6323C4.52991 22.6023 4.42955 22.5336 4.35987 22.4378C4.29019 22.3419 4.25547 22.2247 4.26157 22.1061C4.23829 21.6703 4.37797 21.6469 4.7438 21.6234C5.10962 21.5999 5.40893 21.6234 5.7415 21.6234C6.4399 21.5899 7.13829 21.4726 7.84334 21.4659C8.99402 21.4659 10.1314 21.4659 11.302 21.4391C11.9339 21.4391 12.5725 21.4156 13.2043 21.4055C13.5133 21.4335 13.8244 21.4279 14.1322 21.3888C14.4315 21.3217 14.4149 21.2547 14.6809 20.9866C14.9304 21.2815 15.1033 21.4558 15.4458 21.2044C15.0832 20.773 14.68 20.3779 14.242 20.0246C14.0324 19.8503 13.8329 19.8671 13.6333 19.7498C13.4338 19.6325 13.2709 19.3308 13.078 19.19C12.8731 19.0135 12.6374 18.8771 12.3829 18.7878C12.0237 18.6873 12.0171 18.9286 11.7178 18.9956C11.4118 18.9995 11.107 18.9577 10.8132 18.8716C10.4978 18.8355 10.1862 18.7715 9.88198 18.6806C10.025 18.58 10.3409 18.4761 10.2478 18.2616C10.1547 18.0471 10.0582 18.2013 9.91523 18.1275C9.84889 18.1343 9.78204 18.1343 9.71569 18.1275C9.69241 18.0102 9.67578 17.8996 9.64918 17.7924C9.52613 17.5175 9.31661 17.5242 9.0173 17.4572C8.29563 17.2628 6.41994 16.4517 5.84792 17.236C5.45882 16.693 4.1618 16.9544 3.60641 16.9779C2.84483 17.0114 1.70745 16.9544 1.02568 17.3298C0.529398 17.6671 0.179653 18.1826 0.0479309 18.7711C0.0141396 19.1567 0.00525177 19.544 0.0213248 19.9308C0.00469635 20.9866 0.0213248 22.039 0.0213248 23.0948C0.0379532 23.6613 -0.0884222 24.5059 0.131073 25.0522C2.07327 23.5037 4.67728 23.1619 7.05847 23.7115C9.18359 24.2042 10.8098 25.7025 11.8907 27.5761C12.6789 27.4253 13.3773 26.9057 14.0324 26.5471ZM18.2394 33.8137C18.2394 33.3713 18.2394 32.9221 18.2394 32.473C18.2394 32.0239 18.3991 31.5948 17.8769 31.4675C17.1719 31.2865 16.234 31.4507 15.5024 31.4675C14.5313 31.4675 13.5668 31.4675 12.5991 31.4675C11.7078 31.4675 10.8298 31.4675 9.93851 31.4842C9.30996 31.4842 8.68473 31.7255 8.10606 31.558C7.41765 31.3669 6.5696 31.4742 5.86455 31.4909C5.69827 31.4909 5.236 31.4406 5.11627 31.558C4.99655 31.6753 5.13623 32.6205 5.14288 32.8484C5.15951 33.6997 5.17614 34.5544 5.19941 35.4058C5.19941 35.7409 5.19942 36.0929 5.21937 36.4347C5.21937 36.6526 5.21937 36.8604 5.21937 37.0783C5.21937 37.4134 5.14953 37.3799 5.42556 37.4805C5.70159 37.581 6.23703 37.5073 6.5696 37.4972C7.00194 37.4972 7.4243 37.4972 7.85664 37.4972H10.1846C10.577 37.4972 10.9595 37.4972 11.3386 37.4972C11.5814 37.5241 11.6712 37.4972 11.7643 37.6648C11.7862 37.8419 11.775 38.0215 11.7311 38.1944C11.6488 38.802 11.4773 39.3939 11.2222 39.9507C10.5636 41.1776 9.49314 42.1282 8.20251 42.6321C6.81526 43.1809 5.30748 43.3453 3.83588 43.1081C2.42579 42.9137 1.27178 42.2701 0.134398 41.4322C-0.115028 42.5952 0.0612328 43.9762 0.0678841 45.1459C0.0678841 45.9403 0.0845129 46.7279 0.111118 47.5122C0.0717899 47.918 0.0964846 48.3276 0.184284 48.7256C0.244146 48.5915 0.234169 48.2262 0.290706 48.1323C0.347242 48.0385 0.466967 48.015 0.699765 47.9815C0.523503 48.3502 0.0678852 48.9602 0.583366 49.2618C0.843962 49.342 1.11588 49.3782 1.38818 49.3691C1.72075 49.4227 2.02006 49.4864 2.336 49.53C3.69496 49.6665 5.06682 49.5839 6.39999 49.2853C7.61056 49.0669 8.77557 48.6431 9.8454 48.0318C10.8431 47.4452 11.6313 46.6341 12.5359 45.9302C12.6323 46.6844 12.7354 47.4284 12.8352 48.1826C12.8312 48.3409 12.8502 48.499 12.8917 48.6518C12.9981 48.8194 13.1145 48.7691 13.3374 48.7691C13.6699 48.7691 14.0025 48.7691 14.3351 48.7524C15.1233 48.7088 15.9048 48.7256 16.6996 48.7524C17.0887 48.7886 17.4797 48.7998 17.8703 48.7859C18.2028 48.7524 18.3292 48.7524 18.3924 48.4507C18.4661 47.7901 18.4381 47.1219 18.3093 46.4699C18.2633 45.7027 18.2721 44.9331 18.3359 44.1672C18.3897 43.5388 18.2627 42.9081 17.97 42.3506C17.7805 42.0154 17.5876 41.7003 17.4147 41.3652C17.2417 41.03 17.2916 40.8993 17.4379 40.5038C17.2916 40.4602 17.1486 40.42 16.9989 40.3697C17.3861 40.0601 17.7445 39.7157 18.0698 39.3407C18.3691 38.9653 18.2095 38.7307 18.0698 38.2782C18.0299 38.1709 17.9933 38.0536 17.9534 37.943C18.0133 37.8257 18.0698 37.7084 18.1297 37.5844C18.0698 37.5006 18.0199 37.4168 17.9634 37.333C17.9069 37.2492 17.8969 37.1587 18.0366 37.0749C18.1596 36.6895 18.3259 36.6224 18.0765 36.2202C18.2054 35.425 18.26 34.6192 18.2394 33.8137Z" fill="#0D1414"/>
<path fill-rule="evenodd" clip-rule="evenodd" d="M243.542 29.1336C243.293 28.0412 243.11 27.2358 242.876 26.3098C241.175 26.3326 239.526 26.0652 237.841 26.538C237.335 30.6466 237.218 46.5557 237.684 48.085H242.926C242.995 47.9229 243.043 47.7531 243.07 47.5796C243.15 44.8634 243.166 42.1537 243.343 39.4277C243.409 38.3843 243.286 37.5235 242.56 36.7572C242.487 36.6692 242.537 36.4637 242.52 36.2192L243.566 35.8931C244.182 32.3519 246.443 30.7737 250 30.702V26.1207C247.043 25.2598 245.188 26.6783 243.542 29.1336ZM223.867 29.727C225.232 29.6455 226.531 29.6847 227.683 30.6564C228.35 31.2009 229.479 31.1585 229.812 32.3161C229.662 32.7954 229.479 33.3726 229.295 33.9464C228.449 34.1249 227.591 34.248 226.728 34.3149C224.5 34.3149 222.275 34.2562 220.067 34.2171C219.714 31.9802 221.549 29.864 223.867 29.727ZM227.3 34.9997C226.967 34.9671 226.634 34.941 226.301 34.9181V34.7714H227.3C227.295 34.8474 227.295 34.9237 227.3 34.9997ZM234.501 41.3516C234.357 41.8081 234.241 42.2059 234.051 42.8417L233.099 41.2505C231.903 41.1853 230.671 41.1103 229.742 41.0614C228.31 42.2678 227.114 43.2754 226.078 44.1623C225.462 44.0417 224.939 43.8852 224.413 43.8363C222.035 43.6015 220.433 42.2581 219.851 39.9625C219.691 39.3104 219.674 38.6289 219.384 38.0648C218.951 37.2365 219.051 36.405 218.985 35.4855C219.561 35.4203 220.057 35.3649 220.623 35.3094C221.596 37.4061 223.441 36.6137 224.696 36.5844C226.298 37.292 227.424 38.0974 228.636 38.2539C230.581 38.4984 232.589 38.3256 234.571 38.3093C234.926 38.2547 235.276 38.1684 235.616 38.0517C235.533 37.2268 235.483 36.4213 235.367 35.642C235.233 34.7877 235.034 33.9562 234.894 33.3139C233.994 32.303 232.582 32.303 232.05 31.1096C231.986 30.9466 231.603 30.8553 231.36 30.8324C230.554 30.7346 230.221 30.1412 230.028 29.5281C229.672 28.4456 229.422 27.3271 229.059 25.9609C228.06 25.7261 226.848 25.3087 225.582 25.1653C221.129 24.7316 217.273 26.8902 215.211 30.7085C214.785 31.4976 214.362 32.3389 214.702 33.353C215.511 33.8812 216.367 34.3866 217.163 35.0062C217.448 35.2934 217.627 35.665 217.673 36.0627C217.839 37.1126 217.819 38.205 218.079 39.2288C218.575 41.2635 218.036 42.7863 215.901 43.8102C216.234 44.3384 216.397 44.9254 216.797 45.2188C217.92 46.0993 219.127 46.8703 220.403 47.5209C222.402 48.447 224.553 48.5872 226.798 48.2285C228.533 47.9558 230.187 47.3148 231.643 46.3503C233.129 45.3721 233.768 43.7417 234.867 42.4668C235.024 42.2972 234.924 41.8896 234.884 41.5961C234.864 41.4951 234.657 41.4364 234.501 41.3516ZM212.6 41.0027C212.556 40.7875 212.556 40.5657 212.6 40.3505C212.658 40.0409 212.699 39.7285 212.724 39.4147C212.724 37.6148 212.707 35.8279 212.724 34.0117C212.74 32.1954 212.574 30.3988 212.724 28.5923C212.749 28.4597 212.749 28.3238 212.724 28.1912C212.656 27.9712 212.555 27.7624 212.424 27.5717C212.29 27.4436 212.139 27.3339 211.974 27.2456C212.251 26.9456 212.501 26.6783 212.7 26.4728V23.0458C212.191 22.8599 211.728 22.6871 211.162 22.4849C211.495 22.273 211.728 22.0187 212.041 22.2013C212.354 22.3839 212.517 22.11 212.707 22.0447V18.1775H211.841C211.751 19.4166 211.658 20.597 211.575 21.7643H210.636C210.802 21.36 210.945 21.0176 211.085 20.6752C211.318 19.7557 210.479 19.3318 210.119 18.8199C210.269 18.0797 211.085 18.846 211.225 18.1677C209.706 18.1677 208.228 18.0145 206.662 18.1677V26.3881C206.662 27.7543 206.639 29.1238 206.662 30.4966C206.686 31.8694 206.696 33.1508 206.662 34.478C207.395 34.5203 207.562 34.6247 207.751 35.2768C208.036 36.285 208.099 37.3409 207.935 38.3745C207.656 39.9695 207.498 41.5826 207.462 43.2004C207.42 43.4875 207.344 43.7688 207.235 44.0384C207.302 44.2276 207.395 44.4721 207.528 44.8112C207.345 44.8699 207.235 44.9417 207.172 44.9188C206.839 44.7786 206.672 44.9677 206.662 45.2253C206.639 46.2036 206.662 47.1818 206.662 48.1894H208.351C208.591 48.0263 208.791 47.8894 208.997 47.7426C209.17 47.922 209.313 48.0687 209.487 48.2546C210.486 48.0524 211.581 48.5546 212.654 47.8307V45.3884C212.654 45.1536 212.654 44.9188 212.654 44.6743C212.654 44.3482 212.654 43.9895 212.654 43.6504C212.64 43.4931 212.64 43.3349 212.654 43.1776C212.8 42.4533 212.782 41.7063 212.6 40.9896V41.0027ZM188.605 30.7933C189.478 30.0368 190.351 29.2868 191.156 28.5956C192.728 28.5956 194.154 28.6282 195.552 28.5956C196.029 28.5851 196.501 28.6841 196.931 28.8846C197.362 29.085 197.738 29.3814 198.03 29.7499C198.306 30.1141 198.545 30.504 198.743 30.914C197.904 31.465 198.703 32.4758 198.187 33.1345C197.541 34.1519 195.909 33.5976 195.313 34.8855C196.268 35.4366 195.253 36.9431 196.675 37.3507L198.673 36.8681C199.196 40.1484 198.084 42.5809 195.489 44.3678C194.284 44.3678 193.158 44.971 191.872 44.8406C190.657 44.667 189.487 44.2662 188.426 43.6602C187.693 42.3559 187.76 41.1201 188.509 39.4212C188.715 39.2256 189.265 38.7071 189.841 38.1593C189.535 37.5267 189.195 36.8355 188.862 36.1409L187.623 35.6225C187.48 35.7366 187.38 35.8246 187.263 35.8996C187.147 35.9746 187.033 36.0105 186.93 36.0692C184.532 37.2496 183.21 39.0462 183.5 41.782C183.55 42.2613 183.5 42.7602 183.5 43.2396C183.583 44.6221 184.099 45.9329 185.255 46.647C186.411 47.3611 187.556 48.2285 189.078 48.147C189.288 48.147 189.511 48.3654 189.744 48.4959C189.868 47.9578 190.927 48.3328 190.743 47.4785C190.841 47.4385 190.941 47.4058 191.043 47.3807C191.116 47.7883 191.183 48.1698 191.243 48.4861C192.748 48.16 194.177 47.8535 195.945 47.4622L198.723 45.646C199.056 46.2981 199.436 46.9666 199.679 47.4133L201.344 48.6426L205.124 48.0589V44.6123L203.056 43.9928C203.056 40.1679 203.056 36.5713 203.056 32.965C203.073 31.6922 202.953 30.4211 202.699 29.1727C202.535 28.2869 202.127 27.4618 201.519 26.7865C200.911 26.1113 200.126 25.6116 199.249 25.3414C197.697 24.7968 196.025 24.3403 194.32 24.4707C192.892 24.5686 191.486 24.7968 190.074 24.999C187.48 25.9772 185.412 27.5456 184.413 30.2162V32.202L184.952 32.7302H187.779L188.805 30.9172C188.739 30.8814 188.672 30.8324 188.605 30.7933ZM169.912 29.727C171.274 29.6455 172.577 29.6847 173.729 30.6564C174.395 31.2009 175.524 31.1585 175.854 32.3161C175.704 32.7954 175.521 33.3726 175.341 33.9464C174.493 34.1251 173.634 34.2482 172.77 34.3149C170.545 34.3149 168.317 34.2562 166.109 34.2171C165.756 31.9802 167.594 29.864 169.912 29.727ZM173.346 34.9997C173.013 34.9671 172.68 34.941 172.347 34.9181V34.7714H173.346C173.346 34.8464 173.346 34.9181 173.346 34.9997ZM180.543 41.3516C180.403 41.8081 180.283 42.2059 180.093 42.8417C179.703 42.1896 179.454 41.7657 179.154 41.2635C177.958 41.1983 176.726 41.1233 175.797 41.0744C174.368 42.2809 173.169 43.2885 172.134 44.1754C171.521 44.0547 170.998 43.8982 170.468 43.8493C168.087 43.6145 166.472 42.2711 165.903 39.9756C165.746 39.3234 165.729 38.6419 165.436 38.0778C165.007 37.2496 165.103 36.4181 165.04 35.4986C165.613 35.4333 166.112 35.3779 166.675 35.3225C167.648 37.4191 169.493 36.6268 170.748 36.5974C172.353 37.305 173.476 38.1104 174.688 38.2669C176.633 38.5115 178.644 38.3387 180.623 38.3224C180.979 38.2681 181.329 38.1819 181.668 38.0648C181.585 37.2398 181.535 36.4344 181.419 35.6551C181.289 34.8008 181.086 33.9693 180.946 33.3269C180.05 32.3161 178.638 32.3161 178.105 31.1226C178.038 30.9596 177.655 30.8683 177.416 30.8455C176.61 30.7477 176.277 30.1542 176.083 29.5412C175.724 28.4586 175.477 27.3402 175.111 25.9739C174.112 25.7392 172.9 25.3218 171.637 25.1783C167.181 24.7446 163.312 26.9032 161.263 30.7216C160.84 31.5107 160.418 32.3519 160.757 33.366C161.563 33.8943 162.422 34.3997 163.215 35.0192C163.5 35.3064 163.679 35.678 163.725 36.0757C163.891 37.1257 163.874 38.218 164.131 39.2419C164.63 41.2766 164.091 42.7993 161.953 43.8232C162.286 44.3515 162.452 44.9384 162.852 45.2319C163.974 46.1129 165.182 46.884 166.459 47.5339C168.457 48.46 170.605 48.6002 172.85 48.2415C174.585 47.9689 176.239 47.3278 177.695 46.3633C179.184 45.3851 179.823 43.7547 180.919 42.4798C181.079 42.3102 180.979 41.9027 180.919 41.6092C180.909 41.4951 180.699 41.4364 180.543 41.3516Z" fill="#0D1414"/>
<path fill-rule="evenodd" clip-rule="evenodd" d="M119.992 29.1163H91.546V30.841H119.992V29.1163ZM91.0219 28.2805H121.041V31.6742H90.4977V28.2858L91.0219 28.2805Z" fill="#0D1414"/>
<path d="M119.992 29.1163H91.546V30.841H119.992V29.1163ZM91.0219 28.2805H121.041V31.6742H90.4977V28.2858L91.0219 28.2805Z" stroke="#0D1414" stroke-width="0.22"/>
<path fill-rule="evenodd" clip-rule="evenodd" d="M93.8914 26.0148L93.9466 18.6204L93.9501 18.0996H117.647V23.7557H116.56V19.1413H95.023L94.9712 26.0182L93.8914 26.0148Z" fill="#0D1414"/>
<path d="M93.8914 26.0148L93.9466 18.6204L93.9501 18.0996H117.647V23.7557H116.56V19.1413H95.023L94.9712 26.0182L93.8914 26.0148Z" stroke="#0D1414" stroke-width="0.22"/>
<path fill-rule="evenodd" clip-rule="evenodd" d="M96.8488 36.3118H96.0056V37.2508H96.8488V36.3118ZM93.5027 34.791H94.8813V36.0172H95.7245V34.791H97.1031V36.0172H98.2273V37.2508H99.3047V38.7679H97.9262V37.5343H97.0863V38.7679H95.7078V37.5343H94.6303V36.3118H93.5027V34.791ZM112.414 36.3118H111.575V37.2508H112.414V36.3118ZM109.068 34.791H110.447V36.0172H111.277V34.791H112.655V36.0172H113.783V37.2508H114.86V38.7679H113.485V37.5343H112.642V38.7679H111.277V37.5343H110.199V36.3118H109.068V34.791ZM91.629 33.9366H119.91V35.9546H118.819V37.295H117.634V38.4475H116.537V39.5928H109.102V38.4107H108.075V37.2545H106.987V34.8131H104.427V37.2545H103.286V38.4107H102.206V39.5928H94.8211V38.4475H93.737V37.3134H92.6796V35.973H91.629V33.9366Z" fill="#0D1414"/>
<path d="M96.8488 36.3118H96.0056V37.2508H96.8488V36.3118ZM93.5027 34.791H94.8813V36.0172H95.7245V34.791H97.1031V36.0172H98.2273V37.2508H99.3047V38.7679H97.9262V37.5343H97.0863V38.7679H95.7078V37.5343H94.6303V36.3118H93.5027V34.791ZM112.414 36.3118H111.575V37.2508H112.414V36.3118ZM109.068 34.791H110.447V36.0172H111.277V34.791H112.655V36.0172H113.783V37.2508H114.86V38.7679H113.485V37.5343H112.642V38.7679H111.277V37.5343H110.199V36.3118H109.068V34.791ZM91.629 33.9366H119.91V35.9546H118.819V37.295H117.634V38.4475H116.537V39.5928H109.102V38.4107H108.075V37.2545H106.987V34.8131H104.427V37.2545H103.286V38.4107H102.206V39.5928H94.8211V38.4475H93.737V37.3134H92.6796V35.973H91.629V33.9366Z" stroke="#0D1414" stroke-width="0.22"/>
<path fill-rule="evenodd" clip-rule="evenodd" d="M100.726 42.1305C99.2394 42.3092 97.7641 42.5807 96.3075 42.9435C96.8037 44.047 97.433 45.0764 98.1795 46.0056C99.4576 47.6924 100.961 49.2826 101.695 49.7912L105.245 49.7625L105.281 41.844C103.759 41.8476 102.238 41.9433 100.726 42.1305ZM95.5091 41.9944C97.186 41.5488 98.8882 41.2198 100.605 41.0095C102.333 40.8014 104.072 40.7069 105.812 40.7265H106.335V41.2852L106.295 50.3176V50.8728H105.775L101.554 50.905H101.413L101.296 50.8334C100.518 50.3642 98.7867 48.5735 97.3676 46.6968C96.2706 45.2463 95.338 43.717 95.1266 42.6426L95.0226 42.1126L95.5158 41.98L95.5091 41.9944Z" fill="#0D1414"/>
<path d="M100.726 42.1305C99.2394 42.3092 97.7641 42.5807 96.3075 42.9435C96.8037 44.047 97.433 45.0764 98.1795 46.0056C99.4576 47.6924 100.961 49.2826 101.695 49.7912L105.245 49.7625L105.281 41.844C103.759 41.8476 102.238 41.9433 100.726 42.1305V42.1305ZM95.5091 41.9944C97.186 41.5488 98.8882 41.2198 100.605 41.0095C102.333 40.8014 104.072 40.7069 105.812 40.7265H106.335V41.2852L106.295 50.3176V50.8728H105.775L101.554 50.905H101.413L101.296 50.8334C100.518 50.3642 98.7867 48.5735 97.3676 46.6968C96.2706 45.2463 95.338 43.717 95.1266 42.6426L95.0226 42.1126L95.5158 41.98L95.5091 41.9944Z" stroke="#0D1414" stroke-width="0.22"/>
<path fill-rule="evenodd" clip-rule="evenodd" d="M110.93 40.9997C112.646 41.2104 114.347 41.5393 116.023 41.9845L116.516 42.1134L116.412 42.6434C116.197 43.7177 115.269 45.2469 114.172 46.6972C112.754 48.5737 111.024 50.3643 110.246 50.8334L110.129 50.905H109.985L105.77 50.8728H105.247V50.3177L105.204 41.2862V40.7275H105.727C107.465 40.7043 109.202 40.7952 110.93 40.9997ZM115.225 42.9335C113.769 42.5711 112.295 42.2996 110.809 42.1206C109.298 41.9335 107.778 41.8379 106.256 41.8341L106.293 49.7519L109.834 49.7662C110.568 49.2577 112.07 47.6677 113.344 45.981C114.092 45.0568 114.725 44.0323 115.225 42.9335Z" fill="#0D1414"/>
<path d="M110.93 40.9997C112.646 41.2104 114.347 41.5393 116.023 41.9845L116.516 42.1134L116.412 42.6434C116.197 43.7177 115.269 45.2469 114.172 46.6972C112.754 48.5737 111.024 50.3643 110.246 50.8334L110.129 50.905H109.985L105.77 50.8728H105.247V50.3177L105.204 41.2862V40.7275H105.727C107.465 40.7043 109.202 40.7952 110.93 40.9997V40.9997ZM115.225 42.9335C113.769 42.5711 112.295 42.2996 110.809 42.1206C109.298 41.9335 107.778 41.8379 106.256 41.8341L106.293 49.7519L109.834 49.7662C110.568 49.2577 112.07 47.6677 113.344 45.981C114.092 45.0568 114.725 44.0323 115.225 42.9335V42.9335Z" stroke="#0D1414" stroke-width="0.22"/>
<path fill-rule="evenodd" clip-rule="evenodd" d="M95.4812 46.8109L94.1115 48.2815L96.8265 51.6125L98.1962 50.1418L95.4812 46.8109ZM93.1087 47.8639L95.1755 45.642L95.5332 45.2489L95.8573 45.649L99.2204 49.7803L99.5475 50.184L99.202 50.5665L97.1353 52.7884L96.7867 53.1674L96.4504 52.7638L93.0873 48.6325L92.7602 48.2324L93.1087 47.8639Z" fill="#0D1414"/>
<path fill-rule="evenodd" clip-rule="evenodd" d="M117.094 45.625L119.503 47.8498L119.91 48.2258L119.528 48.6265L115.608 52.7633L115.23 53.1674L114.806 52.7879L112.397 50.5631L111.991 50.1905L112.372 49.7863L116.292 45.6496L116.674 45.2489L117.094 45.625ZM118.334 48.275L116.738 46.8024L113.573 50.1378L115.17 51.6105L118.334 48.275Z" fill="#0D1414"/>
<path d="M117.094 45.625L119.503 47.8498L119.91 48.2258L119.528 48.6265L115.608 52.7633L115.23 53.1675L114.806 52.7879L112.397 50.5631L111.991 50.1905L112.372 49.7863L116.292 45.6496L116.674 45.2489L117.094 45.625ZM118.334 48.275L116.738 46.8024L113.573 50.1378L115.17 51.6105L118.334 48.275Z" stroke="#0D1414" stroke-width="0.22"/>
</svg>
