<svg width="30" height="30" viewBox="0 0 30 30" fill="none" xmlns="http://www.w3.org/2000/svg">
<g clip-path="url(#clip0_261_4328)">
<path fill-rule="evenodd" clip-rule="evenodd" d="M13.8192 0.0579381C7.14624 0.600878 1.60191 5.51567 0.297741 12.0441C-0.317599 15.1245 0.0227852 18.2098 1.30092 21.1366C2.72674 24.4016 5.57293 27.2514 8.86242 28.7075C13.9189 30.9459 19.6458 30.2905 24.0758 26.9665C25.2432 26.0906 26.6315 24.6201 27.4596 23.3823C30.8427 18.3256 30.8472 11.738 27.4707 6.68821C26.8694 5.7889 26.4217 5.25395 25.5299 4.36909C24.0322 2.8829 22.494 1.86661 20.5798 1.09847C19.1227 0.513767 17.6525 0.176452 16.0257 0.053525C15.0678 -0.0188755 14.755 -0.0182359 13.8192 0.0579381ZM10.7172 8.94689C10.9287 9.04238 11.5348 9.60533 13.0033 11.0703L15.0015 13.0638L17.0326 11.0437C19.2802 8.80835 19.3478 8.75802 20.0017 8.83547C20.8731 8.9387 21.4173 9.83053 21.1104 10.6525C21.0154 10.9072 20.6677 11.2878 18.9773 12.9874L16.9576 15.0181L18.9773 17.0488C21.2121 19.2958 21.2625 19.3635 21.185 20.0174C21.0818 20.8888 20.19 21.433 19.368 21.1262C19.1133 21.0311 18.7327 20.6834 17.0326 18.9925L15.0015 16.9724L13.0033 18.9663C11.6734 20.2932 10.9255 20.9933 10.7672 21.0591C10.2518 21.2736 9.54754 21.1408 9.20569 20.7645C8.85948 20.3836 8.75638 19.7458 8.96137 19.2533C9.02724 19.095 9.72739 18.3469 11.0546 17.0168L13.049 15.0181L11.055 13.0194C9.58975 11.5506 9.02667 10.9444 8.93118 10.7329C8.68711 10.1923 8.78862 9.65209 9.21426 9.22651C9.63529 8.80548 10.1795 8.70423 10.7172 8.94689Z" fill="#5D9E84"/>
</g>
<defs>
<clipPath id="clip0_261_4328">
<rect width="30" height="30" fill="white"/>
</clipPath>
</defs>
</svg>
