<svg width="250" height="82" viewBox="0 0 250 82" fill="none" xmlns="http://www.w3.org/2000/svg">
<path fill-rule="evenodd" clip-rule="evenodd" d="M180.462 62.5712V64.3567H181.196C181.446 64.3675 181.697 64.3461 181.941 64.2929C182.097 64.2467 182.232 64.1498 182.323 64.0187C182.434 63.8613 182.49 63.6734 182.482 63.4831C182.488 63.3603 182.467 63.2377 182.42 63.1234C182.373 63.0091 182.302 62.9056 182.21 62.8199C182.01 62.6493 181.749 62.5601 181.482 62.5712H180.462ZM180.462 60.3809V61.975H180.91C181.176 61.9853 181.442 61.9693 181.705 61.9272C181.844 61.8868 181.967 61.8067 182.057 61.6976C182.172 61.5597 182.231 61.3864 182.223 61.2098C182.231 61.0196 182.17 60.8326 182.05 60.6806C181.967 60.555 181.838 60.4639 181.688 60.4255C181.43 60.3955 181.17 60.3838 180.91 60.3904L180.462 60.3809ZM181.326 64.9146H179.771V59.8134H181.293C181.519 59.7932 181.746 59.8166 181.963 59.8823C182.179 59.948 182.379 60.0547 182.552 60.196C182.798 60.4356 182.935 60.7587 182.934 61.0951C182.951 61.3208 182.89 61.5455 182.761 61.7349C182.632 61.9243 182.442 62.068 182.22 62.144C182.528 62.2236 182.799 62.402 182.988 62.6496C183.176 62.8971 183.271 63.1991 183.256 63.5054C183.266 64.4491 182.618 64.9146 181.326 64.9146ZM175.743 60.333C175.469 60.3294 175.196 60.3812 174.944 60.485C174.692 60.5888 174.465 60.7423 174.278 60.9356C174.079 61.1264 173.922 61.3538 173.817 61.6042C173.712 61.8546 173.661 62.1228 173.667 62.3927C173.665 62.7519 173.76 63.1055 173.942 63.4193C174.12 63.7269 174.382 63.9818 174.7 64.1558C175.019 64.3252 175.378 64.4141 175.743 64.4141C176.108 64.4141 176.467 64.3252 176.787 64.1558C177.105 63.9822 177.366 63.7272 177.541 63.4193C177.726 63.1063 177.822 62.7524 177.82 62.3927C177.825 62.1226 177.773 61.8543 177.668 61.604C177.562 61.3536 177.405 61.1263 177.206 60.9356C177.019 60.7429 176.793 60.5897 176.541 60.4859C176.289 60.3821 176.017 60.33 175.743 60.333ZM175.743 59.6954C176.127 59.6866 176.508 59.7582 176.86 59.9053C177.212 60.0523 177.526 60.2712 177.78 60.5467C178.262 61.0545 178.525 61.7184 178.518 62.405C178.511 63.0916 178.233 63.7501 177.741 64.2483C177.211 64.7537 176.494 65.0374 175.747 65.0374C175 65.0374 174.283 64.7537 173.753 64.2483C173.263 63.7495 172.987 63.092 172.979 62.4065C172.972 61.7211 173.234 61.0582 173.713 60.5498C173.967 60.274 174.281 60.0543 174.632 59.9057C174.983 59.7571 175.363 59.6832 175.747 59.689L175.743 59.6954ZM171.018 62.4628H167.915V64.921H167.234V59.8197H167.915V61.8475H171.018V59.8197H171.683V64.921H171.018V62.4628ZM161.744 59.8197V63.5979L165.655 59.8197H165.708V64.921H165.044V61.1652L161.163 64.9146H161.08V59.8134L161.744 59.8197ZM157.724 61.9527H158.082C158.312 61.9519 158.535 61.8766 158.714 61.7391C158.81 61.6654 158.886 61.5709 158.936 61.4633C158.986 61.3558 159.009 61.2383 159.003 61.1206C159.007 60.9035 158.924 60.6934 158.77 60.5339C158.677 60.4473 158.565 60.3808 158.442 60.339C158.319 60.2973 158.189 60.2811 158.059 60.2916C157.648 60.3052 157.252 60.4499 156.936 60.7029L156.551 60.2533C156.973 59.8901 157.518 59.6852 158.086 59.6763C158.496 59.6644 158.896 59.7984 159.209 60.0525C159.356 60.1719 159.474 60.3217 159.552 60.4905C159.631 60.6594 159.669 60.8431 159.664 61.0281C159.681 61.2605 159.619 61.4919 159.485 61.6867C159.352 61.8814 159.156 62.0287 158.926 62.1057C159.216 62.2012 159.466 62.3842 159.639 62.6273C159.811 62.8704 159.897 63.1606 159.883 63.4544C159.884 63.6746 159.837 63.8926 159.746 64.0946C159.654 64.2966 159.52 64.4782 159.352 64.628C159.184 64.7777 158.985 64.8924 158.768 64.9648C158.551 65.0372 158.321 65.0657 158.092 65.0485C157.765 65.0619 157.439 65.008 157.135 64.8903C156.831 64.7726 156.557 64.5939 156.331 64.3662L156.757 63.9071C156.915 64.0817 157.111 64.2204 157.332 64.3131C157.552 64.4057 157.792 64.45 158.033 64.4428C158.332 64.4604 158.627 64.3642 158.853 64.175C158.953 64.0847 159.031 63.9752 159.082 63.8536C159.134 63.7321 159.158 63.6014 159.152 63.4703C159.158 63.3415 159.134 63.2131 159.083 63.0941C159.031 62.9751 158.953 62.8684 158.853 62.7817C158.661 62.6119 158.407 62.5195 158.146 62.5234H157.724V61.9527ZM152.547 60.3299C152.177 60.3274 151.813 60.4199 151.493 60.5977C151.172 60.7787 150.907 61.0384 150.726 61.3501C150.54 61.6628 150.442 62.0167 150.443 62.3767C150.442 62.7372 150.541 63.0914 150.729 63.4034C150.909 63.7201 151.175 63.9836 151.5 64.1654C151.816 64.3453 152.176 64.4401 152.543 64.4396C152.915 64.4405 153.281 64.347 153.603 64.1686C153.927 63.9986 154.195 63.7458 154.377 63.4384C154.56 63.1191 154.652 62.7599 154.647 62.3959C154.654 62.1232 154.604 61.8519 154.5 61.5982C154.395 61.3445 154.238 61.1138 154.039 60.9197C153.847 60.7274 153.615 60.5752 153.359 60.4726C153.103 60.37 152.827 60.3192 152.55 60.3235L152.547 60.3299ZM155.288 59.8197V64.921H154.607V64.0442C154.345 64.3577 154.016 64.6142 153.643 64.7967C153.278 64.9639 152.878 65.0489 152.473 65.0453C152.114 65.05 151.757 64.9829 151.426 64.8485C151.095 64.714 150.796 64.5151 150.55 64.2642C150.289 64.0136 150.084 63.7149 149.947 63.3861C149.81 63.0573 149.743 62.7053 149.752 62.3512C149.747 62.0023 149.815 61.656 149.953 61.3332C150.092 61.0104 150.297 60.7179 150.556 60.4733C150.806 60.2226 151.107 60.0238 151.44 59.8895C151.773 59.7551 152.132 59.6879 152.493 59.6922C152.904 59.6856 153.311 59.7765 153.676 59.9568C154.048 60.148 154.367 60.4212 154.607 60.7539V59.8165L155.288 59.8197ZM147.061 60.3968V64.921H146.379V59.8197H149.074V60.3968H147.061ZM142.096 60.3299C141.725 60.3268 141.36 60.4199 141.039 60.5995C140.719 60.7791 140.455 61.0384 140.275 61.3501C140.087 61.6621 139.988 62.0163 139.988 62.3767C139.988 62.7372 140.087 63.0913 140.275 63.4034C140.453 63.7155 140.715 63.9762 141.034 64.1584C141.352 64.3406 141.715 64.4377 142.086 64.4396C142.459 64.44 142.826 64.3466 143.15 64.1686C143.473 63.9998 143.74 63.7467 143.92 63.4384C144.105 63.1199 144.199 62.7603 144.193 62.3959C144.2 62.1232 144.15 61.8519 144.046 61.5982C143.941 61.3445 143.785 61.1138 143.585 60.9197C143.393 60.7278 143.162 60.5758 142.907 60.4732C142.651 60.3706 142.377 60.3197 142.1 60.3235L142.096 60.3299ZM144.838 59.8197V64.921H144.156V64.0442C143.894 64.3577 143.566 64.6142 143.193 64.7967C142.828 64.9639 142.428 65.0489 142.023 65.0453C141.663 65.05 141.306 64.983 140.974 64.8486C140.642 64.7141 140.343 64.5152 140.096 64.2642C139.836 64.0132 139.631 63.7143 139.494 63.3857C139.357 63.057 139.29 62.7052 139.298 62.3512C139.293 62.002 139.362 61.6554 139.5 61.3325C139.639 61.0096 139.845 60.7173 140.106 60.4733C140.355 60.2223 140.656 60.0233 140.99 59.8889C141.323 59.7545 141.682 59.6875 142.043 59.6922C142.454 59.6858 142.86 59.7767 143.226 59.9568C143.598 60.148 143.917 60.4212 144.156 60.7539V59.8165L144.838 59.8197ZM136.53 59.8197H136.73L138.524 64.921H137.81L136.481 61.1748L134.43 64.921H134.304L132.254 61.1588L130.925 64.921H130.26L132.074 59.8197H132.254L134.39 63.8115L136.53 59.8197ZM125.768 60.3873H125.316C125.018 60.3718 124.719 60.3986 124.429 60.467C124.28 60.5174 124.154 60.6139 124.07 60.7411C123.978 60.8997 123.936 61.0799 123.947 61.2608C123.939 61.4482 124 61.6323 124.12 61.7805C124.215 61.9037 124.351 61.9924 124.505 62.0324C124.777 62.0702 125.051 62.0852 125.326 62.077H125.778L125.768 60.3873ZM125.768 62.6446H125.276L123.747 64.921H123.016L124.625 62.5776C124.258 62.5448 123.914 62.3917 123.651 62.144C123.528 62.0251 123.432 61.8835 123.368 61.7279C123.304 61.5722 123.274 61.4058 123.279 61.2385C123.267 61.0448 123.299 60.8508 123.373 60.6702C123.447 60.4895 123.561 60.3266 123.708 60.1928C124.019 59.9354 124.42 59.8019 124.831 59.8197H126.452V64.921H125.771L125.768 62.6446ZM122.478 64.921H121.76L119.959 61.1939L118.192 64.9146H117.461L119.886 59.8134H120.009L122.478 64.921ZM114.171 60.8464L112.616 64.3535H115.663L114.171 60.8464ZM111.951 64.3535L114.005 59.8102H114.36L116.404 64.3535H117.042V65.565H116.377V64.9114H111.984V65.5937H111.32V64.3535H111.951ZM99.6234 60.3681L99.1848 60.8017C98.9099 60.5041 98.5249 60.3211 98.1115 60.2916C97.8994 60.2889 97.6944 60.3655 97.54 60.5052C97.4656 60.5655 97.4059 60.6407 97.3651 60.7255C97.3244 60.8104 97.3035 60.9028 97.3041 60.9962C97.3073 61.1706 97.3757 61.3381 97.4968 61.4681C97.7352 61.6942 98.0144 61.8768 98.3209 62.0069C98.7152 62.1792 99.0681 62.4278 99.3576 62.737C99.533 62.9709 99.6261 63.2523 99.6234 63.5405C99.6272 63.7382 99.5884 63.9345 99.5095 64.1172C99.4306 64.2999 99.3133 64.465 99.1649 64.6022C99.014 64.7466 98.8338 64.8599 98.6355 64.9351C98.4372 65.0102 98.225 65.0455 98.0119 65.039C97.7082 65.0394 97.4083 64.974 97.1346 64.8477C96.8639 64.7247 96.6263 64.5436 96.4402 64.3184L96.8721 63.8465C97.0033 64.0134 97.1709 64.1506 97.3632 64.2486C97.5555 64.3467 97.7678 64.4032 97.9853 64.4141C98.2442 64.4207 98.4957 64.3304 98.6864 64.1622C98.7757 64.0882 98.8475 63.9967 98.8968 63.8939C98.9461 63.791 98.9718 63.6792 98.9722 63.566C98.9741 63.3827 98.9068 63.2048 98.7828 63.0654C98.5292 62.8402 98.2383 62.6571 97.9221 62.5234C97.5446 62.3632 97.2096 62.1235 96.9419 61.822C96.7686 61.5933 96.6765 61.3172 96.6794 61.0345C96.675 60.856 96.7097 60.6787 96.7813 60.5139C96.8528 60.3492 96.9596 60.2007 97.0948 60.078C97.2341 59.9509 97.3984 59.8516 97.5781 59.786C97.7578 59.7203 97.9493 59.6895 98.1415 59.6954C98.7079 59.726 99.2395 59.9674 99.6234 60.3681ZM92.8648 60.3235C92.5867 60.3181 92.3104 60.3677 92.0532 60.4692C91.7959 60.5706 91.5632 60.7218 91.3695 60.9133C91.1701 61.1075 91.0138 61.3384 90.9099 61.5921C90.806 61.8458 90.7566 62.117 90.7647 62.3895C90.7591 62.7535 90.8518 63.1127 91.0339 63.4321C91.2152 63.7405 91.4835 63.9936 91.8081 64.1622C92.1317 64.3402 92.4984 64.4336 92.8714 64.4332C93.2365 64.4337 93.5949 64.3389 93.9081 64.159C94.2336 63.9773 94.5013 63.7138 94.6824 63.397C94.8695 63.0847 94.968 62.7307 94.968 62.3704C94.968 62.0101 94.8695 61.6561 94.6824 61.3437C94.503 61.0325 94.2396 60.7735 93.9197 60.594C93.5998 60.4144 93.2354 60.321 92.8648 60.3235ZM90.1234 59.8134H90.788V60.7507C91.0302 60.4188 91.3499 60.1458 91.7217 59.9536C92.0861 59.7733 92.4914 59.6824 92.9013 59.689C93.2628 59.6847 93.6213 59.7519 93.9546 59.8863C94.2879 60.0207 94.5887 60.2194 94.8385 60.4701C95.0991 60.7141 95.305 61.0064 95.4439 61.3293C95.5827 61.6522 95.6515 61.9988 95.646 62.3481C95.654 62.7023 95.5872 63.0544 95.4496 63.3832C95.312 63.7119 95.1064 64.0106 94.8452 64.261C94.5978 64.5121 94.2987 64.7112 93.967 64.8457C93.6352 64.9801 93.278 65.047 92.9179 65.0422C92.5142 65.045 92.1151 64.9589 91.7516 64.7903C91.379 64.6056 91.0508 64.3483 90.788 64.0347V66.783H90.1234V59.8134ZM86.0662 60.333C85.7921 60.3296 85.5203 60.3815 85.2685 60.4853C85.0166 60.5891 84.7903 60.7426 84.6041 60.9356C84.4047 61.1263 84.2474 61.3536 84.1418 61.604C84.0362 61.8543 83.9843 62.1226 83.9894 62.3927C83.9877 62.7524 84.0839 63.1063 84.2685 63.4193C84.4458 63.7269 84.7079 63.9818 85.0261 64.1558C85.3449 64.3253 85.7034 64.4142 86.0679 64.4142C86.4323 64.4142 86.7908 64.3253 87.1096 64.1558C87.429 63.9832 87.6915 63.728 87.8672 63.4193C88.0518 63.1063 88.148 62.7524 88.1463 62.3927C88.1515 62.1223 88.0994 61.8537 87.9932 61.6033C87.887 61.3528 87.7288 61.1257 87.5282 60.9356C87.3421 60.7426 87.1158 60.5891 86.8639 60.4853C86.6121 60.3815 86.3403 60.3296 86.0662 60.333ZM86.0662 59.6954C86.4498 59.6866 86.8308 59.7582 87.1826 59.9053C87.5344 60.0523 87.8485 60.2712 88.1031 60.5467C88.5847 61.0545 88.8482 61.7184 88.8408 62.405C88.8334 63.0916 88.5556 63.7501 88.0632 64.2483C87.8006 64.5009 87.4885 64.7014 87.145 64.8382C86.8014 64.975 86.4331 65.0454 86.0612 65.0454C85.6893 65.0454 85.321 64.975 84.9774 64.8382C84.6339 64.7014 84.3219 64.5009 84.0592 64.2483C83.567 63.7506 83.2893 63.0926 83.2819 62.4066C83.2745 61.7205 83.538 61.0572 84.0193 60.5498C84.274 60.2714 84.5894 60.0499 84.9431 59.9012C85.2967 59.7525 85.6801 59.68 86.0662 59.689V59.6954ZM77.4268 57.8526H78.1113V60.7411C78.3534 60.4196 78.6651 60.152 79.0251 59.9568C79.3569 59.7822 79.7299 59.6922 80.1083 59.6954C80.4839 59.6885 80.853 59.7896 81.1683 59.9855C81.4724 60.1733 81.7109 60.4443 81.8528 60.7635C82.0256 61.2569 82.1 61.7772 82.0721 62.297V64.921H81.4142V62.4915C81.4279 62.0981 81.4045 61.7044 81.3444 61.315C81.2834 61.0189 81.1194 60.7513 80.8792 60.5562C80.6255 60.3754 80.3144 60.2842 79.9987 60.298C79.5891 60.2971 79.1929 60.4374 78.8822 60.6933C78.5564 60.9395 78.3231 61.2809 78.2176 61.6658C78.1353 62.1236 78.103 62.5884 78.1212 63.0527V64.921H77.4367L77.4268 57.8526ZM76.2239 60.3745L75.7853 60.8081C75.5104 60.5105 75.1253 60.3274 74.712 60.298C74.4998 60.2953 74.2948 60.3719 74.1405 60.5116C74.0654 60.5715 74.0051 60.6466 73.9638 60.7315C73.9224 60.8163 73.9011 60.9089 73.9012 61.0026C73.9056 61.1773 73.9752 61.3448 74.0973 61.4745C74.3356 61.7006 74.6148 61.8831 74.9213 62.0133C75.3153 62.1846 75.6673 62.4333 75.9547 62.7434C76.1326 62.9763 76.227 63.2582 76.2239 63.5469C76.2277 63.7446 76.1889 63.9409 76.11 64.1236C76.0311 64.3062 75.9137 64.4713 75.7653 64.6086C75.6142 64.7527 75.434 64.8658 75.2357 64.9409C75.0375 65.016 74.8253 65.0515 74.6123 65.0453C74.3086 65.0458 74.0088 64.9804 73.7351 64.854C73.4644 64.731 73.2267 64.55 73.0406 64.3248L73.4726 63.8529C73.6037 64.0197 73.7713 64.157 73.9636 64.255C74.1559 64.3531 74.3683 64.4095 74.5857 64.4204C74.8447 64.4271 75.0961 64.3367 75.2868 64.1686C75.3766 64.0948 75.4489 64.0034 75.4988 63.9005C75.5486 63.7977 75.5749 63.6858 75.5759 63.5724C75.5752 63.3889 75.507 63.2116 75.3832 63.0718C75.1296 62.8466 74.8388 62.6634 74.5226 62.5298C74.1446 62.3705 73.8093 62.1306 73.5423 61.8284C73.3687 61.6 73.2776 61.3235 73.2832 61.0408C73.2784 60.8626 73.3125 60.6854 73.3835 60.5207C73.4545 60.3559 73.5607 60.2073 73.6952 60.0844C73.8351 59.957 73.9999 59.8576 74.1802 59.792C74.3605 59.7263 74.5525 59.6956 74.7452 59.7018C75.3177 59.7258 75.8573 59.9652 76.2472 60.3681L76.2239 60.3745ZM67.4981 59.8197H68.1992V60.5658C68.3731 60.3068 68.5991 60.0835 68.8638 59.909C69.0785 59.7719 69.3302 59.6976 69.5882 59.6954C69.8028 59.7022 70.0121 59.7615 70.1962 59.8676L69.8374 60.4191C69.7242 60.366 69.601 60.3356 69.4752 60.3299C69.2266 60.3365 68.9896 60.432 68.8106 60.5977C68.5688 60.827 68.4004 61.118 68.3255 61.4362C68.2169 62.0167 68.1745 62.6068 68.1992 63.1961V64.921H67.4981V59.8197ZM63.72 60.3394C63.4454 60.336 63.1731 60.3878 62.9207 60.4916C62.6683 60.5954 62.4414 60.7488 62.2546 60.942C62.0556 61.1328 61.8988 61.3602 61.7938 61.6106C61.6887 61.861 61.6375 62.1292 61.6432 62.3991C61.6415 62.7588 61.7377 63.1126 61.9223 63.4257C62.0977 63.7336 62.3588 63.9886 62.6766 64.1622C62.996 64.3316 63.355 64.4205 63.72 64.4205C64.085 64.4205 64.444 64.3316 64.7634 64.1622C65.0811 63.9886 65.3423 63.7336 65.5177 63.4257C65.7022 63.1126 65.7985 62.7588 65.7968 62.3991C65.8026 62.1289 65.7511 61.8604 65.6455 61.6099C65.5398 61.3594 65.3821 61.1322 65.182 60.942C64.9991 60.7506 64.7768 60.5976 64.5292 60.4928C64.2815 60.388 64.0139 60.3336 63.7432 60.333L63.72 60.3394ZM63.72 59.7018C64.104 59.6938 64.4852 59.7658 64.8374 59.9128C65.1896 60.0597 65.5044 60.2782 65.7602 60.553C66.2399 61.062 66.5019 61.7258 66.4939 62.412C66.4859 63.0981 66.2085 63.7561 65.717 64.2547C65.1876 64.7609 64.4707 65.0451 63.7233 65.0451C62.9759 65.0451 62.259 64.7609 61.7296 64.2547C61.2374 63.757 60.9597 63.099 60.9523 62.413C60.9449 61.7269 61.2084 61.0636 61.6897 60.5562C61.9448 60.2752 62.2614 60.0517 62.617 59.9017C62.9726 59.7518 63.3583 59.6792 63.7466 59.689L63.72 59.7018ZM60.2576 57.8653V58.503C60.0548 58.4093 59.8344 58.3562 59.6096 58.3467C59.4937 58.3431 59.3789 58.3695 59.2773 58.4233C59.2009 58.4611 59.1417 58.5247 59.1112 58.6018C59.0779 58.7784 59.0656 58.9581 59.0746 59.1374V59.8261H60.1911V60.3936H59.0746V64.9274H58.3934V60.3809H57.6923V59.8134H58.3934V59.029C58.3774 58.7648 58.4123 58.5 58.4965 58.2479C58.5714 58.0881 58.6985 57.956 58.8586 57.8717C59.0439 57.7714 59.2542 57.7218 59.4667 57.7282C59.7441 57.7311 60.0195 57.773 60.2842 57.8526L60.2576 57.8653Z" fill="#0D1414"/>
<path fill-rule="evenodd" clip-rule="evenodd" d="M106.335 59.9915C106.782 59.9915 107.22 60.1242 107.592 60.373C107.964 60.6217 108.254 60.9753 108.425 61.389C108.596 61.8026 108.641 62.2578 108.554 62.6969C108.467 63.1361 108.251 63.5395 107.935 63.8561C107.618 64.1727 107.215 64.3883 106.776 64.4756C106.337 64.563 105.882 64.5181 105.469 64.3468C105.056 64.1755 104.702 63.8853 104.454 63.513C104.205 63.1407 104.072 62.703 104.072 62.2553C104.072 61.6549 104.311 61.0791 104.735 60.6545C105.159 60.23 105.735 59.9915 106.335 59.9915Z" fill="#0D1414"/>
<path fill-rule="evenodd" clip-rule="evenodd" d="M149.241 31.1915C149.145 31.0741 149.078 31.0674 149.052 31.1747C149.152 31.2921 149.208 31.3022 149.241 31.1915ZM147.246 34.1697C147.396 34.2468 147.472 34.23 147.456 34.1294C147.303 34.0623 147.216 34.0791 147.233 34.1697H147.246ZM139.976 27.2743L140.242 27.3011C140.235 27.1737 139.986 27.1502 139.963 27.2743H139.976ZM139.72 30.1216C139.72 30.2524 139.876 30.2021 140.003 30.2021C139.986 30.0277 139.863 30.1049 139.707 30.1216H139.72ZM144.675 26.3117L144.699 26.1776L144.419 26.1206C144.369 26.2782 144.519 26.2614 144.662 26.3117H144.675ZM140.518 34.23C140.711 34.23 141.01 34.3206 141.01 34.0959C140.817 34.0959 140.528 34.002 140.518 34.23ZM139.188 31.8824C139.205 31.936 139.215 31.983 139.231 32.0333C139.757 31.8924 139.747 31.7449 139.175 31.8757L139.188 31.8824ZM145.703 34.2099C145.919 34.2099 146.308 34.3877 146.335 34.1194C146.132 34.1059 145.7 33.9852 145.69 34.2032L145.703 34.2099ZM144.343 34.2535C144.582 34.2803 144.838 34.4212 144.875 34.1428C144.662 34.1294 144.353 34.012 144.329 34.2468L144.343 34.2535ZM140.748 26.3184C140.541 26.1575 140.375 25.8757 140.192 26.1172C140.372 26.2447 140.568 26.5297 140.734 26.3117L140.748 26.3184ZM146.112 32.5867C146.029 32.4525 145.946 32.3184 145.853 32.1842L145.553 32.5766C145.74 32.6135 145.939 32.7242 146.099 32.58L146.112 32.5867ZM147.539 30.8528C147.412 30.8528 147.289 30.8226 147.163 30.8125C146.774 30.9366 146.684 31.5403 146.734 31.8824L146.335 32.2178C146.425 32.3117 146.524 32.4022 146.624 32.4961C146.683 32.5263 146.73 32.5764 146.756 32.6377C146.782 32.699 146.786 32.7676 146.767 32.8315C146.907 33.0897 146.767 33.1903 147.066 32.9388C147.366 32.6873 147.529 32.0434 147.622 31.6744C147.689 31.4782 147.722 31.2716 147.718 31.064C147.808 30.8897 147.742 30.8159 147.525 30.8461L147.539 30.8528ZM157.729 47.3601L157.905 47.4004C157.925 47.2863 157.775 47.1958 157.715 47.3534L157.729 47.3601ZM129.364 15.7238C129.407 15.7238 129.184 15.5662 129.257 15.7741L129.364 15.7238ZM130.252 49.4898C130.322 49.5073 130.39 49.5286 130.458 49.5535C130.511 49.4026 130.342 49.312 130.252 49.473V49.4898ZM130.345 16.9882C130.169 16.9044 130.086 16.9278 130.095 17.0452C130.285 17.1458 130.368 17.1291 130.342 16.9714L130.345 16.9882ZM134.901 15.9821C134.725 15.7909 134.668 15.8311 134.801 16.0558L134.901 15.9821ZM126.184 39.7269H126.517C126.51 39.5592 126.168 39.6196 126.184 39.7269ZM130.202 49.8486C130.278 49.9727 130.318 49.9056 130.385 49.8218C130.318 49.805 130.145 49.7547 130.202 49.8486ZM149.474 48.8425C149.564 48.8693 149.657 48.9029 149.747 48.9263C149.79 48.7754 149.517 48.7083 149.474 48.8425ZM135.862 16.6025L135.995 16.579C135.922 16.2336 135.846 16.2504 135.862 16.6025ZM152.993 18.3532C153.004 18.3204 153.018 18.2889 153.036 18.2593C152.943 18.2257 152.86 18.1855 152.777 18.1486C152.72 18.2928 152.87 18.2928 152.993 18.3532ZM153.621 48.3092C153.668 48.2775 153.717 48.2495 153.768 48.2254C153.621 47.9202 153.525 47.9806 153.621 48.3092ZM153.828 18.2358C153.984 18.2358 154.144 18.219 154.3 18.2023C154.303 18.0346 153.831 18.0413 153.841 18.2358H153.828ZM155.62 18.1251C155.504 18.1251 155.131 18.0581 155.115 18.209C155.281 18.209 155.447 18.2257 155.61 18.2425C155.623 18.2046 155.631 18.1651 155.633 18.1251H155.62ZM126.886 15.6467C126.703 15.6467 126.431 15.5327 126.421 15.7473C126.584 15.7473 126.893 15.8244 126.899 15.6467H126.886ZM128.233 18.1419C128.496 18.1184 128.762 18.1017 129.018 18.0748C129.031 17.9407 128.246 17.8568 128.246 18.1419H128.233ZM131.02 16.9614C131.293 17.005 131.459 17.0217 131.735 17.062C131.532 16.6864 131.339 16.73 131.033 16.9614H131.02ZM151.37 48.7754C151.373 48.8145 151.373 48.8537 151.37 48.8928H152.457C152.464 48.6681 151.626 48.7754 151.383 48.7754H151.37ZM158.407 17.9675C157.945 18.0077 157.562 18.0513 157.18 18.0849C157.372 18.2023 157.596 18.2543 157.819 18.2332C158.043 18.2121 158.254 18.1189 158.42 17.9675H158.407ZM157.246 48.7922C156.964 48.7687 156.681 48.7352 156.402 48.7016C156.382 49.0102 157.629 49.1846 157.645 48.7016C157.582 48.7083 157.243 48.6849 157.26 48.7922H157.246ZM151.26 18.2526H152.404C152.238 18.1476 152.045 18.0919 151.849 18.0919C151.652 18.0919 151.46 18.1476 151.293 18.2526H151.26ZM155.976 48.6245L153.043 48.7519C153.069 49.0337 155.999 49.0873 155.993 48.6245H155.976ZM161.709 48.6681C161.044 48.6245 160.379 48.6178 159.714 48.6346L158.716 48.658C158.55 48.6379 158.382 48.6435 158.217 48.6748C157.995 48.876 158.517 48.8861 158.59 48.8861C159.255 48.8861 159.92 48.9196 160.609 48.8861C160.915 48.8861 161.274 48.8458 161.536 48.8861C161.603 48.8861 161.64 49.0974 161.723 49.0303C161.806 48.9632 161.743 48.7519 161.726 48.6681H161.709ZM135.496 15.0866C135.613 15.1704 135.563 15.2375 135.35 15.2643C135.723 15.3817 136.145 15.3381 136.394 15.7003L136.062 15.925C136.351 16.1766 136.517 16.0424 136.81 15.8982C137.026 15.7976 137.641 15.7138 137.625 15.4723C137.363 15.5747 137.077 15.5975 136.802 15.5379C136.527 15.4783 136.276 15.3389 136.078 15.1369C135.995 15.043 135.929 14.8351 135.839 14.768C135.696 14.6674 135.55 14.7344 135.35 14.768C135.151 14.8015 134.934 14.768 134.934 14.986C135.001 15.0262 135.067 15.0765 135.141 15.1168C135.29 15.3214 135.417 15.3147 135.496 15.0866ZM124.774 18.105C125.489 18.1218 126.201 18.1889 126.916 18.162C127.039 18.162 127.854 18.2056 127.914 18.1218C128.037 17.9273 127.648 17.9709 127.558 17.9105C127.375 17.8099 127.392 17.7696 127.299 17.5416C127.117 17.6777 126.919 17.7903 126.71 17.8769C126.282 17.9239 125.851 17.9239 125.423 17.8769H124.262C123.93 17.8769 123.265 17.7193 123.225 18.0882C123.73 18.1184 124.252 18.1084 124.774 18.1184V18.105ZM126.351 28.8975C126.866 28.6963 127.092 28.2267 127.249 27.717C126.683 27.8109 126.118 27.8444 125.563 27.9283C124.941 28.0709 124.335 28.2754 123.753 28.5386C123.108 28.7801 122.466 29.0317 121.828 29.2731C121.246 29.5189 120.708 29.8588 120.235 30.2793C120.024 30.4334 119.822 30.5991 119.63 30.7756C119.447 30.95 119.297 30.95 119.131 31.111C118.891 31.3424 119.324 31.4095 119.513 31.3525C119.809 31.1847 120.091 30.9941 120.358 30.7823C121.491 30.1159 122.728 29.6465 124.016 29.3939C124.774 29.2228 125.622 29.1759 126.351 28.8975ZM149.774 34.3709C149.897 34.4883 149.84 35.0416 149.823 35.1993C149.793 35.6836 149.703 36.1623 149.557 36.6246C149.289 37.5317 148.827 38.3684 148.204 39.0763C146.677 40.8605 144.369 41.2428 142.148 41.3199C141.884 41.3164 141.621 41.3298 141.36 41.3602C141.106 41.3951 140.847 41.3756 140.601 41.3032C140.229 41.226 139.271 41.4943 139.018 41.2361C138.909 41.1187 139.018 40.3406 138.992 40.1729C138.992 39.9046 138.992 39.6363 138.975 39.3781C138.975 38.7073 138.952 38.0366 138.942 37.3859C138.925 36.0947 138.909 34.8169 138.919 33.5257C138.919 32.9053 138.919 32.2882 138.919 31.6677C138.919 31.3089 138.935 30.9567 138.945 30.6046C138.945 30.1283 138.902 30.0847 139.351 29.9539C139.062 29.7192 138.978 29.6756 138.978 29.2832V28.0456C138.978 27.8545 138.869 26.9993 138.978 26.8986C139.088 26.798 139.723 26.8986 139.89 26.8986C139.89 26.741 139.577 26.7477 139.427 26.7142C139.278 26.6806 139.111 26.6404 138.945 26.6069C138.945 26.5297 138.945 26.4559 138.962 26.3788C138.954 26.1859 138.965 25.9927 138.995 25.802C139.245 25.7499 139.501 25.7274 139.757 25.7349C140.753 25.6629 141.753 25.6629 142.75 25.7349C143.715 25.7613 144.672 25.9158 145.596 26.1943C145.99 26.3556 146.373 26.5404 146.744 26.7477C146.943 26.8383 147.15 26.9389 147.349 27.0395C147.655 27.1904 147.665 27.2173 147.755 27.5493C147.422 27.6331 147.572 27.6331 147.665 27.8109C147.764 27.9651 147.875 28.111 147.998 28.2469C148.123 28.3776 148.265 28.4905 148.42 28.5822C148.664 28.7547 148.851 28.9964 148.959 29.2765C149.291 29.8869 150.289 32.04 149.551 32.4928C149.681 32.6645 149.773 32.8622 149.821 33.0728C149.869 33.2833 149.872 33.5017 149.83 33.7136C149.74 34.0657 149.813 33.9416 149.498 34.0657C149.325 34.1328 148.975 34.0254 148.992 34.2501C149.135 34.287 149.674 34.2736 149.774 34.3709ZM145.357 45.6128C145.252 45.4783 145.19 45.3147 145.18 45.1438C145.17 44.9729 145.212 44.8031 145.301 44.657C145.683 44.0633 145.39 45.3881 145.357 45.6128ZM138.706 41.6285C138.623 41.652 138.606 41.6117 138.633 41.5111C138.726 41.4876 138.752 41.5279 138.692 41.6285H138.706ZM145.357 19.1581C145.397 19.2352 145.217 19.3426 145.164 19.2419C145.222 19.221 145.278 19.1975 145.334 19.1715L145.357 19.1581ZM136.71 43.131C136.753 43.1478 136.976 43.1981 136.966 43.2551C136.727 43.3087 136.66 43.2685 136.677 43.1444L136.71 43.131ZM134.608 47.3802C134.462 47.3132 134.525 47.1824 134.652 47.2226C134.623 47.2781 134.597 47.3352 134.575 47.3937L134.608 47.3802ZM132.171 17.8669C132.038 17.9071 131.988 17.8837 132.014 17.7898C132.111 17.7361 132.171 17.7663 132.137 17.8669H132.171ZM130.102 48.3092C130.029 48.1717 130.056 48.1147 130.162 48.1315C130.195 48.2556 130.179 48.3227 130.069 48.3092H130.102ZM130.019 44.9353C129.972 44.885 129.989 44.8515 130.079 44.8179C130.122 44.9018 130.105 44.9353 129.986 44.9353H130.019ZM153.924 41.4105C154.107 41.4608 154.03 41.7626 153.891 41.7459C153.864 41.6285 153.884 41.5178 153.891 41.4105H153.924ZM154.064 40.8236C154.079 40.8473 154.09 40.8733 154.097 40.9007C154.007 40.9913 153.957 40.9913 153.934 40.8839C153.968 40.8671 154 40.8469 154.03 40.8236H154.064ZM154.769 36.9835C154.795 37.0506 154.819 37.1176 154.852 37.1847C154.356 37.3524 154.287 37.2082 154.735 36.9835H154.769ZM153.941 46.4747C154.605 46.0693 155.22 45.5888 155.776 45.0427C156.283 44.3898 156.749 43.7054 157.17 42.9935C158.03 41.6591 158.632 40.1731 158.946 38.6134C159.331 36.8397 159.545 35.0325 159.584 33.2172C159.571 31.4416 159.347 29.674 158.919 27.9517C158.214 24.873 156.032 21.935 153.402 20.238C152.745 19.8215 152.053 19.4657 151.333 19.1749C150.961 19.0172 150.588 18.8395 150.213 18.7053C149.861 18.6355 149.519 18.5229 149.195 18.37C148.952 18.219 149.019 18.1855 148.736 18.1352C148.603 18.1235 148.47 18.1235 148.337 18.1352C147.963 18.116 147.59 18.0768 147.219 18.0178C146.311 17.8819 145.396 17.7979 144.479 17.7663C142.484 17.6657 140.468 17.9407 138.463 17.8736C136.458 17.8065 134.452 17.9742 132.46 17.8736C132.909 17.1626 133.581 16.8675 134.352 16.626C134.545 16.5656 135.44 16.4348 135.506 16.2906C135.59 16.0894 134.429 16.1833 134.263 16.2336C133.51 16.4906 132.807 16.8788 132.187 17.3806C131.855 17.6321 131.645 17.8803 131.24 17.9071C130.761 17.9407 130.129 17.6221 129.663 17.9071C129.364 18.0815 129.44 18.1151 129.44 18.4672V29.7091C129.44 33.794 129.513 37.879 129.557 41.9538C129.557 43.8453 129.613 45.7369 129.557 47.6284C129.59 47.8766 129.59 48.1281 129.557 48.3763C129.557 48.4602 129.557 48.5407 129.557 48.6245H124.688C124.159 48.6245 123.444 48.5004 122.929 48.6245C122.596 48.7184 122.596 48.6681 122.929 48.7855C123.177 48.8384 123.431 48.8575 123.684 48.8425C124.788 48.9096 125.892 48.876 126.989 48.8693C127.595 48.8693 128.19 48.8693 128.798 48.8928C128.922 48.8928 129.487 48.8526 129.577 48.9431C129.666 49.0337 129.66 49.6541 129.67 49.8218C129.703 50.3752 129.67 50.9353 129.693 51.4987C129.71 51.8173 129.6 52.0018 129.952 52.0588C130.305 52.1158 130.285 51.9011 130.425 51.6161L129.926 51.5892C130.099 51.4719 130.275 51.3478 130.448 51.2203L130.009 50.9386L130.308 50.8145C130.247 50.7718 130.184 50.7326 130.119 50.6971C130.209 50.6227 130.304 50.5533 130.401 50.4892C130.196 50.3003 130.07 50.0382 130.052 49.7581C130.024 49.6096 130.024 49.4571 130.052 49.3087C130.135 49.0638 130.135 49.1209 130.451 49.1209C130.767 49.1209 131.366 48.9968 131.589 49.1209C131.812 49.2449 132.038 49.7011 132.194 49.909C132.527 49.5233 132.676 49.2986 133.192 49.1879C133.687 49.0938 134.192 49.0612 134.695 49.0907C135.164 49.1393 135.636 49.1393 136.105 49.0907C136.601 49.0442 137.1 49.0297 137.598 49.0471C138.546 49.0471 139.474 49.0471 140.422 49.1242C141.37 49.2013 142.324 49.0169 143.275 49.0236C144.226 49.0303 145.271 49.084 146.268 49.0907C146.753 49.1042 147.239 49.0874 147.722 49.0404C147.955 49.0416 148.188 49.0169 148.417 48.9666C148.576 48.9062 148.683 48.7654 148.842 48.7083C149.704 48.3897 150.618 48.3126 151.473 47.937C152.329 47.5293 153.144 47.0396 153.907 46.4747H153.941ZM85.0092 28.277C84.9626 28.163 84.9194 28.0423 84.8695 27.9417C84.9194 27.9417 84.9626 27.9148 85.0092 27.9081C85.0291 28.0255 85.0458 28.1496 85.0591 28.2737C85.0424 28.2729 85.0256 28.274 85.0092 28.277ZM81.0184 45.5457C81.0166 45.5122 81.0166 45.4786 81.0184 45.4451C81.0184 45.4451 81.0416 45.4283 81.0583 45.4183C81.0749 45.4082 81.035 45.4887 81.025 45.5457H81.0184ZM80.8853 35.1758H80.8521C80.8521 35.1087 80.8521 35.0316 80.8354 34.9679H80.8853V35.1758ZM78.87 48.9766H78.9132H78.87ZM75.4678 45.9884L75.4844 45.9213L75.5011 45.9884H75.4678ZM75.4079 44.2243C75.4107 44.2319 75.4107 44.2402 75.4079 44.2478C75.4087 44.2623 75.4087 44.2769 75.4079 44.2914C75.3813 44.4423 75.3647 44.5899 75.3514 44.7408L75.2682 44.7173C75.3181 44.5731 75.358 44.4323 75.4079 44.2914V44.231H75.4246C75.4478 44.1371 75.4412 44.1707 75.4246 44.231C75.4678 44.1405 75.4412 44.174 75.4079 44.231V44.2243ZM75.3015 45.4954L75.3181 45.435V45.4954H75.3015ZM69.2155 27.4621L69.2421 27.395L69.282 27.4185L69.2155 27.4621ZM65.5074 47.4641L65.4309 47.34C65.4309 47.34 65.4508 47.3232 65.4575 47.3232C65.4881 47.3601 65.5159 47.3994 65.5406 47.4406L65.5074 47.4641ZM62.3779 40.1595V41.6989C62.1355 41.7536 61.885 41.7615 61.6396 41.7224C61.2998 41.5874 60.9763 41.4142 60.6752 41.2059C60.6519 41.2529 60.5754 41.3904 60.469 41.5815C59.8637 40.894 59.9867 40.1159 60.0133 39.415L60.8015 38.5296C61.6037 38.5024 62.3975 38.7023 63.0929 39.1064C62.8302 39.4754 62.6173 39.8107 62.3779 40.1729V40.1595ZM60.02 42.6112C59.7207 42.477 59.581 42.3261 59.7739 41.984C60.1131 42.1047 60.1198 42.316 60.02 42.6246V42.6112ZM59.6874 27.2105V27.2776H59.6542L59.6874 27.2105ZM59.9601 30.1384V30.1652L59.9102 30.1384H59.9601ZM58.6831 30.7018L59.0555 30.9601L59.438 30.8528C59.3648 31.1512 59.0755 31.1244 58.693 30.7153L58.6831 30.7018ZM54.9417 27.1938L54.8818 27.1669H54.9483L54.9417 27.1938ZM86.8416 26.2648H86.3129C85.8905 26.6739 86.2364 27.0429 86.2862 27.4118C86.1299 27.1435 85.9736 26.8852 85.8074 26.6069C85.7342 26.5711 85.6554 26.5484 85.5746 26.5398C84.6533 26.5834 83.7388 26.6236 82.8275 26.7008C82.5078 26.7479 82.1912 26.8151 81.8797 26.902C81.8564 26.8685 81.8132 26.7913 81.8232 26.8182C81.3077 27.1535 80.8687 27.4285 80.5361 27.6465C80.1304 28.9109 79.7546 30.0713 79.3821 31.2284C78.5108 34.3239 77.8124 37.4564 77.0541 40.7263C76.3424 38.2915 75.6673 36.0075 74.9989 33.7236C74.3304 31.4397 73.8249 29.0283 73.0301 26.7578H67.7422C66.2058 31.2351 65.0451 35.7493 63.8179 40.2601C62.5475 35.7661 61.45 31.2519 60.2162 26.7008C59.7007 26.7343 59.275 26.7746 58.8527 26.7746C57.9082 26.7746 56.9604 26.7578 56.0159 26.741C55.4106 26.741 54.7787 26.5834 54.1901 26.9926C54.1648 27.1986 54.1648 27.407 54.1901 27.613C55.4039 31.8153 56.6311 36.0142 57.8018 40.022C58.4669 40.6928 59.3116 40.9343 59.428 41.88C59.1786 42.1819 58.9225 42.4837 58.6232 42.8426C59.1553 44.9622 59.8504 47.0214 60.5654 49.1544C61.8092 49.0303 63.0962 49.6072 64.1006 48.4434C64.2902 48.762 64.4565 49.0202 64.6327 49.2986H66.3155C66.5816 48.6782 66.841 48.0745 66.6913 47.3802C66.5749 47.3467 66.4585 47.3232 66.3587 47.2863C66.3587 47.2629 66.3587 47.2461 66.382 47.2193L66.7146 47.3702C66.8635 47.1788 66.9918 46.972 67.097 46.7531C67.2467 46.3171 67.3298 45.8576 67.4529 45.4116C67.975 43.4965 68.5005 41.5882 69.0226 39.6732L70.3828 34.7163C71.1211 37.2518 71.8262 39.6397 72.5079 42.0242C73.1897 44.4088 73.6786 46.8772 74.5033 49.1712C75.0587 49.3053 78.3312 49.1376 78.7702 48.98L78.8367 48.9532C78.7935 49.0538 78.7436 49.1544 78.6538 49.3389L80.1803 49.1141C80.6126 47.8229 81.0616 46.6089 81.4241 45.3713C81.7866 44.1338 82.0227 42.9197 82.3719 41.6821C83.3696 38.1976 84.3673 34.7163 85.3916 31.2452C85.452 30.9928 85.539 30.7477 85.651 30.514C86.1299 29.5448 86.4891 28.5487 86.3395 27.4353C86.5382 27.325 86.6957 27.1523 86.7882 26.9434C86.8806 26.7346 86.9029 26.501 86.8516 26.2782L86.8416 26.2648ZM46.5343 43.1109C45.6697 43.8988 44.5479 44.3383 43.3825 44.3457C42.2172 44.3531 41.09 43.9279 40.2155 43.1511C37.6681 40.8605 37.3288 35.1657 39.4373 32.5297C41.4327 30.0445 46.0521 29.9439 47.6285 33.3346C48.1939 34.5721 48.4666 35.9438 48.706 36.7152C48.41 39.4284 48.3169 41.548 46.5343 43.1109ZM44.7983 46.5787C44.7651 46.5116 44.7252 46.4445 44.6919 46.3775L45.1642 46.1259L45.2639 46.3003L44.7983 46.5787ZM54.077 33.8343C52.6403 28.4246 46.98 24.4839 40.0659 26.3419C35.7092 27.5057 33.1717 30.6784 32.2173 34.9544C31.2628 39.2305 32.756 43.0035 35.6527 46.2299C36.534 47.1991 37.7113 47.5245 38.8055 48.0778C40.8009 49.084 42.8495 49.8017 44.9413 48.3797C45.6755 47.8505 46.3542 47.247 46.9667 46.5787C47.7382 45.7838 48.4832 45.5256 49.3645 46.3875C49.2547 46.6458 49.1483 46.8906 49.0319 47.1254C49.1583 47.2226 49.2747 47.3266 49.3978 47.4272C50.2857 46.6391 51.3499 45.9784 52.0284 45.0393C54.516 41.6855 55.1479 37.889 54.077 33.8544V33.8343ZM26.3973 29.632C26.1479 28.5085 25.9683 27.6801 25.7521 26.7276C24.0494 26.7511 22.4065 26.4761 20.7204 26.9624C20.2149 31.1881 20.0985 47.5513 20.5641 49.1242H25.802C25.8697 48.9574 25.9166 48.7828 25.9417 48.6044C26.0249 45.8107 26.0415 43.0237 26.2144 40.2199C26.2809 39.1467 26.1579 38.2613 25.4362 37.4731C25.3597 37.3826 25.4096 37.1713 25.393 36.9198L26.4406 36.5844C27.0558 32.9422 29.3106 31.3189 32.8625 31.2452V26.5532C29.9059 25.6678 28.0402 27.1267 26.3973 29.6521V29.632ZM3.5399 22.3341C3.47339 22.4851 3.3071 22.5018 3.12751 22.5622C3.01777 22.1933 2.81157 21.5997 3.26719 22.1195C3.28382 22.1195 3.47339 21.8411 3.51662 21.8847C3.55985 21.9283 3.58313 22.2604 3.5399 22.3341ZM14.0324 26.5633C14.722 26.1876 15.4048 25.8075 16.0811 25.423L17.1187 24.8562C17.326 24.7698 17.5216 24.6571 17.7007 24.5208C17.8337 24.3464 17.7672 24.3062 17.6441 24.0546C17.3263 23.5077 16.9625 22.9893 16.5566 22.5052C15.8915 23.0988 16.2739 22.0591 15.7086 22.1966C15.5589 22.2268 15.6188 22.3476 15.509 22.4213C15.3428 22.5454 15.4758 22.5052 15.2363 22.5152C15.0534 22.5152 14.9038 22.4314 14.7142 22.4448C14.5456 22.4701 14.3789 22.5071 14.2153 22.5555C13.8495 22.6393 13.7331 22.5219 13.3939 22.4884C13.0375 22.5169 12.6794 22.5169 12.323 22.4884C12.1235 22.4381 12.18 22.4884 12.0503 22.3543C11.9206 22.2201 12.0071 22.1128 11.7909 22.096C11.7078 22.096 11.4584 22.1866 11.485 22.2536C11.5116 22.3207 11.7676 22.2536 11.8475 22.2536C11.8475 22.4549 11.8242 22.6561 11.8075 22.8473C11.5016 22.4549 11.1424 22.5387 10.6934 22.579C10.2445 22.6192 9.77223 22.4314 9.5095 22.807C9.30996 22.4213 9.31661 22.4716 8.91753 22.5723C8.61751 22.6725 8.31076 22.7509 7.99964 22.807C7.60056 22.8573 7.60056 22.6628 7.25801 22.5555C6.91547 22.4482 6.9454 22.5555 6.70263 22.8305C6.4798 22.4213 6.27029 21.9283 6.27029 22.6561C6.13061 22.6226 5.99758 22.589 5.8579 22.5622C5.82042 22.6515 5.77241 22.736 5.7149 22.8137C5.41558 22.9244 5.5087 22.9076 5.2493 22.7467C5.21937 22.589 5.12625 22.5454 4.97659 22.6125C4.86685 22.6125 4.75377 22.6393 4.64403 22.646C4.52991 22.6161 4.42955 22.5473 4.35987 22.4514C4.29019 22.3555 4.25547 22.2382 4.26157 22.1195C4.23829 21.6835 4.37797 21.66 4.7438 21.6365C5.10962 21.6131 5.40893 21.6365 5.7415 21.6365C6.4399 21.603 7.13829 21.4856 7.84334 21.4789C8.99402 21.4789 10.1314 21.4789 11.302 21.4521C11.9339 21.4521 12.5725 21.4286 13.2043 21.4185C13.5133 21.4465 13.8244 21.4409 14.1322 21.4018C14.4315 21.3347 14.4149 21.2676 14.6809 20.9993C14.9304 21.2945 15.1033 21.4689 15.4458 21.2173C15.0832 20.7857 14.68 20.3903 14.242 20.0368C14.0324 19.8624 13.8329 19.8792 13.6333 19.7618C13.4338 19.6444 13.2709 19.3426 13.078 19.2017C12.8731 19.0251 12.6374 18.8886 12.3829 18.7992C12.0237 18.6986 12.0171 18.9401 11.7178 19.0072C11.4118 19.0111 11.107 18.9692 10.8132 18.8831C10.4978 18.8469 10.1862 18.7829 9.88198 18.6919C10.025 18.5913 10.3409 18.4873 10.2478 18.2727C10.1547 18.0581 10.0582 18.2123 9.91523 18.1385C9.84889 18.1453 9.78204 18.1453 9.71569 18.1385C9.69241 18.0212 9.67578 17.9105 9.64918 17.8032C9.52613 17.5282 9.31661 17.5349 9.0173 17.4678C8.29563 17.2733 6.41994 16.4616 5.84792 17.2464C5.45882 16.7031 4.1618 16.9647 3.60641 16.9882C2.84483 17.0217 1.70745 16.9647 1.02568 17.3403C0.529398 17.6778 0.179653 18.1937 0.0479309 18.7825C0.0141396 19.1683 0.00525177 19.5559 0.0213248 19.9429C0.00469635 20.9993 0.0213248 22.0524 0.0213248 23.1089C0.0379532 23.6757 -0.0884222 24.5208 0.131073 25.0675C2.07327 23.518 4.67728 23.1759 7.05847 23.726C9.18359 24.219 10.8098 25.7181 11.8907 27.5929C12.6789 27.442 13.3773 26.9221 14.0324 26.5633ZM18.2394 33.8343C18.2394 33.3916 18.2394 32.9422 18.2394 32.4928C18.2394 32.0434 18.3991 31.6141 17.8769 31.4866C17.1719 31.3055 16.234 31.4699 15.5024 31.4866C14.5313 31.4866 13.5668 31.4866 12.5991 31.4866C11.7078 31.4866 10.8298 31.4866 9.93851 31.5034C9.30996 31.5034 8.68473 31.7449 8.10606 31.5772C7.41765 31.386 6.5696 31.4933 5.86455 31.5101C5.69827 31.5101 5.236 31.4598 5.11627 31.5772C4.99655 31.6946 5.13623 32.6403 5.14288 32.8684C5.15951 33.7203 5.17614 34.5755 5.19941 35.4273C5.19941 35.7627 5.19942 36.1149 5.21937 36.4569C5.21937 36.6749 5.21937 36.8829 5.21937 37.1009C5.21937 37.4362 5.14953 37.4027 5.42556 37.5033C5.70159 37.6039 6.23703 37.5302 6.5696 37.5201C7.00194 37.5201 7.4243 37.5201 7.85664 37.5201H10.1846C10.577 37.5201 10.9595 37.5201 11.3386 37.5201C11.5814 37.5469 11.6712 37.5201 11.7643 37.6878C11.7862 37.865 11.775 38.0447 11.7311 38.2177C11.6488 38.8257 11.4773 39.418 11.2222 39.9751C10.5636 41.2027 9.49314 42.1538 8.20251 42.6581C6.81526 43.2072 5.30748 43.3717 3.83588 43.1343C2.42579 42.9398 1.27178 42.2959 0.134398 41.4575C-0.115028 42.6212 0.0612328 44.003 0.0678841 45.1734C0.0678841 45.9683 0.0845129 46.7564 0.111118 47.5412C0.0717899 47.9473 0.0964846 48.357 0.184284 48.7553C0.244146 48.6211 0.234169 48.2556 0.290706 48.1617C0.347242 48.0678 0.466967 48.0443 0.699765 48.0107C0.523503 48.3797 0.0678852 48.9901 0.583366 49.2919C0.843962 49.3721 1.11588 49.4083 1.38818 49.3992C1.72075 49.4529 2.02006 49.5166 2.336 49.5602C3.69496 49.6968 5.06682 49.6142 6.39999 49.3154C7.61056 49.0969 8.77557 48.6727 9.8454 48.0611C10.8431 47.4742 11.6313 46.6625 12.5359 45.9582C12.6323 46.7128 12.7354 47.4574 12.8352 48.212C12.8312 48.3704 12.8502 48.5286 12.8917 48.6815C12.9981 48.8492 13.1145 48.7989 13.3374 48.7989C13.6699 48.7989 14.0025 48.7989 14.3351 48.7821C15.1233 48.7385 15.9048 48.7553 16.6996 48.7821C17.0887 48.8184 17.4797 48.8296 17.8703 48.8157C18.2028 48.7821 18.3292 48.7821 18.3924 48.4803C18.4661 47.8192 18.4381 47.1506 18.3093 46.4982C18.2633 45.7305 18.2721 44.9605 18.3359 44.1941C18.3897 43.5654 18.2627 42.9343 17.97 42.3764C17.7805 42.041 17.5876 41.7257 17.4147 41.3904C17.2417 41.055 17.2916 40.9242 17.4379 40.5284C17.2916 40.4848 17.1486 40.4446 16.9989 40.3943C17.3861 40.0845 17.7445 39.7399 18.0698 39.3647C18.3691 38.9891 18.2095 38.7543 18.0698 38.3015C18.0299 38.1942 17.9933 38.0768 17.9534 37.9662C18.0133 37.8488 18.0698 37.7314 18.1297 37.6073C18.0698 37.5235 18.0199 37.4396 17.9634 37.3558C17.9069 37.2719 17.8969 37.1814 18.0366 37.0975C18.1596 36.7118 18.3259 36.6448 18.0765 36.2423C18.2054 35.4465 18.26 34.6403 18.2394 33.8343Z" fill="#0D1414"/>
<path fill-rule="evenodd" clip-rule="evenodd" d="M243.542 29.1513C243.293 28.0583 243.11 27.2524 242.876 26.3258C241.175 26.3486 239.526 26.0811 237.841 26.5542C237.335 30.6652 237.218 46.5841 237.684 48.1144H242.926C242.995 47.9521 243.043 47.7823 243.07 47.6086C243.15 44.8908 243.166 42.1794 243.343 39.4518C243.409 38.4077 243.286 37.5464 242.56 36.7796C242.487 36.6915 242.537 36.486 242.52 36.2413L243.566 35.915C244.182 32.3717 246.443 30.7925 250 30.7207V26.1366C247.043 25.2752 245.188 26.6945 243.542 29.1513ZM223.867 29.7452C225.232 29.6636 226.531 29.7027 227.683 30.675C228.35 31.2199 229.479 31.1775 229.812 32.3358C229.662 32.8154 229.479 33.3929 229.295 33.9671C228.449 34.1457 227.591 34.2688 226.728 34.3358C224.5 34.3358 222.275 34.2771 220.067 34.2379C219.714 31.9997 221.549 29.8822 223.867 29.7452ZM227.3 35.021C226.967 34.9884 226.634 34.9623 226.301 34.9394V34.7926H227.3C227.295 34.8687 227.295 34.9449 227.3 35.021ZM234.501 41.3768C234.357 41.8336 234.241 42.2316 234.051 42.8679L233.099 41.2757C231.903 41.2104 230.671 41.1354 229.742 41.0864C228.31 42.2936 227.114 43.3018 226.078 44.1893C225.462 44.0686 224.939 43.9119 224.413 43.863C222.035 43.6281 220.433 42.2838 219.851 39.9869C219.691 39.3343 219.674 38.6524 219.384 38.088C218.951 37.2592 219.051 36.4272 218.985 35.5071C219.561 35.4419 220.057 35.3864 220.623 35.331C221.596 37.4289 223.441 36.6361 224.696 36.6067C226.298 37.3147 227.424 38.1206 228.636 38.2772C230.581 38.5219 232.589 38.349 234.571 38.3327C234.926 38.278 235.276 38.1917 235.616 38.0749C235.533 37.2494 235.483 36.4435 235.367 35.6638C235.233 34.8089 235.034 33.9769 234.894 33.3342C233.994 32.3227 232.582 32.3227 232.05 31.1286C231.986 30.9654 231.603 30.8741 231.36 30.8512C230.554 30.7533 230.221 30.1595 230.028 29.5461C229.672 28.4629 229.422 27.3438 229.059 25.9767C228.06 25.7418 226.848 25.3241 225.582 25.1806C221.129 24.7466 217.273 26.9066 215.211 30.7272C214.785 31.5168 214.362 32.3586 214.702 33.3733C215.511 33.9019 216.367 34.4076 217.163 35.0275C217.448 35.3149 217.627 35.6867 217.673 36.0846C217.839 37.1352 217.819 38.2283 218.079 39.2528C218.575 41.2887 218.036 42.8124 215.901 43.8369C216.234 44.3655 216.397 44.9528 216.797 45.2464C217.92 46.1274 219.127 46.8989 220.403 47.5499C222.402 48.4765 224.553 48.6168 226.798 48.2579C228.533 47.9851 230.187 47.3436 231.643 46.3786C233.129 45.3998 233.768 43.7684 234.867 42.4927C235.024 42.323 234.924 41.9152 234.884 41.6215C234.864 41.5204 234.657 41.4616 234.501 41.3768ZM212.6 41.0277C212.556 40.8124 212.556 40.5904 212.6 40.3751C212.658 40.0653 212.699 39.7527 212.724 39.4387C212.724 37.6377 212.707 35.8497 212.724 34.0324C212.74 32.215 212.574 30.4173 212.724 28.6097C212.749 28.4771 212.749 28.3411 212.724 28.2084C212.656 27.9883 212.555 27.7793 212.424 27.5885C212.29 27.4603 212.139 27.3505 211.974 27.2622C212.251 26.962 212.501 26.6945 212.7 26.4889V23.0598C212.191 22.8738 211.728 22.7009 211.162 22.4986C211.495 22.2865 211.728 22.032 212.041 22.2148C212.354 22.3975 212.517 22.1234 212.707 22.0581V18.1885H211.841C211.751 19.4284 211.658 20.6095 211.575 21.7775H210.636C210.802 21.373 210.945 21.0304 211.085 20.6878C211.318 19.7677 210.479 19.3435 210.119 18.8313C210.269 18.0907 211.085 18.8574 211.225 18.1788C209.706 18.1788 208.228 18.0254 206.662 18.1788V26.4041C206.662 27.7712 206.639 29.1415 206.662 30.5152C206.686 31.8888 206.696 33.171 206.662 34.499C207.395 34.5414 207.562 34.6458 207.751 35.2983C208.036 36.3071 208.099 37.3637 207.935 38.3979C207.656 39.9939 207.498 41.6079 207.462 43.2268C207.42 43.514 207.344 43.7955 207.235 44.0653C207.302 44.2545 207.395 44.4992 207.528 44.8386C207.345 44.8973 207.235 44.9691 207.172 44.9462C206.839 44.8059 206.672 44.9952 206.662 45.2529C206.639 46.2318 206.662 47.2106 206.662 48.2188H208.351C208.591 48.0556 208.791 47.9186 208.997 47.7718C209.17 47.9512 209.313 48.098 209.487 48.284C210.486 48.0817 211.581 48.5842 212.654 47.8599V45.4161C212.654 45.1812 212.654 44.9462 212.654 44.7015C212.654 44.3753 212.654 44.0164 212.654 43.677C212.64 43.5196 212.64 43.3614 212.654 43.2039C212.8 42.4792 212.782 41.7317 212.6 41.0146V41.0277ZM188.605 30.8121C189.478 30.0551 190.351 29.3047 191.156 28.613C192.728 28.613 194.154 28.6456 195.552 28.613C196.029 28.6025 196.501 28.7016 196.931 28.9021C197.362 29.1027 197.738 29.3993 198.03 29.768C198.306 30.1325 198.545 30.5226 198.743 30.9328C197.904 31.4842 198.703 32.4956 198.187 33.1547C197.541 34.1727 195.909 33.618 195.313 34.9068C196.268 35.4582 195.253 36.9656 196.675 37.3734L198.673 36.8905C199.196 40.1729 198.084 42.6069 195.489 44.3948C194.284 44.3948 193.158 44.9984 191.872 44.8679C190.657 44.6942 189.487 44.2932 188.426 43.6868C187.693 42.3817 187.76 41.1451 188.509 39.4453C188.715 39.2495 189.265 38.7307 189.841 38.1826C189.535 37.5496 189.195 36.8579 188.862 36.1629L187.623 35.6442C187.48 35.7584 187.38 35.8465 187.263 35.9215C187.147 35.9966 187.033 36.0324 186.93 36.0912C184.532 37.2723 183.21 39.0701 183.5 41.8075C183.55 42.2871 183.5 42.7863 183.5 43.2659C183.583 44.6493 184.099 45.9609 185.255 46.6755C186.411 47.39 187.556 48.2579 189.078 48.1763C189.288 48.1763 189.511 48.3949 189.744 48.5255C189.868 47.9871 190.927 48.3623 190.743 47.5075C190.841 47.4675 190.941 47.4347 191.043 47.4096C191.116 47.8174 191.183 48.1992 191.243 48.5157C192.748 48.1894 194.177 47.8827 195.945 47.4912L198.723 45.6738C199.056 46.3264 199.436 46.9952 199.679 47.4422L201.344 48.6723L205.124 48.0883V44.6395L203.056 44.0196C203.056 40.1924 203.056 36.5936 203.056 32.985C203.073 31.7115 202.953 30.4397 202.699 29.1905C202.535 28.3041 202.127 27.4785 201.519 26.8028C200.911 26.1272 200.126 25.6271 199.249 25.3568C197.697 24.8119 196.025 24.3551 194.32 24.4856C192.892 24.5835 191.486 24.8119 190.074 25.0142C187.48 25.993 185.412 27.5624 184.413 30.2346V32.2216L184.952 32.7501H187.779L188.805 30.9361C188.739 30.9002 188.672 30.8512 188.605 30.8121ZM169.912 29.7452C171.274 29.6636 172.577 29.7027 173.729 30.675C174.395 31.2199 175.524 31.1775 175.854 32.3358C175.704 32.8154 175.521 33.3929 175.341 33.9671C174.493 34.1459 173.634 34.2691 172.77 34.3358C170.545 34.3358 168.317 34.2771 166.109 34.2379C165.756 31.9997 167.594 29.8822 169.912 29.7452ZM173.346 35.021C173.013 34.9884 172.68 34.9623 172.347 34.9394V34.7926H173.346C173.346 34.8676 173.346 34.9394 173.346 35.021ZM180.543 41.3768C180.403 41.8336 180.283 42.2316 180.093 42.8679C179.703 42.2153 179.454 41.7912 179.154 41.2887C177.958 41.2235 176.726 41.1484 175.797 41.0995C174.368 42.3067 173.169 43.3149 172.134 44.2023C171.521 44.0816 170.998 43.925 170.468 43.8761C168.087 43.6411 166.472 42.2969 165.903 39.9999C165.746 39.3474 165.729 38.6655 165.436 38.101C165.007 37.2723 165.103 36.4403 165.04 35.5202C165.613 35.4549 166.112 35.3995 166.675 35.344C167.648 37.4419 169.493 36.6491 170.748 36.6197C172.353 37.3278 173.476 38.1336 174.688 38.2903C176.633 38.535 178.644 38.362 180.623 38.3457C180.979 38.2914 181.329 38.2051 181.668 38.088C181.585 37.2625 181.535 36.4566 181.419 35.6768C181.289 34.822 181.086 33.99 180.946 33.3472C180.05 32.3358 178.638 32.3358 178.105 31.1416C178.038 30.9785 177.655 30.8871 177.416 30.8643C176.61 30.7664 176.277 30.1726 176.083 29.5592C175.724 28.4759 175.477 27.3568 175.111 25.9897C174.112 25.7548 172.9 25.3372 171.637 25.1936C167.181 24.7597 163.312 26.9196 161.263 30.7403C160.84 31.5299 160.418 32.3717 160.757 33.3864C161.563 33.9149 162.422 34.4206 163.215 35.0406C163.5 35.3279 163.679 35.6998 163.725 36.0977C163.891 37.1483 163.874 38.2413 164.131 39.2658C164.63 41.3018 164.091 42.8255 161.953 43.85C162.286 44.3785 162.452 44.9658 162.852 45.2595C163.974 46.1411 165.182 46.9126 166.459 47.5629C168.457 48.4896 170.605 48.6299 172.85 48.271C174.585 47.9981 176.239 47.3567 177.695 46.3916C179.184 45.4128 179.823 43.7814 180.919 42.5057C181.079 42.336 180.979 41.9282 180.919 41.6346C180.909 41.5204 180.699 41.4616 180.543 41.3768Z" fill="#0D1414"/>
<path fill-rule="evenodd" clip-rule="evenodd" d="M119.992 29.1342H91.546V30.8599H119.992V29.1342ZM91.0219 28.2979H121.041V31.6936H90.4977V28.3032L91.0219 28.2979Z" fill="#0D1414"/>
<path d="M119.992 29.1342H91.546V30.8599H119.992V29.1342ZM91.0219 28.2979H121.041V31.6936H90.4977V28.3032L91.0219 28.2979Z" stroke="#0D1414" stroke-width="0.22"/>
<path fill-rule="evenodd" clip-rule="evenodd" d="M93.8914 26.0307L93.9466 18.6317L93.9501 18.1106H117.647V23.7702H116.56V19.1529H95.023L94.9712 26.034L93.8914 26.0307Z" fill="#0D1414"/>
<path d="M93.8914 26.0307L93.9466 18.6317L93.9501 18.1106H117.647V23.7702H116.56V19.1529H95.023L94.9712 26.034L93.8914 26.0307Z" stroke="#0D1414" stroke-width="0.22"/>
<path fill-rule="evenodd" clip-rule="evenodd" d="M96.8488 36.334H96.0056V37.2736H96.8488V36.334ZM93.5027 34.8122H94.8813V36.0392H95.7245V34.8122H97.1031V36.0392H98.2273V37.2736H99.3047V38.7916H97.9262V37.5573H97.0863V38.7916H95.7078V37.5573H94.6303V36.334H93.5027V34.8122ZM112.414 36.334H111.575V37.2736H112.414V36.334ZM109.068 34.8122H110.447V36.0392H111.277V34.8122H112.655V36.0392H113.783V37.2736H114.86V38.7916H113.485V37.5573H112.642V38.7916H111.277V37.5573H110.199V36.334H109.068V34.8122ZM91.629 33.9574H119.91V35.9766H118.819V37.3178H117.634V38.4711H116.537V39.617H109.102V38.4342H108.075V37.2772H106.987V34.8343H104.427V37.2772H103.286V38.4342H102.206V39.617H94.8211V38.4711H93.737V37.3362H92.6796V35.995H91.629V33.9574Z" fill="#0D1414"/>
<path d="M96.8488 36.334H96.0056V37.2736H96.8488V36.334ZM93.5027 34.8122H94.8813V36.0392H95.7245V34.8122H97.1031V36.0392H98.2273V37.2736H99.3047V38.7916H97.9262V37.5573H97.0863V38.7916H95.7078V37.5573H94.6303V36.334H93.5027V34.8122ZM112.414 36.334H111.575V37.2736H112.414V36.334ZM109.068 34.8122H110.447V36.0392H111.277V34.8122H112.655V36.0392H113.783V37.2736H114.86V38.7916H113.485V37.5573H112.642V38.7916H111.277V37.5573H110.199V36.334H109.068V34.8122ZM91.629 33.9574H119.909V35.9766H118.819V37.3178H117.634V38.4711H116.537V39.617H109.102V38.4342H108.075V37.2772H106.987V34.8343H104.427V37.2772H103.286V38.4342H102.206V39.617H94.8211V38.4711H93.737V37.3362H92.6796V35.995H91.629V33.9574Z" stroke="#0D1414" stroke-width="0.22"/>
<path fill-rule="evenodd" clip-rule="evenodd" d="M100.726 42.1562C99.2394 42.3351 97.7641 42.6067 96.3075 42.9697C96.8037 44.0739 97.433 45.104 98.1795 46.0337C99.4576 47.7216 100.961 49.3127 101.695 49.8216L105.245 49.7929L105.281 41.8695C103.759 41.8732 102.238 41.9689 100.726 42.1562ZM95.5091 42.02C97.186 41.5742 98.8882 41.2451 100.605 41.0345C102.333 40.8263 104.072 40.7318 105.812 40.7514H106.335V41.3105L106.295 50.3484V50.9039H105.775L101.554 50.9361H101.413L101.296 50.8645C100.518 50.395 98.7867 48.6032 97.3676 46.7254C96.2706 45.274 95.338 43.7438 95.1266 42.6687L95.0226 42.1383L95.5158 42.0057L95.5091 42.02Z" fill="#0D1414"/>
<path d="M100.726 42.1562C99.2394 42.3351 97.7641 42.6067 96.3075 42.9697C96.8037 44.0739 97.433 45.104 98.1795 46.0337C99.4576 47.7216 100.961 49.3127 101.695 49.8216L105.245 49.7929L105.281 41.8695C103.759 41.8732 102.238 41.9689 100.726 42.1562V42.1562ZM95.5091 42.02C97.186 41.5742 98.8882 41.2451 100.605 41.0345C102.333 40.8263 104.072 40.7318 105.812 40.7514H106.335V41.3105L106.295 50.3484V50.9039H105.775L101.554 50.9361H101.413L101.296 50.8645C100.518 50.395 98.7867 48.6032 97.3676 46.7254C96.2706 45.274 95.338 43.7438 95.1266 42.6687L95.0226 42.1383L95.5158 42.0057L95.5091 42.02Z" stroke="#0D1414" stroke-width="0.22"/>
<path fill-rule="evenodd" clip-rule="evenodd" d="M110.93 41.0248C112.646 41.2356 114.347 41.5647 116.023 42.0102L116.516 42.1392L116.412 42.6695C116.197 43.7445 115.269 45.2745 114.172 46.7258C112.754 48.6034 111.024 50.3951 110.246 50.8645L110.129 50.9361H109.985L105.77 50.9039H105.247V50.3485L105.204 41.3114V40.7525H105.727C107.465 40.7292 109.202 40.8201 110.93 41.0248ZM115.225 42.9598C113.769 42.5971 112.295 42.3255 110.809 42.1463C109.298 41.9592 107.778 41.8635 106.256 41.8597L106.293 49.7823L109.834 49.7966C110.568 49.2878 112.07 47.6968 113.344 46.0091C114.092 45.0843 114.725 44.0592 115.225 42.9598Z" fill="#0D1414"/>
<path d="M110.93 41.0248C112.646 41.2356 114.347 41.5647 116.023 42.0102L116.516 42.1392L116.412 42.6695C116.197 43.7445 115.269 45.2745 114.172 46.7258C112.754 48.6034 111.024 50.3951 110.246 50.8645L110.129 50.9361H109.985L105.77 50.9039H105.247V50.3485L105.204 41.3114V40.7525H105.727C107.465 40.7292 109.202 40.8201 110.93 41.0248V41.0248ZM115.225 42.9598C113.769 42.5971 112.295 42.3255 110.809 42.1463C109.298 41.9592 107.778 41.8635 106.256 41.8597L106.293 49.7823L109.834 49.7966C110.568 49.2878 112.07 47.6968 113.344 46.0091C114.092 45.0843 114.725 44.0592 115.225 42.9598V42.9598Z" stroke="#0D1414" stroke-width="0.22"/>
<path fill-rule="evenodd" clip-rule="evenodd" d="M95.4812 46.8395L94.1115 48.3111L96.8265 51.6441L98.1962 50.1725L95.4812 46.8395ZM93.1087 47.8932L95.1755 45.67L95.5332 45.2766L95.8573 45.677L99.2204 49.8108L99.5475 50.2147L99.202 50.5975L97.1353 52.8207L96.7867 53.2L96.4504 52.7961L93.0873 48.6623L92.7602 48.2619L93.1087 47.8932Z" fill="#0D1414"/>
<path fill-rule="evenodd" clip-rule="evenodd" d="M117.094 45.6529L119.503 47.8791L119.909 48.2554L119.528 48.6563L115.608 52.7956L115.23 53.2L114.806 52.8202L112.397 50.594L111.991 50.2213L112.372 49.8168L116.292 45.6775L116.674 45.2766L117.094 45.6529ZM118.334 48.3046L116.738 46.8311L113.573 50.1685L115.17 51.6421L118.334 48.3046Z" fill="#0D1414"/>
<path d="M117.094 45.6529L119.503 47.8791L119.909 48.2554L119.528 48.6563L115.608 52.7956L115.23 53.2L114.806 52.8202L112.397 50.594L111.991 50.2213L112.372 49.8168L116.292 45.6775L116.674 45.2766L117.094 45.6529ZM118.334 48.3046L116.738 46.8311L113.573 50.1685L115.17 51.6421L118.334 48.3046Z" stroke="#0D1414" stroke-width="0.22"/>
</svg>
