<svg width="35" height="40" viewBox="0 0 35 40" fill="none" xmlns="http://www.w3.org/2000/svg">
<g clip-path="url(#clip0_260_4331)">
<path fill-rule="evenodd" clip-rule="evenodd" d="M32.8331 11.9851H1.1669V14.018H32.8331V11.9851ZM0.583443 11H34V15H0V11.0063L0.583443 11Z" fill="#0D1414"/>
<path d="M32.8331 11.9851H1.1669V14.018H32.8331V11.9851ZM0.583443 11H34V15H0V11.0063L0.583443 11Z" stroke="#0D1414" stroke-width="0.22"/>
<path fill-rule="evenodd" clip-rule="evenodd" d="M4 8.99623L4.06041 0.591957L4.06419 0H30V6.42857H28.8106V1.18391H5.23845L5.18182 9L4 8.99623Z" fill="#0D1414"/>
<path d="M4 8.99623L4.06041 0.591957L4.06419 0H30V6.42857H28.8106V1.18391H5.23845L5.18182 9L4 8.99623Z" stroke="#0D1414" stroke-width="0.22"/>
<path fill-rule="evenodd" clip-rule="evenodd" d="M6.9063 20.5195H5.9522V21.5156H6.9063V20.5195ZM3.12021 18.9063H4.68008V20.207H5.63417V18.9063H7.19404V20.207H8.46616V21.5156H9.68528V23.125H8.12542V21.8164H7.17511V23.125H5.61524V21.8164H4.39612V20.5195H3.12021V18.9063ZM24.5192 20.5195H23.5689V21.5156H24.5192V20.5195ZM20.7331 18.9063H22.2929V20.207H23.2319V18.9063H24.7918V20.207H26.0677V21.5156H27.2868V23.125H25.7307V21.8164H24.7766V23.125H23.2319V21.8164H22.0128V20.5195H20.7331V18.9063ZM1 18H33V20.1406H31.7657V21.5625H30.4255V22.7852H29.1836V24H20.7709V22.7461H19.6086V21.5195H18.3781V18.9297H15.4818V21.5195H14.1907V22.7461H12.9678V24H4.61193V22.7852H3.38523V21.582H2.18884V20.1602H1V18Z" fill="#0D1414"/>
<path d="M6.9063 20.5195H5.9522V21.5156H6.9063V20.5195ZM3.12021 18.9063H4.68008V20.207H5.63417V18.9063H7.19404V20.207H8.46616V21.5156H9.68528V23.125H8.12542V21.8164H7.17511V23.125H5.61524V21.8164H4.39612V20.5195H3.12021V18.9063ZM24.5192 20.5195H23.5689V21.5156H24.5192V20.5195ZM20.7331 18.9063H22.2929V20.207H23.2319V18.9063H24.7918V20.207H26.0677V21.5156H27.2868V23.125H25.7307V21.8164H24.7766V23.125H23.2319V21.8164H22.0128V20.5195H20.7331V18.9063ZM1 18H33V20.1406H31.7657V21.5625H30.4255V22.7852H29.1836V24H20.7709V22.7461H19.6086V21.5195H18.3781V18.9297H15.4818V21.5195H14.1907V22.7461H12.9678V24H4.61193V22.7852H3.38523V21.582H2.18884V20.1602H1V18Z" stroke="#0D1414" stroke-width="0.22"/>
<path fill-rule="evenodd" clip-rule="evenodd" d="M11.554 26.6578C9.84589 26.8685 8.15052 27.1884 6.47657 27.616C7.04681 28.9167 7.77003 30.13 8.62782 31.2252C10.0967 33.2135 11.8238 35.0877 12.6681 35.6872L16.747 35.6534L16.7894 26.32C15.0399 26.3244 13.2919 26.4371 11.554 26.6578ZM5.55902 26.4973C7.48611 25.9722 9.44226 25.5844 11.4152 25.3365C13.4015 25.0912 15.3998 24.9798 17.3986 25.003H18V25.6615L17.9537 36.3077V36.962H17.3562L12.5062 37H12.3443L12.2094 36.9156C11.315 36.3626 9.32562 34.2519 7.69484 32.0399C6.43416 30.3303 5.3624 28.5278 5.11951 27.2614L5 26.6366L5.56673 26.4805L5.55902 26.4973Z" fill="#0D1414"/>
<path d="M11.554 26.6578C9.84589 26.8685 8.15052 27.1884 6.47657 27.616C7.04681 28.9167 7.77003 30.13 8.62782 31.2252C10.0967 33.2135 11.8238 35.0877 12.6681 35.6872L16.747 35.6534L16.7894 26.32C15.0399 26.3244 13.2919 26.4371 11.554 26.6578V26.6578ZM5.55902 26.4973C7.48611 25.9722 9.44226 25.5844 11.4152 25.3365C13.4015 25.0912 15.3998 24.9798 17.3986 25.003H18V25.6615L17.9537 36.3077V36.962H17.3562L12.5062 37H12.3443L12.2094 36.9156C11.315 36.3626 9.32562 34.2519 7.69484 32.0399C6.43416 30.3303 5.3624 28.5278 5.11951 27.2614L5 26.6366L5.56673 26.4805L5.55902 26.4973Z" stroke="#0D1414" stroke-width="0.22"/>
<path fill-rule="evenodd" clip-rule="evenodd" d="M22.5809 25.325C24.5526 25.5733 26.5076 25.961 28.4336 26.4857L29 26.6377L28.8806 27.2624C28.634 28.5286 27.5667 30.331 26.3068 32.0404C24.6769 34.2522 22.6888 36.3626 21.7949 36.9156L21.6601 37H21.4944L16.6512 36.962H16.0501V36.3078L16 25.6626V25.0042H16.6011C18.5985 24.9768 20.5955 25.0839 22.5809 25.325ZM27.5166 27.6043C25.8436 27.1771 24.1492 26.8572 22.4422 26.6461C20.7053 26.4256 18.9584 26.3129 17.2098 26.3084L17.2522 35.6409L21.321 35.6578C22.1648 35.0584 23.8909 33.1843 25.3551 31.1962C26.215 30.1069 26.9416 28.8994 27.5166 27.6043Z" fill="#0D1414"/>
<path d="M22.5809 25.325C24.5526 25.5733 26.5076 25.961 28.4336 26.4857L29 26.6377L28.8806 27.2624C28.634 28.5286 27.5667 30.331 26.3068 32.0404C24.6769 34.2522 22.6888 36.3627 21.7949 36.9156L21.6601 37H21.4944L16.6512 36.962H16.0501V36.3078L16 25.6626V25.0042H16.6011C18.5985 24.9768 20.5955 25.0839 22.5809 25.325V25.325ZM27.5166 27.6043C25.8436 27.1771 24.1492 26.8572 22.4422 26.6461C20.7053 26.4256 18.9584 26.3129 17.2098 26.3084L17.2522 35.6409L21.321 35.6578C22.1648 35.0584 23.8909 33.1843 25.3551 31.1962C26.215 30.1069 26.9416 28.8994 27.5166 27.6043V27.6043Z" stroke="#0D1414" stroke-width="0.22"/>
<path fill-rule="evenodd" clip-rule="evenodd" d="M5.8063 31.7753L4.3937 33.4468L7.1937 37.2327L8.6063 35.5612L5.8063 31.7753ZM3.35946 32.9721L5.49099 30.4468L5.85991 30L6.19414 30.4548L9.66261 35.1503L10 35.609L9.64369 36.0439L7.51216 38.5692L7.1527 39L6.80586 38.5412L3.33739 33.8458L3 33.391L3.35946 32.9721Z" fill="#0D1414"/>
<path fill-rule="evenodd" clip-rule="evenodd" d="M29.8002 30.4274L32.5382 32.9561L33 33.3835L32.5666 33.8389L28.1112 38.5406L27.6818 39L27.1998 38.5686L24.4617 36.0399L24 35.6165L24.4334 35.1571L28.8888 30.4554L29.3222 30L29.8002 30.4274ZM31.2097 33.4394L29.3951 31.7657L25.7984 35.5566L27.613 37.2304L31.2097 33.4394Z" fill="#0D1414"/>
<path d="M29.8002 30.4274L32.5382 32.9561L33 33.3835L32.5666 33.8389L28.1112 38.5406L27.6818 39L27.1998 38.5686L24.4617 36.0399L24 35.6165L24.4334 35.1571L28.8888 30.4554L29.3222 30L29.8002 30.4274ZM31.2097 33.4394L29.3951 31.7657L25.7984 35.5566L27.613 37.2304L31.2097 33.4394Z" stroke="#0D1414" stroke-width="0.22"/>
</g>
<defs>
<clipPath id="clip0_260_4331">
<rect width="34.2857" height="40" fill="white"/>
</clipPath>
</defs>
</svg>
