<svg width="20" height="20" viewBox="0 0 20 20" fill="none" xmlns="http://www.w3.org/2000/svg">
<path d="M19.6774 14.8837L18.4946 14.3023C18.4946 14.3023 16.7742 13.4884 15.6989 12.907C15.5914 12.907 15.4839 12.7907 15.3763 12.7907C15.0538 12.7907 14.8387 12.907 14.6237 13.0233C14.6237 13.0233 14.5161 13.1395 13.0108 15C12.9032 15.2326 12.6882 15.3488 12.4731 15.3488H12.3656C12.2581 15.3488 12.043 15.2326 11.9355 15.1163L11.3978 14.8837C10.2151 14.3023 9.13978 13.6047 8.27957 12.6744C8.06452 12.4419 7.74194 12.2093 7.52688 11.9767C6.77419 11.1628 6.02151 10.2326 5.48387 9.18605L5.37634 8.95349C5.26882 8.83721 5.26882 8.72093 5.16129 8.48837C5.16129 8.25581 5.16129 8.02326 5.26882 7.90698C5.26882 7.90698 5.69892 7.32558 6.02151 6.97675C6.23656 6.74419 6.34409 6.39535 6.55914 6.16279C6.77419 5.81395 6.88172 5.34884 6.77419 5C6.66667 4.41861 5.37634 1.27907 5.05376 0.581395C4.83871 0.232558 4.62366 0.116279 4.30108 0H3.97849C3.76344 0 3.44086 0 3.11828 0C2.90323 0 2.68817 0.116279 2.47312 0.116279L2.36559 0.232558C2.15054 0.348837 1.93548 0.581395 1.72043 0.697675C1.50538 0.930233 1.39785 1.16279 1.1828 1.39535C0.430108 2.44186 0 3.72093 0 5C0 5.93023 0.215054 6.86047 0.537634 7.67442L0.645162 8.02326C1.6129 10.2326 2.90323 12.2093 4.62366 13.9535L5.05376 14.4186C5.37634 14.7674 5.69893 15 5.91398 15.3488C8.17204 17.4419 10.7527 18.9535 13.6559 19.7674C13.9785 19.8837 14.4086 19.8837 14.7312 20C15.0538 20 15.4839 20 15.8065 20C16.3441 20 16.9892 19.7674 17.4194 19.5349C17.7419 19.3023 17.957 19.3023 18.172 19.0698L18.3871 18.8372C18.6021 18.6047 18.8172 18.4884 19.0323 18.2558C19.2473 18.0233 19.4624 17.7907 19.5699 17.5581C19.7849 17.093 19.8925 16.5116 20 15.9302C20 15.6977 20 15.3488 20 15.1163C20 15.1163 19.8925 15 19.6774 14.8837Z" fill="#5D9E84"/>
</svg>
