<svg>
	<symbol id="facebook" width="24" height="24" viewBox="0 0 24 24" fill="none" xmlns="http://www.w3.org/2000/svg">
<path d="M24 12C24 5.37258 18.6274 0 12 0C5.37258 0 0 5.37258 0 12C0 17.9895 4.3882 22.954 10.125 23.8542V15.4688H7.07812V12H10.125V9.35625C10.125 6.34875 11.9166 4.6875 14.6576 4.6875C15.9701 4.6875 17.3438 4.92188 17.3438 4.92188V7.875H15.8306C14.34 7.875 13.875 8.80008 13.875 9.75V12H17.2031L16.6711 15.4688H13.875V23.8542C19.6118 22.954 24 17.9895 24 12Z" fill="currentColor"/>
	</symbol>

	<symbol id="instagram" width="24" height="24" viewBox="0 0 24 24" fill="none" xmlns="http://www.w3.org/2000/svg">
<path fill-rule="evenodd" clip-rule="evenodd" d="M10.8608 0.0291392C7.10561 0.419625 3.81458 2.46326 1.81536 5.64614C-1.0192 10.159 -0.490167 16.1193 3.09352 20.0455C5.07683 22.2185 7.5572 23.5176 10.5317 23.9412C11.087 24.0203 12.9325 24.0194 13.5122 23.9396C16.2288 23.5661 18.6618 22.3613 20.5122 20.4731C21.1195 19.8534 21.2488 19.7052 21.6516 19.168C22.852 17.567 23.6378 15.6154 23.9411 13.4823C24.0196 12.9297 24.0196 11.0757 23.9411 10.5234C23.7388 9.10147 23.371 7.88995 22.7809 6.70173C22.1556 5.44282 21.514 4.54532 20.5153 3.53266C18.6627 1.65411 16.3432 0.487164 13.6765 0.0920753C13.1007 0.0067358 11.4342 -0.0304622 10.8608 0.0291392ZM14.8419 5.14575C16.191 5.23316 16.98 5.52886 17.7015 6.21754C18.4347 6.91731 18.7729 7.77686 18.863 9.16944C18.9224 10.087 18.9224 13.8945 18.8629 14.8266C18.7733 16.2325 18.4279 17.1018 17.6763 17.8131C16.9766 18.4753 16.1676 18.7741 14.8419 18.86C13.9412 18.9184 10.0792 18.9184 9.17857 18.86C7.82939 18.7726 7.04046 18.4769 6.31889 17.7882C5.58577 17.0884 5.24754 16.2289 5.15742 14.8363C5.09846 13.9256 5.09879 10.0091 5.15793 9.14262C5.25176 7.76727 5.59117 6.91214 6.31889 6.21754C7.01117 5.55681 7.84338 5.231 9.04723 5.14932C9.84067 5.0955 14.0267 5.09291 14.8419 5.14575ZM10.297 6.37207C8.88694 6.39748 8.65934 6.41213 8.34233 6.49803C7.34387 6.76861 6.77705 7.33607 6.50969 8.33267C6.42464 8.64974 6.40995 8.885 6.3838 10.3473C6.36756 11.2579 6.36756 12.7479 6.3838 13.6585C6.40995 15.1207 6.42464 15.356 6.50969 15.6731C6.77714 16.6701 7.34598 17.2393 8.34233 17.5069C8.6592 17.592 8.89431 17.6067 10.3557 17.6328C11.2657 17.6491 12.7548 17.6491 13.6648 17.6328C15.1381 17.6065 15.3595 17.5924 15.6861 17.5048C16.6582 17.244 17.2468 16.6552 17.5092 15.6811C17.5975 15.3531 17.6111 15.1378 17.6372 13.6585C17.6531 12.7479 17.6531 11.2578 17.6372 10.3473C17.6114 8.87984 17.5971 8.65087 17.5113 8.33267C17.2419 7.33386 16.671 6.76321 15.6781 6.50019C15.3121 6.4033 15.2152 6.39874 12.5735 6.35469C12.1991 6.34844 11.1747 6.35624 10.297 6.37207ZM15.9851 7.54399C16.165 7.61195 16.3734 7.81462 16.4516 7.99742C16.6784 8.52782 16.2736 9.13787 15.6948 9.13787C15.2525 9.13787 14.8734 8.76063 14.8734 8.3205C14.8734 7.75178 15.4569 7.34424 15.9851 7.54399ZM13.149 8.65392C13.7166 8.85316 14.0318 9.0516 14.4773 9.49013C14.9091 9.91523 15.1791 10.339 15.3748 10.8991C15.4967 11.2482 15.5061 11.3266 15.5061 12.0029C15.5061 12.6792 15.4967 12.7575 15.3748 13.1066C15.1856 13.648 14.9085 14.0891 14.5018 14.496C14.0951 14.903 13.6544 15.1803 13.1133 15.3696C12.7644 15.4916 12.6861 15.501 12.0102 15.501C11.3344 15.501 11.256 15.4916 10.9072 15.3696C10.3474 15.1737 9.92389 14.9036 9.49906 14.4715C9.06296 14.0279 8.86493 13.7141 8.66051 13.1423C8.51923 12.7473 8.51341 12.7018 8.51491 12.0029C8.51632 11.3393 8.52763 11.2416 8.64282 10.8991C8.88746 10.1714 9.4095 9.48609 10.0372 9.06846C10.7253 8.61081 11.2166 8.47446 12.1041 8.49499C12.6695 8.50804 12.7821 8.52519 13.149 8.65392ZM11.4566 9.77461C10.2226 10.1069 9.47103 11.3459 9.78106 12.5368C10.0055 13.3992 10.616 14.0092 11.48 14.2343C13.0932 14.6548 14.6605 13.0865 14.2403 11.4723C13.9132 10.2159 12.6588 9.45082 11.4566 9.77461Z" fill="currentColor"/>
	</symbol>

	<symbol id="telegram" width="24" height="24" viewBox="0 0 24 24" fill="none" xmlns="http://www.w3.org/2000/svg">
<path fill-rule="evenodd" clip-rule="evenodd" d="M24 12C24 18.6274 18.6274 24 12 24C5.37258 24 0 18.6274 0 12C0 5.37258 5.37258 0 12 0C18.6274 0 24 5.37258 24 12ZM12.43 8.85893C11.2628 9.3444 8.93014 10.3492 5.43189 11.8733C4.86383 12.0992 4.56626 12.3202 4.53917 12.5363C4.49339 12.9015 4.95071 13.0453 5.57347 13.2411C5.65818 13.2678 5.74595 13.2954 5.83594 13.3246C6.44864 13.5238 7.27283 13.7568 7.70129 13.766C8.08994 13.7744 8.52373 13.6142 9.00264 13.2853C12.2712 11.079 13.9584 9.96381 14.0643 9.93977C14.139 9.92281 14.2426 9.90148 14.3128 9.96385C14.3829 10.0262 14.376 10.1443 14.3686 10.176C14.3233 10.3691 12.5281 12.0381 11.5991 12.9018C11.3095 13.171 11.1041 13.362 11.0621 13.4056C10.968 13.5033 10.8721 13.5958 10.78 13.6846C10.2108 14.2333 9.78391 14.6448 10.8036 15.3168C11.2936 15.6397 11.6858 15.9067 12.077 16.1731C12.5042 16.4641 12.9303 16.7543 13.4816 17.1157C13.6221 17.2077 13.7562 17.3034 13.8869 17.3965C14.3841 17.751 14.8308 18.0694 15.3826 18.0186C15.7032 17.9891 16.0345 17.6876 16.2027 16.7884C16.6002 14.6631 17.3816 10.0585 17.5622 8.16097C17.578 7.99473 17.5581 7.78197 17.5422 7.68857C17.5262 7.59518 17.4928 7.46211 17.3714 7.3636C17.2276 7.24694 17.0056 7.22234 16.9064 7.22408C16.455 7.23203 15.7626 7.47282 12.43 8.85893Z" fill="currentColor"/>
	</symbol>

	<symbol id="youtube" width="24" height="24" viewBox="0 0 24 24" fill="none" xmlns="http://www.w3.org/2000/svg">
<path fill-rule="evenodd" clip-rule="evenodd" d="M10.8606 0.0291392C7.10544 0.419625 3.81438 2.46326 1.81514 5.64614C-1.01917 10.1585 -0.490033 16.1196 3.09332 20.0455C5.07664 22.2185 7.55704 23.5176 10.5316 23.9412C11.0869 24.0203 12.9323 24.0194 13.5121 23.9396C16.2288 23.5661 18.6617 22.3613 20.5121 20.4731C21.1194 19.8534 21.2488 19.7052 21.6516 19.168C22.852 17.567 23.6378 15.6154 23.9411 13.4823C24.0196 12.9297 24.0196 11.0757 23.9411 10.5234C23.7388 9.10147 23.371 7.88995 22.7808 6.70173C22.1556 5.44282 21.514 4.54532 20.5153 3.53266C18.6627 1.65411 16.3431 0.487164 13.6764 0.0920753C13.1006 0.00673581 11.4341 -0.0304622 10.8606 0.0291392ZM14.6152 6.78946C17.5058 6.89448 18.1229 7.00495 18.6676 7.51483C19.1163 7.93476 19.3021 8.49461 19.4325 9.8189C19.5128 10.6349 19.5137 13.2461 19.4339 14.0929C19.3135 15.3698 19.1958 15.8551 18.9158 16.228C18.5258 16.7474 18.1385 16.9417 17.2782 17.0498C14.9644 17.3407 8.25031 17.3128 6.46094 17.0049C5.54325 16.8469 4.9623 16.2994 4.76661 15.408C4.54234 14.3863 4.44429 12.2281 4.5468 10.5704C4.66602 8.64227 4.80459 8.09088 5.30185 7.56475C5.72823 7.11363 6.13275 6.98682 7.48057 6.88185C9.13247 6.75311 12.4374 6.71037 14.6152 6.78946ZM10.5081 12.0029V14.2592L10.735 14.1291C13.619 12.4758 14.4008 12.0224 14.4008 12.0029C14.4008 11.9834 13.619 11.5299 10.735 9.87667L10.5081 9.74657V12.0029Z" fill="currentColor"/>
	</symbol>

	<symbol id="vk" width="24" height="24" viewBox="0 0 24 24" fill="none" xmlns="http://www.w3.org/2000/svg">
<path fill-rule="evenodd" clip-rule="evenodd" d="M10.8795 0.0278658C6.80105 0.421244 3.15826 2.89058 1.3123 6.51321C0.659475 7.79444 0.273742 9.02981 0.0626762 10.5153C-0.0308803 11.1741 -0.0173071 12.8783 0.0874273 13.6128C0.273413 14.9171 0.658253 16.153 1.24805 17.3404C2.41821 19.6959 4.28756 21.5636 6.64963 22.7373C10.4787 24.6399 15.0041 24.3783 18.5755 22.0479C19.972 21.1366 21.2954 19.7858 22.1989 18.3494C22.5423 17.8034 23.0608 16.7421 23.2962 16.1032C23.5335 15.4593 23.8102 14.3418 23.9128 13.6128C24.0168 12.8743 24.0308 11.1659 23.9383 10.5153C23.661 8.56641 23.0425 6.9072 22.0157 5.35762C21.579 4.69861 21.1429 4.16693 20.5353 3.55283C18.6621 1.65962 16.332 0.485446 13.6676 0.0921148C13.093 0.00730989 11.4784 -0.0299066 10.8795 0.0278658ZM12.9131 8.21569C13.0148 8.26731 13.1416 8.3693 13.1949 8.44232C13.2881 8.56993 13.292 8.63493 13.2942 10.1318C13.2966 11.7776 13.3227 12.0216 13.5099 12.1527C13.6368 12.2415 13.7173 12.2101 13.9646 11.9753C14.5177 11.4502 15.2402 10.3115 15.6718 9.28465C15.806 8.96528 15.9663 8.65351 16.028 8.59185C16.1847 8.43528 16.4139 8.41599 17.8957 8.43481C18.9971 8.4488 19.1825 8.4617 19.3146 8.5336C19.5234 8.64722 19.5501 8.79736 19.4287 9.17328C19.2836 9.6226 19.0122 10.0567 18.1103 11.2823C17.075 12.6893 16.984 12.8604 17.1255 13.1348C17.1546 13.1912 17.5318 13.5964 17.9637 14.0352C18.7152 14.7986 19.2302 15.4216 19.4245 15.8021C19.5974 16.1408 19.5047 16.4518 19.1808 16.6191C18.9926 16.7164 18.1853 16.7489 17.1633 16.7003C16.0255 16.6463 15.9645 16.6157 15.0253 15.6287C14.2868 14.8526 14.1161 14.7157 13.887 14.7157C13.6023 14.7157 13.5162 14.8924 13.3612 15.7951C13.2757 16.2934 13.2564 16.3461 13.1108 16.4818C12.9703 16.6127 12.9109 16.6326 12.5706 16.6627C11.3293 16.7725 9.98756 16.4062 8.97097 15.68C7.93218 14.9379 6.82594 13.5055 5.73036 11.4838C5.24055 10.58 4.48571 8.95087 4.48571 8.79754C4.48571 8.72968 4.52953 8.61855 4.58307 8.55055L4.68038 8.42688H5.85383C6.54616 8.42688 7.11074 8.44791 7.23088 8.47813C7.52418 8.55191 7.68833 8.75216 7.93894 9.34204C8.48398 10.625 9.48563 12.1143 9.86774 12.2102C10.1177 12.2729 10.2226 12.0914 10.3167 11.4333C10.3736 11.0357 10.336 9.58257 10.2619 9.31454C10.2018 9.09683 10.0018 8.91131 9.71788 8.80979C9.579 8.76014 9.48178 8.69509 9.4722 8.64535C9.43688 8.46217 9.70336 8.22972 10.0512 8.14032C10.1287 8.12037 10.7627 8.10808 11.4602 8.11296C12.6251 8.12112 12.7433 8.12948 12.9131 8.21569Z" fill="currentColor"/>
	</symbol>

	<symbol id="whatsapp" width="24" height="24" viewBox="0 0 24 24" fill="none" xmlns="http://www.w3.org/2000/svg">
<path d="M0 12C0 5.37258 5.37258 0 12 0C18.6274 0 24 5.37258 24 12C24 18.6274 18.6274 24 12 24C5.37258 24 0 18.6274 0 12Z" fill="currentColor"/>
<path d="M17.6894 6.33514C16.2071 4.82162 14.158 4 12.0654 4C7.61853 4 4.0436 7.58919 4.08719 11.9568C4.08719 13.3405 4.47956 14.6811 5.13351 15.8919L4 20L8.22888 18.9189C9.40599 19.5676 10.7139 19.8703 12.0218 19.8703C16.4251 19.8703 20 16.2811 20 11.9135C20 9.79459 19.1717 7.80541 17.6894 6.33514ZM12.0654 18.5297C10.8883 18.5297 9.71117 18.227 8.70845 17.6216L8.44687 17.4919L5.91826 18.1405L6.57221 15.6757L6.39782 15.4162C4.47956 12.3459 5.3951 8.28108 8.53406 6.37838C11.673 4.47568 15.7275 5.38378 17.6458 8.4973C19.564 11.6108 18.6485 15.6324 15.5095 17.5351C14.5068 18.1838 13.2861 18.5297 12.0654 18.5297ZM15.9019 13.7297L15.4223 13.5135C15.4223 13.5135 14.7248 13.2108 14.2888 12.9946C14.2452 12.9946 14.2016 12.9514 14.158 12.9514C14.0272 12.9514 13.9401 12.9946 13.8529 13.0378C13.8529 13.0378 13.8093 13.0811 13.1989 13.773C13.1553 13.8595 13.0681 13.9027 12.9809 13.9027H12.9373C12.8937 13.9027 12.8065 13.8595 12.7629 13.8162L12.545 13.7297C12.0654 13.5135 11.6294 13.2541 11.2807 12.9081C11.1935 12.8216 11.0627 12.7351 10.9755 12.6486C10.6703 12.3459 10.3651 12 10.1471 11.6108L10.1035 11.5243C10.0599 11.4811 10.0599 11.4378 10.0163 11.3514C10.0163 11.2649 10.0163 11.1784 10.0599 11.1351C10.0599 11.1351 10.2343 10.9189 10.3651 10.7892C10.4523 10.7027 10.4959 10.573 10.5831 10.4865C10.6703 10.3568 10.7139 10.1838 10.6703 10.0541C10.6267 9.83784 10.1035 8.67027 9.97275 8.41081C9.88556 8.28108 9.79837 8.23784 9.66757 8.19459H9.53678C9.44959 8.19459 9.3188 8.19459 9.18801 8.19459C9.10082 8.19459 9.01362 8.23784 8.92643 8.23784L8.88283 8.28108C8.79564 8.32432 8.70845 8.41081 8.62125 8.45405C8.53406 8.54054 8.49046 8.62703 8.40327 8.71351C8.09809 9.1027 7.92371 9.57838 7.92371 10.0541C7.92371 10.4 8.0109 10.7459 8.14169 11.0486L8.18529 11.1784C8.57766 12 9.10082 12.7351 9.79837 13.3838L9.97275 13.5568C10.1035 13.6865 10.2343 13.773 10.3215 13.9027C11.2371 14.6811 12.2834 15.2432 13.4605 15.5459C13.5913 15.5892 13.7657 15.5892 13.8965 15.6324C14.0272 15.6324 14.2016 15.6324 14.3324 15.6324C14.5504 15.6324 14.812 15.5459 14.9864 15.4595C15.1172 15.373 15.2044 15.373 15.2916 15.2865L15.3787 15.2C15.4659 15.1135 15.5531 15.0703 15.6403 14.9838C15.7275 14.8973 15.8147 14.8108 15.8583 14.7243C15.9455 14.5514 15.9891 14.3351 16.0327 14.1189C16.0327 14.0324 16.0327 13.9027 16.0327 13.8162C16.0327 13.8162 15.9891 13.773 15.9019 13.7297Z" fill="#F7F7F7"/>
	</symbol>

	<symbol id="mail" width="24" height="24" viewBox="0 0 24 24" fill="none" xmlns="http://www.w3.org/2000/svg">
<path d="M0 12C0 5.37258 5.37258 0 12 0C18.6274 0 24 5.37258 24 12C24 18.6274 18.6274 24 12 24C5.37258 24 0 18.6274 0 12Z" fill="currentColor"/>
<path fill-rule="evenodd" clip-rule="evenodd" d="M17.8182 6H6.18182C4.94545 6 4 6.91481 4 8.11111V16.5556C4 17.7519 4.94545 18.6667 6.18182 18.6667H17.8182C19.0545 18.6667 20 17.7519 20 16.5556V8.11111C20 6.91481 19.0545 6 17.8182 6ZM6.18179 7.40683H17.8181C18.1091 7.40683 18.3272 7.54757 18.4727 7.82905L12 12.192L5.52724 7.82905C5.6727 7.54757 5.89088 7.40683 6.18179 7.40683ZM5.45443 16.5563C5.45443 16.9785 5.74534 17.26 6.1817 17.26H17.8181C18.2544 17.26 18.5453 16.9785 18.5453 16.5563V9.44887L12.4362 13.6007C12.2908 13.6711 12.1453 13.7415 11.9999 13.7415C11.8544 13.7415 11.709 13.6711 11.5635 13.6007L5.45443 9.44887V16.5563Z" fill="#F7F7F7"/>
	</symbol>

	<symbol id="phone" width="20" height="20" viewBox="0 0 20 20" fill="none" xmlns="http://www.w3.org/2000/svg">
<path d="M19.6774 14.8837L18.4946 14.3023C18.4946 14.3023 16.7742 13.4884 15.6989 12.907C15.5914 12.907 15.4839 12.7907 15.3763 12.7907C15.0538 12.7907 14.8387 12.907 14.6237 13.0233C14.6237 13.0233 14.5161 13.1395 13.0108 15C12.9032 15.2326 12.6882 15.3488 12.4731 15.3488H12.3656C12.2581 15.3488 12.043 15.2326 11.9355 15.1163L11.3978 14.8837C10.2151 14.3023 9.13978 13.6047 8.27957 12.6744C8.06452 12.4419 7.74194 12.2093 7.52688 11.9767C6.77419 11.1628 6.02151 10.2326 5.48387 9.18605L5.37634 8.95349C5.26882 8.83721 5.26882 8.72093 5.16129 8.48837C5.16129 8.25581 5.16129 8.02326 5.26882 7.90698C5.26882 7.90698 5.69892 7.32558 6.02151 6.97675C6.23656 6.74419 6.34409 6.39535 6.55914 6.16279C6.77419 5.81395 6.88172 5.34884 6.77419 5C6.66667 4.41861 5.37634 1.27907 5.05376 0.581395C4.83871 0.232558 4.62366 0.116279 4.30108 0H3.97849C3.76344 0 3.44086 0 3.11828 0C2.90323 0 2.68817 0.116279 2.47312 0.116279L2.36559 0.232558C2.15054 0.348837 1.93548 0.581395 1.72043 0.697675C1.50538 0.930233 1.39785 1.16279 1.1828 1.39535C0.430108 2.44186 0 3.72093 0 5C0 5.93023 0.215054 6.86047 0.537634 7.67442L0.645162 8.02326C1.6129 10.2326 2.90323 12.2093 4.62366 13.9535L5.05376 14.4186C5.37634 14.7674 5.69893 15 5.91398 15.3488C8.17204 17.4419 10.7527 18.9535 13.6559 19.7674C13.9785 19.8837 14.4086 19.8837 14.7312 20C15.0538 20 15.4839 20 15.8065 20C16.3441 20 16.9892 19.7674 17.4194 19.5349C17.7419 19.3023 17.957 19.3023 18.172 19.0698L18.3871 18.8372C18.6021 18.6047 18.8172 18.4884 19.0323 18.2558C19.2473 18.0233 19.4624 17.7907 19.5699 17.5581C19.7849 17.093 19.8925 16.5116 20 15.9302C20 15.6977 20 15.3488 20 15.1163C20 15.1163 19.8925 15 19.6774 14.8837Z" fill="currentColor"/>
	</symbol>

	<symbol id="message" width="36" height="36" viewBox="0 0 36 36" fill="none" xmlns="http://www.w3.org/2000/svg">
<g clip-path="url(#clip0_1_51)">
<path d="M0.000183106 35.542V35.1771C0.665583 34.4186 1.17582 33.5287 1.50018 32.5607C1.94517 31.1823 2.24688 29.7587 2.40019 28.314C2.4319 28.1207 2.42565 27.9228 2.38184 27.732C2.33802 27.5413 2.25753 27.3616 2.14517 27.2038C1.30883 25.9313 0.706262 24.5101 0.367676 23.0114C0.195176 22.2351 0.112676 21.5131 -0.00732422 20.7677V18.951C0.0197964 18.8465 0.0398578 18.7402 0.0526886 18.6327C0.179162 17.0456 0.599263 15.4984 1.29016 14.0755C2.27781 12.0413 3.68413 10.2559 5.41008 8.84484C7.13603 7.43378 9.1397 6.43135 11.2802 5.90813C14.2308 5.07448 17.3476 5.10944 20.2802 6.00906C23.4522 6.89238 26.2641 8.812 28.2977 11.4824C29.4432 12.9147 30.2801 14.5838 30.7522 16.378C31.2243 18.1721 31.3207 20.0499 31.0352 21.8857C30.516 25.2491 28.8079 28.2927 26.2427 30.4257C23.9312 32.4534 21.1077 33.7545 18.1052 34.1756C15.2197 34.6321 12.2692 34.3085 9.54016 33.2361C9.36935 33.1789 9.18376 33.1928 9.02271 33.275C6.45068 34.5988 3.69514 35.4998 0.855194 35.9456C0.689772 36.0026 0.509626 35.9927 0.351013 35.9178C0.1924 35.8429 0.0670678 35.7086 0.000183106 35.542ZM15.8927 20.4805H23.1002C23.2176 20.4882 23.3353 20.4882 23.4527 20.4805C23.5941 20.4691 23.7266 20.4043 23.8248 20.2983C23.923 20.1924 23.9801 20.0527 23.9852 19.906C23.9984 19.7586 23.9568 19.6116 23.8691 19.4948C23.7813 19.378 23.6539 19.3002 23.5127 19.2771C23.3982 19.2614 23.2822 19.2614 23.1677 19.2771H8.64771C8.52066 19.2614 8.39225 19.2614 8.2652 19.2771C8.13089 19.3033 8.01037 19.3792 7.92618 19.4907C7.84198 19.6021 7.79984 19.7414 7.80766 19.8827C7.81366 20.0294 7.86971 20.1692 7.96582 20.2772C8.06193 20.3852 8.1919 20.4545 8.33267 20.4727C8.45005 20.4805 8.56782 20.4805 8.6852 20.4727L15.8927 20.4805ZM15.8927 24.8359H23.1377C23.2984 24.8582 23.4619 24.8341 23.6102 24.766C23.7897 24.6499 23.9188 24.4662 23.9702 24.2536C23.9353 24.0273 23.8203 23.8226 23.6477 23.6791C23.5502 23.5859 23.3402 23.6015 23.1827 23.6015H8.51267C8.07767 23.6015 7.82266 23.8266 7.80766 24.1915C7.79266 24.5564 8.0702 24.8204 8.5052 24.8359H15.8852H15.8927ZM15.8927 16.1329H19.8302C19.97 16.1445 20.1104 16.1445 20.2502 16.1329C20.3793 16.1106 20.4964 16.0412 20.5804 15.9372C20.6643 15.8332 20.7095 15.7016 20.7077 15.5661C20.7219 15.4314 20.6878 15.296 20.6117 15.1857C20.5356 15.0754 20.4229 14.9981 20.2952 14.9683C20.184 14.9303 20.0673 14.9119 19.9502 14.914H11.8502C11.7331 14.913 11.6167 14.9314 11.5052 14.9683C11.386 15.0051 11.2823 15.0827 11.2115 15.1886C11.1406 15.2944 11.1066 15.4221 11.1152 15.5506C11.1078 15.6859 11.1488 15.8193 11.2305 15.9253C11.3121 16.0313 11.4286 16.1024 11.5577 16.1251C11.697 16.1446 11.8383 16.1446 11.9777 16.1251L15.8927 16.1329Z" fill="white"/>
<path d="M35.9998 30.2317C35.9347 30.3952 35.8143 30.5287 35.6611 30.6072C35.508 30.6857 35.3325 30.704 35.1674 30.6587C33.2169 30.317 31.2994 29.7974 29.4373 29.1059L29.2798 29.0283L29.7224 28.3761C31.3605 26.0409 32.2872 23.2523 32.3834 20.368C32.4796 17.4838 31.741 14.6356 30.2623 12.189C29.0512 10.1797 27.4473 8.45514 25.5537 7.12607C23.6601 5.79701 21.5188 4.89291 19.2673 4.47192C15.5652 3.65303 11.7075 4.07165 8.24985 5.6675C8.17929 5.7032 8.10666 5.73431 8.03236 5.76066L7.96484 5.67527C8.56484 5.07747 9.13487 4.44087 9.77237 3.89741C11.4686 2.44195 13.4303 1.35442 15.5407 0.699557C17.6512 0.0446963 19.8673 -0.164144 22.0573 0.0854405C25.0181 0.337401 27.8508 1.44575 30.2323 3.28406C31.6932 4.34733 32.9372 5.69825 33.8934 7.25951C34.8496 8.82077 35.4991 10.5618 35.8048 12.3831C35.8723 12.7712 35.9173 13.1594 35.9773 13.5632V15.4574C35.9494 15.5591 35.9294 15.663 35.9174 15.768C35.7642 17.7704 35.1384 19.7032 34.0949 21.3966C33.8781 21.7187 33.7265 22.0828 33.6492 22.467C33.5719 22.8513 33.5704 23.2477 33.6448 23.6326C34.0198 25.8763 34.3948 28.0967 35.9773 29.8435L35.9998 30.2317Z" fill="white"/>
</g>
<defs>
<clipPath id="clip0_1_51">
<rect width="36" height="36" fill="white"/>
</clipPath>
</defs>
	</symbol>

	<symbol id="cross" width="24" height="24" viewBox="0 0 24 24" fill="none" xmlns="http://www.w3.org/2000/svg">
<g clip-path="url(#clip0_1_74)">
<path fill-rule="evenodd" clip-rule="evenodd" d="M11.0553 0.0463505C5.71699 0.480702 1.28153 4.41253 0.238193 9.63524C-0.254079 12.0996 0.0182282 14.5678 1.04074 16.9093C2.18139 19.5213 4.45835 21.8011 7.08994 22.966C11.1351 24.7567 15.7166 24.2324 19.2606 21.5732C20.1946 20.8725 21.3052 19.696 21.9676 18.7059C24.6742 14.6605 24.6777 9.39036 21.9766 5.35057C21.4955 4.63112 21.1374 4.20316 20.424 3.49527C19.2258 2.30632 17.9952 1.49329 16.4638 0.878777C15.2982 0.411013 14.122 0.141162 12.8206 0.04282C12.0543 -0.0151004 11.804 -0.0145887 11.0553 0.0463505ZM8.57376 7.15751C8.74297 7.2339 9.22788 7.68427 10.4026 8.85623L12.0012 10.451L13.6261 8.83495C15.4241 7.04668 15.4782 7.00641 16.0013 7.06838C16.6985 7.15096 17.1339 7.86442 16.8884 8.52202C16.8123 8.72576 16.5342 9.0302 15.1818 10.3899L13.5661 12.0145L15.1818 13.639C16.9697 15.4366 17.01 15.4908 16.948 16.0139C16.8654 16.711 16.152 17.1464 15.4944 16.9009C15.2906 16.8249 14.9861 16.5467 13.6261 15.194L12.0012 13.5779L10.4026 15.173C9.33875 16.2345 8.74036 16.7946 8.61378 16.8473C8.20143 17.0189 7.63803 16.9126 7.36455 16.6116C7.08758 16.3069 7.0051 15.7967 7.16909 15.4026C7.22179 15.276 7.78191 14.6775 8.84372 13.6134L10.4392 12.0145L8.84403 10.4155C7.6718 9.24049 7.22133 8.75554 7.14494 8.58633C6.94969 8.15382 7.03089 7.72167 7.37141 7.38121C7.70823 7.04438 8.14361 6.96338 8.57376 7.15751Z" fill="currentColor"/>
</g>
<defs>
<clipPath id="clip0_1_74">
<rect width="24" height="24" fill="white"/>
</clipPath>
</defs>
	</symbol>

	<symbol id="burger" width="30" height="30" viewBox="0 0 30 30" fill="none" xmlns="http://www.w3.org/2000/svg">
<line x1="1" y1="7" x2="29" y2="7" stroke="currentColor" stroke-width="2" stroke-linecap="round"/>
<line x1="1" y1="15" x2="29" y2="15" stroke="currentColor" stroke-width="2" stroke-linecap="round"/>
<line x1="1" y1="23" x2="19" y2="23" stroke="currentColor" stroke-width="2" stroke-linecap="round"/>
	</symbol>

	<symbol id="location" width="24" height="24" viewBox="0 0 24 24" fill="none" xmlns="http://www.w3.org/2000/svg">
<path fill-rule="evenodd" clip-rule="evenodd" d="M2 10C2 4.5 6.5 0 12 0C17.5 0 22 4.5 22 10C22 17.4 12.9 23.6 12.6 23.8C12.4 23.9 12.2 24 12 24C11.8 24 11.6 23.9 11.4 23.8C11.1 23.6 2 17.4 2 10ZM3.9998 9.99922C3.9998 15.3992 10.0998 20.3992 11.9998 21.7992C13.8998 20.3992 19.9998 15.3992 19.9998 9.99922C19.9998 5.59922 16.3998 1.99922 11.9998 1.99922C7.5998 1.99922 3.9998 5.59922 3.9998 9.99922ZM12 6C9.8 6 8 7.8 8 10C8 12.2 9.8 14 12 14C14.2 14 16 12.2 16 10C16 7.8 14.2 6 12 6ZM9.9998 9.99922C9.9998 11.0992 10.8998 11.9992 11.9998 11.9992C13.0998 11.9992 13.9998 11.0992 13.9998 9.99922C13.9998 8.89922 13.0998 7.99922 11.9998 7.99922C10.8998 7.99922 9.9998 8.89922 9.9998 9.99922Z" fill="currentColor"/>
	</symbol>

	<symbol id="time" width="24" height="24" viewBox="0 0 24 24" fill="none" xmlns="http://www.w3.org/2000/svg">
<path d="M12 24C5.37258 24 0 18.6274 0 12C0 5.37258 5.37258 0 12 0C18.6274 0 24 5.37258 24 12C23.9927 18.6244 18.6244 23.9927 12 24ZM11.9807 21.6H12C17.3001 21.5947 21.593 17.2954 21.5903 11.9953C21.5877 6.69525 17.2904 2.4 11.9903 2.4C6.69027 2.4 2.39298 6.69525 2.39033 11.9953C2.38768 17.2954 6.68061 21.5947 11.9807 21.6Z" fill="currentColor"/>
<path d="M9.6 14.4H16.8V12H12V7.2H9.6V14.4Z" fill="currentColor"/>
	</symbol>

</svg>