<svg width="250" height="82" fill="none" xmlns="http://www.w3.org/2000/svg"><path fill-rule="evenodd" clip-rule="evenodd" d="M180.462 62.571v1.786h.734c.25.01.501-.01.745-.064a.71.71 0 0 0 .382-.274.866.866 0 0 0 .159-.536.862.862 0 0 0-.272-.663c-.2-.17-.461-.26-.728-.249h-1.02Zm0-2.19v1.594h.448c.266.01.532-.006.795-.048a.714.714 0 0 0 .518-.717.799.799 0 0 0-.173-.53.616.616 0 0 0-.362-.255 5.523 5.523 0 0 0-.778-.035l-.448-.01Zm.864 4.534h-1.555v-5.102h1.522a1.766 1.766 0 0 1 1.259.383c.246.24.383.563.382.9a1 1 0 0 1-.173.639 1.07 1.07 0 0 1-.541.409c.308.08.579.258.768.506.188.247.283.55.268.855.01.944-.638 1.41-1.93 1.41Zm-5.583-4.582a2.032 2.032 0 0 0-.799.152 1.97 1.97 0 0 0-.666.45 2 2 0 0 0-.461.67c-.105.25-.156.518-.15.788-.002.359.093.712.275 1.026.178.308.44.563.758.737a2.233 2.233 0 0 0 2.087 0 1.93 1.93 0 0 0 .754-.737c.185-.313.281-.667.279-1.026a1.945 1.945 0 0 0-.152-.789 2.013 2.013 0 0 0-.462-.668 1.973 1.973 0 0 0-.665-.45 2.039 2.039 0 0 0-.798-.153Zm0-.638c.384-.008.765.063 1.117.21s.666.366.92.642c.482.508.745 1.171.738 1.858a2.662 2.662 0 0 1-.777 1.843 2.89 2.89 0 0 1-1.994.79 2.891 2.891 0 0 1-1.994-.79 2.672 2.672 0 0 1-.774-1.842 2.667 2.667 0 0 1 .734-1.856c.254-.276.568-.496.919-.644a2.754 2.754 0 0 1 1.115-.217l-.004.006Zm-4.725 2.768h-3.103v2.458h-.681V59.82h.681v2.027h3.103V59.82h.665v5.101h-.665v-2.458Zm-9.274-2.643v3.778l3.911-3.778h.053v5.101h-.664v-3.756l-3.881 3.75h-.083v-5.102l.664.007Zm-4.02 2.133h.358c.23-.001.453-.076.632-.214a.743.743 0 0 0 .289-.618.822.822 0 0 0-.233-.587.911.911 0 0 0-.328-.195.953.953 0 0 0-.383-.047 1.9 1.9 0 0 0-1.123.41l-.385-.449a2.412 2.412 0 0 1 1.535-.577 1.7 1.7 0 0 1 1.123.377c.147.119.265.269.343.438.079.168.117.352.112.537.017.233-.045.464-.179.659a1.096 1.096 0 0 1-.559.419c.29.095.54.278.713.521.172.243.258.534.244.827.001.22-.046.439-.137.64a1.608 1.608 0 0 1-.394.534c-.168.15-.367.264-.584.337-.217.072-.447.1-.676.084a2.381 2.381 0 0 1-.957-.159 2.304 2.304 0 0 1-.804-.524l.426-.459c.158.175.354.313.575.406.22.093.46.137.701.13.299.017.594-.079.82-.268a.905.905 0 0 0 .299-.705.854.854 0 0 0-.299-.688 1.046 1.046 0 0 0-.707-.259h-.422v-.57Zm-5.177-1.623c-.37-.003-.734.09-1.054.268-.321.18-.586.44-.767.752a1.996 1.996 0 0 0 .003 2.053c.18.317.446.58.771.762.316.18.676.275 1.043.275.372 0 .738-.093 1.06-.271.324-.17.592-.423.774-.73.183-.32.275-.68.27-1.043a1.969 1.969 0 0 0-.608-1.476 2.026 2.026 0 0 0-.68-.447 2.091 2.091 0 0 0-.809-.15l-.003.007Zm2.741-.51v5.101h-.681v-.877a2.94 2.94 0 0 1-.964.753 2.752 2.752 0 0 1-1.17.248 2.693 2.693 0 0 1-1.047-.197 2.594 2.594 0 0 1-.876-.584 2.61 2.61 0 0 1-.603-.878 2.523 2.523 0 0 1-.195-1.035 2.497 2.497 0 0 1 .201-1.018c.139-.323.344-.615.603-.86.25-.25.551-.45.884-.584a2.73 2.73 0 0 1 1.053-.197 2.58 2.58 0 0 1 1.183.265c.372.191.691.464.931.797v-.938l.681.004Zm-8.227.577v4.524h-.682V59.82h2.695v.577h-2.013Zm-4.965-.067a2.13 2.13 0 0 0-1.057.27c-.32.18-.584.438-.764.75a1.988 1.988 0 0 0 0 2.053c.178.313.44.573.759.755.318.183.681.28 1.052.282.373 0 .74-.093 1.064-.271.323-.17.59-.422.77-.73.185-.32.279-.679.273-1.043a1.969 1.969 0 0 0-.608-1.476 2.032 2.032 0 0 0-.678-.447 2.091 2.091 0 0 0-.807-.15l-.004.007Zm2.742-.51v5.101h-.682v-.877c-.262.314-.59.57-.963.753a2.752 2.752 0 0 1-1.17.248 2.703 2.703 0 0 1-1.049-.196 2.6 2.6 0 0 1-.878-.585 2.629 2.629 0 0 1-.602-.878 2.538 2.538 0 0 1-.196-1.035 2.5 2.5 0 0 1 .202-1.018c.139-.323.345-.616.606-.86.249-.25.55-.45.884-.584a2.723 2.723 0 0 1 1.053-.197 2.59 2.59 0 0 1 1.183.265c.372.191.691.464.93.797v-.938l.682.004Zm-8.308 0h.2l1.794 5.101h-.714l-1.329-3.746-2.051 3.746h-.126l-2.05-3.762-1.329 3.762h-.665l1.814-5.101h.18l2.136 3.992 2.14-3.992Zm-10.762.567h-.452a3.153 3.153 0 0 0-.887.08.696.696 0 0 0-.359.274.922.922 0 0 0-.123.52.772.772 0 0 0 .558.771c.272.038.546.053.821.045h.452l-.01-1.69Zm0 2.258h-.492l-1.529 2.276h-.731l1.609-2.343a1.633 1.633 0 0 1-.974-.434 1.229 1.229 0 0 1-.283-.416 1.192 1.192 0 0 1-.089-.49 1.29 1.29 0 0 1 .094-.568 1.33 1.33 0 0 1 .335-.477 1.65 1.65 0 0 1 1.123-.373h1.621v5.101h-.681l-.003-2.276Zm-3.29 2.276h-.718l-1.801-3.727-1.767 3.72h-.731l2.425-5.1h.123l2.469 5.107Zm-8.307-4.075-1.555 3.508h3.047l-1.492-3.508Zm-2.22 3.508 2.054-4.544h.355l2.044 4.543h.638v1.212h-.665v-.654h-4.393v.683h-.664v-1.24h.631Zm-12.328-3.986-.438.434a1.617 1.617 0 0 0-1.073-.51.837.837 0 0 0-.572.213.617.617 0 0 0-.236.491.711.711 0 0 0 .193.472c.238.226.517.409.824.539.394.172.747.42 1.037.73.175.234.268.515.265.803a1.38 1.38 0 0 1-.114.577 1.571 1.571 0 0 1-.874.818 1.63 1.63 0 0 1-.623.104c-.304 0-.604-.065-.877-.191a1.942 1.942 0 0 1-.695-.53l.432-.471c.131.166.299.304.491.402.192.098.405.154.622.165.26.007.51-.084.701-.252a.796.796 0 0 0 .21-.268.765.765 0 0 0 .076-.328.741.741 0 0 0-.19-.5 3.134 3.134 0 0 0-.86-.543 2.75 2.75 0 0 1-.98-.701 1.281 1.281 0 0 1-.263-.788 1.23 1.23 0 0 1 .102-.52c.072-.165.179-.313.314-.436a1.46 1.46 0 0 1 .483-.292c.18-.066.371-.096.563-.09a2.21 2.21 0 0 1 1.482.672Zm-6.758-.044a2.101 2.101 0 0 0-.812.145 2.04 2.04 0 0 0-.683.444c-.2.195-.356.425-.46.68a1.95 1.95 0 0 0-.145.796 2.04 2.04 0 0 0 .269 1.043c.181.308.45.562.774.73.324.178.69.272 1.063.271a2.08 2.08 0 0 0 1.037-.274c.326-.182.593-.445.774-.762a1.996 1.996 0 0 0 0-2.053 2.017 2.017 0 0 0-.762-.75 2.127 2.127 0 0 0-1.055-.27Zm-2.742-.51h.665v.937c.242-.332.562-.605.934-.797.364-.18.77-.272 1.18-.265.36-.004.72.063 1.053.197.333.135.634.333.883.584.261.244.467.536.606.86.139.322.207.669.202 1.018.008.354-.059.706-.196 1.035a2.617 2.617 0 0 1-.605.878 2.61 2.61 0 0 1-.878.585 2.7 2.7 0 0 1-1.05.196 2.73 2.73 0 0 1-1.165-.252 2.986 2.986 0 0 1-.964-.755v2.748h-.665v-6.97Zm-4.057.519a2.029 2.029 0 0 0-.797.152 1.96 1.96 0 0 0-.665.45c-.2.191-.357.419-.462.669a1.93 1.93 0 0 0-.153.789 2 2 0 0 0 .28 1.026c.177.308.439.563.757.737a2.22 2.22 0 0 0 2.084 0c.319-.173.582-.428.757-.737a2 2 0 0 0 .28-1.026 1.926 1.926 0 0 0-.154-.79 1.992 1.992 0 0 0-.465-.667 1.96 1.96 0 0 0-.664-.45 2.029 2.029 0 0 0-.798-.153Zm0-.638a2.75 2.75 0 0 1 1.117.21c.351.147.665.366.92.642.482.508.745 1.171.738 1.858a2.663 2.663 0 0 1-.778 1.843 2.84 2.84 0 0 1-.918.59 2.932 2.932 0 0 1-2.168 0 2.84 2.84 0 0 1-.918-.59 2.66 2.66 0 0 1-.777-1.841 2.655 2.655 0 0 1 .737-1.857c.255-.279.57-.5.924-.649a2.735 2.735 0 0 1 1.123-.212v.006Zm-8.64-1.842h.685v2.888c.242-.321.554-.589.914-.784a2.287 2.287 0 0 1 1.083-.262c.376-.007.745.095 1.06.29.304.188.543.46.685.779a3.99 3.99 0 0 1 .22 1.533v2.624h-.659v-2.43a6.279 6.279 0 0 0-.07-1.176 1.323 1.323 0 0 0-.465-.759 1.413 1.413 0 0 0-.88-.258c-.41 0-.806.14-1.117.395a1.825 1.825 0 0 0-.664.973 6.416 6.416 0 0 0-.097 1.387v1.868h-.684l-.01-7.068Zm-1.202 2.521-.439.434a1.617 1.617 0 0 0-1.073-.51.836.836 0 0 0-.572.214.64.64 0 0 0-.239.49.715.715 0 0 0 .196.472c.239.227.518.41.824.54.394.17.746.42 1.034.73a1.3 1.3 0 0 1 .269.803c.004.198-.035.394-.114.577a1.575 1.575 0 0 1-.874.817c-.199.075-.41.11-.624.104-.303 0-.603-.065-.877-.191a1.942 1.942 0 0 1-.694-.53l.432-.471c.13.167.298.304.49.402.193.098.405.154.623.165.259.007.51-.083.7-.251a.798.798 0 0 0 .213-.268.768.768 0 0 0 .077-.329.759.759 0 0 0-.193-.5 3.13 3.13 0 0 0-.86-.542c-.378-.16-.714-.4-.98-.702a1.26 1.26 0 0 1-.26-.787 1.23 1.23 0 0 1 .1-.52c.072-.165.178-.314.312-.437a1.51 1.51 0 0 1 1.05-.383 2.22 2.22 0 0 1 1.502.667l-.023.006Zm-8.726-.554h.701v.746c.174-.26.4-.483.665-.657.215-.137.466-.211.724-.214.215.007.424.066.608.173l-.359.551a.955.955 0 0 0-.362-.09 1.018 1.018 0 0 0-.664.269c-.242.229-.41.52-.486.838a7.793 7.793 0 0 0-.126 1.76v1.725h-.7V59.82Zm-3.778.52a2.037 2.037 0 0 0-.8.152 1.948 1.948 0 0 0-.665.45c-.2.19-.356.418-.461.669a1.93 1.93 0 0 0-.15.788 2 2 0 0 0 .278 1.027c.176.308.437.563.755.736a2.229 2.229 0 0 0 2.086 0c.318-.173.58-.428.755-.736.184-.313.28-.667.279-1.027a1.924 1.924 0 0 0-.151-.79 1.99 1.99 0 0 0-.464-.667 1.958 1.958 0 0 0-.653-.45 2.03 2.03 0 0 0-.786-.159l-.023.006Zm0-.638c.384-.008.765.064 1.117.21.353.148.667.366.923.641.48.509.742 1.173.734 1.859a2.669 2.669 0 0 1-.777 1.843c-.53.506-1.246.79-1.994.79a2.886 2.886 0 0 1-1.993-.79 2.66 2.66 0 0 1-.778-1.842 2.655 2.655 0 0 1 .738-1.857 2.64 2.64 0 0 1 .927-.654c.356-.15.741-.223 1.13-.213l-.027.013Zm-3.462-1.837v.638a1.719 1.719 0 0 0-.648-.156.666.666 0 0 0-.333.076.34.34 0 0 0-.166.179 2.274 2.274 0 0 0-.036.535v.69h1.116v.567h-1.116v4.533h-.682v-4.546h-.7v-.568h.7v-.784a2.07 2.07 0 0 1 .103-.781.82.82 0 0 1 .363-.376c.185-.1.395-.15.608-.144.277.003.553.045.817.125l-.026.012Zm46.077 2.127a2.262 2.262 0 0 1 1.6 3.864 2.265 2.265 0 0 1-2.466.49 2.26 2.26 0 0 1-1.397-2.09 2.266 2.266 0 0 1 2.263-2.264Zm42.906-28.8c-.096-.118-.163-.125-.189-.017.1.117.156.127.189.017Zm-1.995 2.978c.15.077.226.06.21-.04-.153-.068-.24-.05-.223.04h.013Zm-7.27-6.896.266.027c-.007-.127-.256-.15-.279-.027h.013Zm-.256 2.848c0 .13.156.08.283.08-.017-.174-.14-.097-.296-.08h.013Zm4.955-3.81.024-.134-.28-.057c-.05.157.1.14.243.19h.013Zm-4.157 7.918c.193 0 .492.09.492-.134-.193 0-.482-.094-.492.134Zm-1.33-2.348c.017.054.027.101.043.151.526-.14.516-.288-.056-.157l.013.006Zm6.515 2.328c.216 0 .605.178.632-.09-.203-.014-.635-.135-.645.083l.013.007Zm-1.36.044c.239.026.495.167.532-.111-.213-.014-.522-.131-.546.104l.014.007Zm-3.595-7.936c-.207-.16-.373-.442-.556-.2.18.127.376.412.542.194l.014.006Zm5.364 6.269a9.082 9.082 0 0 0-.259-.403l-.3.393c.187.037.386.147.546.003l.013.007Zm1.427-1.734c-.127 0-.25-.03-.376-.04-.389.124-.479.727-.429 1.07l-.399.335c.09.094.189.184.289.278a.284.284 0 0 1 .143.335c.14.259 0 .36.299.108.3-.252.463-.896.556-1.265.067-.196.1-.402.096-.61.09-.174.024-.248-.193-.218l.014.007Zm10.19 16.507.176.04c.02-.114-.13-.204-.19-.047l.014.007Zm-28.365-31.636c.043 0-.18-.158-.107.05l.107-.05Zm.888 33.766c.07.017.138.039.206.063.053-.15-.116-.241-.206-.08v.017Zm.093-32.502c-.176-.084-.259-.06-.25.057.19.1.273.084.247-.074l.003.017Zm4.556-1.006c-.176-.191-.233-.15-.1.074l.1-.074Zm-8.717 23.745h.333c-.007-.168-.349-.107-.333 0Zm4.018 10.122c.076.124.116.057.183-.027-.067-.017-.24-.067-.183.027Zm19.272-1.006c.09.026.183.06.273.083.043-.15-.23-.218-.273-.084Zm-13.612-32.24.133-.024c-.073-.345-.149-.329-.133.023Zm17.131 1.75a.463.463 0 0 1 .043-.094c-.093-.033-.176-.073-.259-.11-.057.144.093.144.216.204Zm.628 29.956c.047-.031.096-.06.147-.084-.147-.305-.243-.244-.147.084Zm.207-30.073c.156 0 .316-.017.472-.034.003-.167-.469-.16-.459.034h-.013Zm1.792-.11c-.116 0-.489-.068-.505.083.166 0 .332.017.495.034a.428.428 0 0 0 .023-.118h-.013Zm-28.734-2.48c-.183 0-.455-.113-.465.101.163 0 .472.077.478-.1h-.013Zm1.347 2.496c.263-.024.529-.04.785-.067.013-.134-.772-.218-.772.067h-.013Zm2.787-1.18c.273.043.439.06.715.1-.203-.376-.396-.332-.702-.1h-.013Zm20.35 31.813a.767.767 0 0 1 0 .118h1.087c.007-.225-.831-.118-1.074-.118h-.013Zm7.037-30.807c-.462.04-.845.083-1.227.117a1.037 1.037 0 0 0 1.24-.117h-.013Zm-1.161 30.824a23.18 23.18 0 0 1-.844-.09c-.02.308 1.227.483 1.243 0-.063.006-.402-.017-.385.09h-.014Zm-5.986-30.54h1.144a1.04 1.04 0 0 0-1.111 0h-.033Zm4.716 30.372-2.933.128c.026.282 2.956.335 2.95-.128h-.017Zm5.733.044a21.77 21.77 0 0 0-1.995-.033l-.998.023a1.626 1.626 0 0 0-.499.017c-.222.201.3.211.373.211.665 0 1.33.034 2.019 0 .306 0 .665-.04.927 0 .067 0 .104.211.187.144s.02-.278.003-.362h-.017Zm-26.213-33.581c.117.083.067.15-.146.177.373.118.795.074 1.044.436l-.332.225c.289.252.455.117.748-.027.216-.1.831-.184.815-.426a1.429 1.429 0 0 1-1.547-.335c-.083-.094-.149-.302-.239-.369-.143-.1-.289-.034-.489 0-.199.034-.416 0-.416.218.067.04.133.09.207.13.149.205.276.199.355-.03Zm-10.722 3.018c.715.017 1.427.084 2.142.057.123 0 .938.044.998-.04.123-.195-.266-.151-.356-.212-.183-.1-.166-.14-.259-.368-.182.136-.38.248-.589.335a5.891 5.891 0 0 1-1.287 0h-1.161c-.332 0-.997-.158-1.037.211.505.03 1.027.02 1.549.03v-.013Zm1.577 10.793c.515-.202.741-.671.898-1.181-.566.094-1.131.127-1.686.211a9.596 9.596 0 0 0-1.81.61c-.645.242-1.287.494-1.925.735a5.786 5.786 0 0 0-1.593 1.006c-.211.154-.413.32-.605.497-.183.174-.333.174-.499.335-.24.231.193.299.382.241a6.48 6.48 0 0 0 .845-.57 11.631 11.631 0 0 1 3.658-1.388c.758-.171 1.606-.218 2.335-.496Zm23.423 5.473c.123.117.066.67.049.828-.03.485-.12.963-.266 1.426a6.498 6.498 0 0 1-1.353 2.451c-1.527 1.785-3.835 2.167-6.056 2.244a6.108 6.108 0 0 0-.788.04 1.815 1.815 0 0 1-.759-.057c-.372-.077-1.33.191-1.583-.067-.109-.117 0-.895-.026-1.063 0-.268 0-.537-.017-.795 0-.67-.023-1.341-.033-1.992a183.98 183.98 0 0 1-.023-3.86v-1.858c0-.36.016-.711.026-1.063 0-.477-.043-.52.406-.651-.289-.235-.373-.278-.373-.67v-1.238c0-.191-.109-1.047 0-1.147.11-.101.745 0 .912 0 0-.158-.313-.151-.463-.185-.149-.033-.316-.074-.482-.107 0-.077 0-.151.017-.228a2.93 2.93 0 0 1 .033-.577c.25-.052.506-.075.762-.067a20.763 20.763 0 0 1 2.993 0c.965.026 1.922.18 2.846.46.394.16.777.345 1.148.553.199.09.406.19.605.291.306.151.316.178.406.51-.333.084-.183.084-.09.262.099.154.21.3.333.436.125.13.267.244.422.335.244.173.431.414.539.694.332.61 1.33 2.764.592 3.217a1.52 1.52 0 0 1 .279 1.22c-.09.353-.017.229-.332.353-.173.067-.523-.04-.506.184.143.037.682.024.782.12Zm-4.417 11.242a.842.842 0 0 1-.056-.956c.382-.594.089.731.056.956Zm-6.651-3.984c-.083.023-.1-.017-.073-.118.093-.023.119.017.059.117h.014Zm6.651-22.47c.04.076-.14.184-.193.083.058-.021.114-.044.17-.07l.023-.014ZM136.71 43.13c.043.017.266.067.256.124-.239.054-.306.014-.289-.11l.033-.014Zm-2.102 4.25c-.146-.068-.083-.199.044-.158a1.543 1.543 0 0 0-.077.17l.033-.013Zm-2.437-29.514c-.133.04-.183.017-.157-.077.097-.054.157-.024.123.077h.034Zm-2.069 30.442c-.073-.137-.046-.194.06-.177.033.124.017.19-.093.177h.033Zm-.083-3.374c-.047-.05-.03-.084.06-.117.043.084.026.117-.093.117h.033Zm23.905-3.525c.183.05.106.353-.033.336-.027-.117-.007-.228 0-.336h.033Zm.14-.586c.015.023.026.05.033.077-.09.09-.14.09-.163-.017a.563.563 0 0 0 .096-.06h.034Zm.705-3.84c.026.067.05.134.083.2-.496.168-.565.024-.117-.2h.034Zm-.828 9.49a10.215 10.215 0 0 0 1.835-1.431c.507-.653.973-1.338 1.394-2.05a12.718 12.718 0 0 0 1.776-4.38c.385-1.773.599-3.58.638-5.396a22.519 22.519 0 0 0-.665-5.265c-.705-3.079-2.887-6.017-5.517-7.714a12.855 12.855 0 0 0-2.069-1.063c-.372-.158-.745-.335-1.12-.47a4.383 4.383 0 0 1-1.018-.335c-.243-.151-.176-.184-.459-.235a2.272 2.272 0 0 0-.399 0 10.513 10.513 0 0 1-1.118-.117 24.126 24.126 0 0 0-2.74-.252c-1.995-.1-4.011.175-6.016.108-2.005-.067-4.011.1-6.003 0 .449-.711 1.121-1.006 1.892-1.248.193-.06 1.088-.191 1.154-.335.084-.202-1.077-.108-1.243-.057a6.783 6.783 0 0 0-2.076 1.147c-.332.251-.542.5-.947.526-.479.034-1.111-.285-1.577 0-.299.174-.223.208-.223.56V29.71c0 4.085.073 8.17.117 12.245 0 1.891.056 3.783 0 5.674.033.249.033.5 0 .748v.248h-4.869c-.529 0-1.244-.124-1.759 0-.333.094-.333.044 0 .161.248.053.502.073.755.058 1.104.067 2.208.033 3.305.026.606 0 1.201 0 1.809.024.124 0 .689-.04.779.05.089.09.083.711.093.879.033.553 0 1.113.023 1.677.017.318-.093.503.259.56.353.057.333-.158.473-.443l-.499-.027c.173-.117.349-.241.522-.369l-.439-.281.299-.124a2.007 2.007 0 0 0-.189-.118 3.29 3.29 0 0 1 .282-.208 1.09 1.09 0 0 1-.349-.73 1.213 1.213 0 0 1 0-.45c.083-.245.083-.188.399-.188s.915-.124 1.138 0c.223.124.449.58.605.788.333-.386.482-.61.998-.721.495-.094 1-.127 1.503-.097.469.048.941.048 1.41 0 .496-.047.995-.061 1.493-.044.948 0 1.876 0 2.824.077s1.902-.107 2.853-.1c.951.006 1.996.06 2.993.067.485.013.971-.004 1.454-.05.233 0 .466-.024.695-.074.159-.06.266-.202.425-.259.862-.318 1.776-.395 2.631-.771a14.749 14.749 0 0 0 2.434-1.462h.034ZM85.009 28.278c-.046-.114-.09-.235-.14-.335.05 0 .094-.027.14-.034.02.117.037.242.05.366a.22.22 0 0 0-.05.003Zm-3.99 17.269a.938.938 0 0 1 0-.1s.023-.018.04-.028c.016-.01-.024.07-.034.128h-.007Zm-.134-10.37h-.033c0-.067 0-.144-.017-.208h.05v.208Zm-2.015 13.8h.043-.043Zm-3.402-2.988.016-.067.017.067h-.033Zm-.06-1.764a.034.034 0 0 1 0 .024v.043a5.32 5.32 0 0 0-.057.45l-.083-.024c.05-.144.09-.285.14-.426v-.06h.017c.023-.094.016-.06 0 0 .043-.09.016-.057-.017 0v-.007Zm-.106 1.271.016-.06v.06h-.016Zm-6.087-18.033.027-.067.04.024-.066.043Zm-3.708 20.002-.076-.124s.02-.017.026-.017a.9.9 0 0 1 .084.118l-.034.023Zm-3.13-7.304V41.7a1.956 1.956 0 0 1-.737.023 4.829 4.829 0 0 1-.965-.516c-.023.047-.1.184-.206.375-.605-.687-.482-1.465-.456-2.166l.788-.885a4.272 4.272 0 0 1 2.292.576c-.263.37-.476.705-.715 1.067v-.014ZM60.02 42.61c-.3-.134-.439-.285-.246-.627.34.12.346.332.246.64v-.013Zm-.333-15.4v.067h-.033l.033-.067Zm.273 2.927v.027l-.05-.027h.05Zm-1.277.564.373.258.382-.107c-.073.298-.363.271-.745-.138l-.01-.013Zm-3.741-3.508-.06-.027h.066l-.006.027Zm31.9-.93h-.53c-.421.41-.076.779-.026 1.148-.156-.268-.312-.527-.479-.805a.698.698 0 0 0-.232-.067c-.922.043-1.836.084-2.748.16-.32.048-.636.115-.947.202-.024-.034-.067-.11-.057-.084-.515.335-.954.61-1.287.828-.406 1.265-.781 2.425-1.154 3.582-.871 3.096-1.57 6.228-2.328 9.498-.712-2.434-1.387-4.718-2.055-7.002-.669-2.284-1.174-4.696-1.969-6.966h-5.288c-1.536 4.477-2.697 8.991-3.924 13.502-1.27-4.494-2.368-9.008-3.602-13.56-.515.034-.941.075-1.363.075-.945 0-1.893-.017-2.837-.034-.605 0-1.237-.158-1.826.252a2.545 2.545 0 0 0 0 .62c1.214 4.202 2.441 8.401 3.612 12.409.665.67 1.51.912 1.626 1.858-.25.302-.505.604-.805.963.532 2.12 1.227 4.178 1.942 6.311 1.244-.124 2.531.453 3.536-.71.19.318.356.576.532.855h1.683c.266-.62.525-1.224.375-1.919-.116-.033-.233-.057-.332-.094 0-.023 0-.04.023-.067l.333.151c.148-.191.277-.398.382-.617.15-.436.233-.895.356-1.341.522-1.916 1.047-3.824 1.57-5.739l1.36-4.957c.738 2.536 1.443 4.924 2.125 7.308.682 2.385 1.17 4.853 1.995 7.147.556.134 3.828-.033 4.267-.191l.067-.027c-.044.1-.093.201-.183.386l1.526-.225c.433-1.291.882-2.505 1.244-3.743.363-1.237.599-2.451.948-3.689a1344.07 1344.07 0 0 1 3.02-10.437c.06-.252.147-.497.259-.731.479-.97.838-1.965.689-3.079a1.058 1.058 0 0 0 .512-1.157l-.01-.013ZM46.534 43.112a4.723 4.723 0 0 1-3.151 1.235 4.723 4.723 0 0 1-3.168-1.195c-2.547-2.29-2.886-7.985-.778-10.621 1.996-2.486 6.615-2.586 8.192.805.565 1.237.838 2.609 1.077 3.38-.296 2.713-.39 4.833-2.172 6.396Zm-1.736 3.468c-.033-.067-.073-.135-.106-.202l.472-.251.1.174-.466.279Zm9.279-12.745c-1.437-5.41-7.097-9.35-14.011-7.492-4.357 1.164-6.894 4.336-7.849 8.612-.954 4.276.539 8.05 3.436 11.276.881.97 2.058 1.295 3.153 1.848 1.995 1.006 4.044 1.724 6.135.302a13.283 13.283 0 0 0 2.026-1.801c.771-.795 1.516-1.053 2.398-.191-.11.258-.217.503-.333.737.126.098.243.202.366.302.888-.788 1.952-1.449 2.63-2.388 2.488-3.354 3.12-7.15 2.049-11.185v-.02Zm-27.68-4.202c-.25-1.123-.429-1.952-.645-2.904-1.703.023-3.345-.252-5.032.234-.505 4.226-.621 20.59-.156 22.162h5.238c.068-.167.115-.341.14-.52.083-2.793.1-5.58.272-8.384.067-1.073-.056-1.959-.778-2.747-.076-.09-.026-.302-.043-.553l1.048-.336c.615-3.642 2.87-5.265 6.421-5.339v-4.692c-2.956-.885-4.822.574-6.465 3.1v-.021ZM3.54 22.334c-.067.151-.233.168-.412.228-.11-.369-.316-.962.14-.443.016 0 .205-.278.249-.234.043.043.066.375.023.45Zm10.492 4.23c.69-.376 1.373-.756 2.05-1.141l1.037-.567c.207-.086.403-.199.582-.335.133-.175.066-.215-.057-.466a11.06 11.06 0 0 0-1.087-1.55c-.665.594-.283-.446-.848-.308-.15.03-.09.15-.2.224-.166.124-.033.084-.273.094-.183 0-.332-.084-.522-.07a3.688 3.688 0 0 0-.499.11c-.365.084-.482-.033-.821-.067a6.717 6.717 0 0 1-1.071 0c-.2-.05-.143 0-.273-.134-.13-.134-.043-.241-.26-.258-.082 0-.332.09-.305.158.027.067.283 0 .363 0 0 .2-.024.402-.04.593-.306-.392-.666-.308-1.115-.268-.448.04-.92-.148-1.184.228-.199-.386-.192-.335-.591-.235-.3.1-.607.179-.918.235-.4.05-.4-.144-.742-.252-.343-.107-.313 0-.555.276-.223-.41-.433-.903-.433-.175-.14-.033-.272-.067-.412-.094a1.21 1.21 0 0 1-.143.252c-.3.11-.206.094-.466-.067-.03-.158-.123-.202-.272-.134-.11 0-.223.026-.333.033a.512.512 0 0 1-.382-.527c-.024-.436.116-.459.482-.482.366-.024.665 0 .998 0 .698-.034 1.396-.151 2.101-.158 1.151 0 2.288 0 3.459-.027.632 0 1.27-.023 1.902-.034.31.029.62.023.928-.016.3-.067.283-.134.549-.403.25.296.422.47.765.218a8.75 8.75 0 0 0-1.204-1.18c-.21-.175-.41-.158-.609-.275-.2-.118-.362-.42-.555-.56a2.163 2.163 0 0 0-.695-.403c-.36-.1-.366.141-.665.208a3.077 3.077 0 0 1-.905-.124 5.397 5.397 0 0 1-.931-.191c.143-.1.459-.205.366-.42-.093-.214-.19-.06-.333-.133a.978.978 0 0 1-.2 0c-.023-.118-.04-.229-.066-.336-.123-.275-.332-.268-.632-.335-.721-.195-2.597-1.006-3.17-.222-.388-.543-1.685-.281-2.24-.258-.762.034-1.9-.023-2.581.352a2.369 2.369 0 0 0-.978 1.442 9.013 9.013 0 0 0-.027 1.16c-.016 1.057 0 2.11 0 3.167.017.567-.11 1.412.11 1.958 1.942-1.549 4.546-1.891 6.927-1.341 2.126.493 3.752 1.992 4.833 3.867.788-.151 1.486-.67 2.141-1.03Zm4.207 7.27v-1.341c0-.45.16-.879-.362-1.006-.705-.181-1.643-.017-2.375 0H12.6c-.891 0-1.77 0-2.66.016-.629 0-1.254.242-1.833.074-.688-.191-1.536-.084-2.241-.067-.167 0-.629-.05-.749.067-.12.118.02 1.063.027 1.291.017.852.033 1.707.056 2.56 0 .335 0 .687.02 1.029v.644c0 .335-.07.302.207.402.276.1.811.027 1.144.017h4.769c.242.027.332 0 .425.168.022.177.011.357-.033.53a6.228 6.228 0 0 1-.509 1.757 5.843 5.843 0 0 1-3.02 2.683 8.279 8.279 0 0 1-4.366.476c-1.41-.194-2.564-.838-3.702-1.676-.249 1.163-.073 2.545-.066 3.715 0 .795.017 1.583.043 2.368-.04.406-.015.816.073 1.214.06-.134.05-.5.107-.593.056-.094.176-.118.409-.151-.176.369-.632.98-.117 1.28.261.081.533.117.805.108.333.054.632.118.948.161a12.75 12.75 0 0 0 4.064-.245 10.811 10.811 0 0 0 3.445-1.254c.998-.587 1.786-1.398 2.69-2.103.097.755.2 1.5.3 2.254-.004.158.015.317.057.47.106.167.223.117.445.117.333 0 .665 0 .998-.017.788-.043 1.57-.027 2.365 0 .389.036.78.048 1.17.034.333-.034.46-.034.522-.336a6.51 6.51 0 0 0-.083-1.982 16.138 16.138 0 0 1 .027-2.304 3.307 3.307 0 0 0-.366-1.818c-.19-.335-.382-.65-.555-.986-.173-.335-.123-.466.023-.862-.146-.043-.29-.083-.44-.134.388-.31.746-.654 1.072-1.03.3-.375.14-.61 0-1.063-.04-.107-.077-.224-.117-.335.06-.117.117-.235.177-.359-.06-.084-.11-.167-.167-.251-.056-.084-.066-.175.074-.259.123-.385.289-.452.04-.855.128-.795.183-1.602.162-2.408Zm225.303-4.683c-.249-1.093-.432-1.899-.666-2.825-1.701.023-3.35-.245-5.035.228-.506 4.111-.623 20.03-.157 21.56h5.242c.069-.162.117-.332.144-.505.08-2.718.096-5.43.273-8.157.066-1.044-.057-1.906-.783-2.672-.073-.089-.023-.294-.04-.539l1.046-.326c.616-3.543 2.877-5.122 6.434-5.194v-4.584c-2.957-.862-4.812.558-6.458 3.014Zm-19.675.594c1.365-.081 2.664-.042 3.816.93.667.545 1.796.502 2.129 1.66-.15.48-.333 1.058-.517 1.632a19.88 19.88 0 0 1-2.567.369c-2.228 0-4.453-.059-6.661-.098-.353-2.238 1.482-4.356 3.8-4.493Zm3.433 5.276a34.641 34.641 0 0 0-.999-.082v-.146h.999a1.74 1.74 0 0 0 0 .228Zm7.201 6.356c-.144.457-.26.855-.45 1.49l-.952-1.591c-1.196-.066-2.428-.14-3.357-.19-1.432 1.208-2.628 2.216-3.664 3.103-.616-.12-1.139-.277-1.665-.326-2.378-.235-3.98-1.58-4.562-3.876-.16-.653-.177-1.335-.467-1.899-.433-.829-.333-1.66-.399-2.58a91.745 91.745 0 0 1 1.638-.177c.973 2.098 2.818 1.305 4.073 1.276 1.602.708 2.728 1.514 3.94 1.67 1.945.245 3.953.072 5.935.056a6.057 6.057 0 0 0 1.045-.258c-.083-.826-.133-1.632-.249-2.411-.134-.855-.333-1.687-.473-2.33-.9-1.011-2.312-1.011-2.844-2.205-.064-.164-.447-.255-.69-.278-.806-.098-1.139-.691-1.332-1.305-.356-1.083-.606-2.202-.969-3.57-.999-.234-2.211-.652-3.477-.795-4.453-.434-8.309 1.726-10.371 5.546-.426.79-.849 1.632-.509 2.646.809.529 1.665 1.035 2.461 1.655.285.287.464.659.51 1.057.166 1.05.146 2.143.406 3.168.496 2.036-.043 3.56-2.178 4.584.333.528.496 1.116.896 1.41a22.149 22.149 0 0 0 3.606 2.303c1.999.927 4.15 1.067 6.395.708a12.203 12.203 0 0 0 4.845-1.88c1.486-.978 2.125-2.61 3.224-3.885.157-.17.057-.578.017-.872-.02-.1-.227-.16-.383-.244Zm-21.901-.35a1.63 1.63 0 0 1 0-.652c.058-.31.099-.622.124-.936 0-1.801-.017-3.59 0-5.407.016-1.817-.15-3.615 0-5.422a1.083 1.083 0 0 0 0-.402 2.289 2.289 0 0 0-.3-.62 2.049 2.049 0 0 0-.45-.326c.277-.3.527-.567.726-.773v-3.43c-.509-.185-.972-.358-1.538-.56.333-.212.566-.467.879-.284.313.183.476-.092.666-.157v-3.87h-.866c-.09 1.24-.183 2.422-.266 3.59h-.939l.449-1.09c.233-.92-.606-1.345-.966-1.857.15-.74.966.026 1.106-.652-1.519 0-2.997-.154-4.563 0v8.225c0 1.367-.023 2.738 0 4.111a91.215 91.215 0 0 1 0 3.984c.733.042.9.147 1.089.8a7.23 7.23 0 0 1 .184 3.099 32.197 32.197 0 0 0-.473 4.829 3.647 3.647 0 0 1-.227.838c.067.19.16.434.293.774-.183.058-.293.13-.356.107-.333-.14-.5.05-.51.307-.023.979 0 1.958 0 2.966h1.689c.24-.163.44-.3.646-.447.173.18.316.326.49.512.999-.202 2.094.3 3.167-.424v-4.183a2.67 2.67 0 0 1 0-.473 4.934 4.934 0 0 0-.054-2.19v.014Zm-23.995-10.215a746.98 746.98 0 0 1 2.551-2.199c1.572 0 2.998.033 4.396 0 .477-.01.949.089 1.379.29.431.2.807.496 1.099.865.276.364.515.755.713 1.165-.839.551-.04 1.563-.556 2.222-.646 1.018-2.278.463-2.874 1.752.955.551-.06 2.059 1.362 2.466l1.998-.482c.523 3.282-.589 5.716-3.184 7.504-1.205 0-2.331.603-3.617.473a9.718 9.718 0 0 1-3.446-1.181c-.733-1.305-.666-2.542.083-4.242.206-.196.756-.714 1.332-1.262-.306-.633-.646-1.325-.979-2.02l-1.239-.519c-.143.114-.243.203-.36.278-.116.075-.23.11-.333.17-2.398 1.18-3.72 2.978-3.43 5.715.05.48 0 .98 0 1.459.083 1.383.599 2.695 1.755 3.41 1.156.714 2.301 1.582 3.823 1.5.21 0 .433.219.666.35.124-.539 1.183-.164.999-1.019a2.14 2.14 0 0 1 .3-.097c.073.407.14.79.2 1.106 1.505-.327 2.934-.633 4.702-1.025l2.778-1.817c.333.652.713 1.321.956 1.768l1.665 1.23 3.78-.584V44.64l-2.068-.62V32.986a17.847 17.847 0 0 0-.357-3.794 4.904 4.904 0 0 0-1.18-2.388 5.056 5.056 0 0 0-2.27-1.446c-1.552-.545-3.224-1.002-4.929-.871-1.428.098-2.834.326-4.246.528-2.594.979-4.662 2.548-5.661 5.22v1.988l.539.528h2.827l1.026-1.814c-.066-.036-.133-.085-.2-.124Zm-18.693-1.067c1.362-.081 2.665-.042 3.817.93.666.545 1.795.502 2.125 1.66l-.513 1.632a19.88 19.88 0 0 1-2.571.369c-2.225 0-4.453-.059-6.661-.098-.353-2.238 1.485-4.356 3.803-4.493Zm3.434 5.276a34.641 34.641 0 0 0-.999-.082v-.146h.999v.228Zm7.197 6.356c-.14.457-.26.855-.45 1.49-.39-.652-.639-1.076-.939-1.578-1.196-.066-2.428-.14-3.357-.19-1.429 1.208-2.628 2.216-3.663 3.103-.613-.12-1.136-.277-1.666-.326-2.381-.235-3.996-1.58-4.565-3.876-.157-.653-.174-1.334-.467-1.899-.429-.829-.333-1.66-.396-2.58.573-.066 1.072-.121 1.635-.177.973 2.098 2.818 1.305 4.073 1.276 1.605.708 2.728 1.514 3.94 1.67 1.945.245 3.956.072 5.935.056.356-.055.706-.14 1.045-.258-.083-.825-.133-1.631-.249-2.411-.13-.855-.333-1.687-.473-2.33-.896-1.011-2.308-1.011-2.841-2.205-.067-.163-.45-.255-.689-.278-.806-.098-1.139-.691-1.333-1.305-.359-1.083-.606-2.202-.972-3.57-.999-.234-2.211-.652-3.474-.795-4.456-.434-8.325 1.726-10.374 5.546-.423.79-.845 1.632-.506 2.646.806.529 1.665 1.035 2.458 1.655.285.287.464.659.51 1.057.166 1.05.149 2.143.406 3.168.499 2.036-.04 3.56-2.178 4.584.333.529.499 1.116.899 1.41a21.985 21.985 0 0 0 3.607 2.303c1.998.927 4.146 1.067 6.391.708a12.203 12.203 0 0 0 4.845-1.88c1.489-.978 2.128-2.61 3.224-3.885.16-.17.06-.578 0-.871-.01-.115-.22-.173-.376-.258Z" fill="#0D1414"/><path fill-rule="evenodd" clip-rule="evenodd" d="M119.992 29.134H91.546v1.726h28.446v-1.726Zm-28.97-.836h30.019v3.396H90.498v-3.39l.524-.006Z" fill="#0D1414"/><path d="M119.992 29.134H91.546v1.726h28.446v-1.726Zm-28.97-.836h30.019v3.396H90.498v-3.39l.524-.006Z" stroke="#0D1414" stroke-width=".22"/><path fill-rule="evenodd" clip-rule="evenodd" d="m93.891 26.03.056-7.398.003-.521h23.697v5.66h-1.087v-4.618H95.023l-.052 6.881-1.08-.003Z" fill="#0D1414"/><path d="m93.891 26.03.056-7.398.003-.521h23.697v5.66h-1.087v-4.618H95.023l-.052 6.881-1.08-.003Z" stroke="#0D1414" stroke-width=".22"/><path fill-rule="evenodd" clip-rule="evenodd" d="M96.849 36.334h-.843v.94h.843v-.94Zm-3.346-1.522h1.378v1.227h.844v-1.227h1.378v1.227h1.124v1.235h1.078v1.518h-1.379v-1.235h-.84v1.235h-1.378v-1.235H94.63v-1.223h-1.127v-1.522Zm18.911 1.522h-.839v.94h.839v-.94Zm-3.346-1.522h1.379v1.227h.83v-1.227h1.378v1.227h1.128v1.235h1.077v1.518h-1.375v-1.235h-.843v1.235h-1.365v-1.235h-1.078v-1.223h-1.131v-1.522Zm-17.439-.855h28.281v2.02h-1.091v1.34h-1.185v1.154h-1.097v1.146h-7.435v-1.183h-1.027v-1.157h-1.088v-2.443h-2.56v2.443h-1.141v1.157h-1.08v1.183h-7.385v-1.146h-1.084v-1.135H92.68v-1.341h-1.051v-2.038Z" fill="#0D1414"/><path d="M96.849 36.334h-.843v.94h.843v-.94Zm-3.346-1.522h1.378v1.227h.844v-1.227h1.378v1.227h1.124v1.235h1.078v1.518h-1.379v-1.235h-.84v1.235h-1.378v-1.235H94.63v-1.223h-1.127v-1.522Zm18.911 1.522h-.839v.94h.839v-.94Zm-3.346-1.522h1.379v1.227h.83v-1.227h1.378v1.227h1.128v1.235h1.077v1.518h-1.375v-1.235h-.843v1.235h-1.365v-1.235h-1.078v-1.223h-1.131v-1.522Zm-17.439-.855h28.28v2.02h-1.09v1.34h-1.185v1.154h-1.097v1.146h-7.435v-1.183h-1.027v-1.157h-1.088v-2.443h-2.56v2.443h-1.141v1.157h-1.08v1.183h-7.385v-1.146h-1.084v-1.135H92.68v-1.341h-1.051v-2.038Z" stroke="#0D1414" stroke-width=".22"/><path fill-rule="evenodd" clip-rule="evenodd" d="M100.726 42.156c-1.487.18-2.962.45-4.418.814a14.167 14.167 0 0 0 1.871 3.064c1.279 1.688 2.782 3.279 3.516 3.788l3.55-.03.036-7.922a37.715 37.715 0 0 0-4.555.286Zm-5.217-.136a37.696 37.696 0 0 1 5.096-.986 39.778 39.778 0 0 1 5.207-.283h.523v.56l-.04 9.037v.556h-.52l-4.221.032h-.141l-.117-.072c-.778-.469-2.51-2.26-3.928-4.139-1.097-1.451-2.03-2.981-2.241-4.056l-.104-.53.493-.133-.007.014Z" fill="#0D1414"/><path d="M100.726 42.156c-1.487.18-2.962.45-4.418.814a14.167 14.167 0 0 0 1.871 3.064c1.279 1.688 2.782 3.279 3.516 3.788l3.55-.03.036-7.922a37.715 37.715 0 0 0-4.555.286Zm-5.217-.136a37.696 37.696 0 0 1 5.096-.986 39.778 39.778 0 0 1 5.207-.283h.523v.56l-.04 9.037v.556h-.52l-4.221.032h-.141l-.117-.072c-.778-.469-2.51-2.26-3.928-4.139-1.097-1.451-2.03-2.981-2.241-4.056l-.104-.53.493-.133-.007.014Z" stroke="#0D1414" stroke-width=".22"/><path fill-rule="evenodd" clip-rule="evenodd" d="M110.93 41.025c1.716.21 3.417.54 5.093.985l.493.13-.104.53c-.215 1.075-1.143 2.605-2.24 4.056-1.418 1.877-3.148 3.67-3.926 4.139l-.117.071h-.144l-4.215-.032h-.523v-.556l-.043-9.037v-.559h.523a39.692 39.692 0 0 1 5.203.273Zm4.295 1.935a36.189 36.189 0 0 0-4.416-.814 37.813 37.813 0 0 0-4.553-.286l.037 7.922 3.541.015c.734-.51 2.236-2.1 3.51-3.788a14.19 14.19 0 0 0 1.881-3.05Z" fill="#0D1414"/><path d="M110.93 41.025c1.716.21 3.417.54 5.093.985l.493.13-.104.53c-.215 1.075-1.143 2.605-2.24 4.056-1.418 1.877-3.148 3.67-3.926 4.139l-.117.071h-.144l-4.215-.032h-.523v-.556l-.043-9.037v-.559h.523a39.692 39.692 0 0 1 5.203.273Zm4.295 1.935a36.189 36.189 0 0 0-4.416-.814 37.813 37.813 0 0 0-4.553-.286l.037 7.922 3.541.015c.734-.51 2.236-2.1 3.51-3.788a14.19 14.19 0 0 0 1.881-3.05Z" stroke="#0D1414" stroke-width=".22"/><path fill-rule="evenodd" clip-rule="evenodd" d="m95.481 46.84-1.37 1.471 2.715 3.333 1.37-1.471-2.715-3.334Zm-2.372 1.053 2.067-2.223.357-.393.324.4 3.363 4.134.328.404-.346.382-2.067 2.224-.348.379-.337-.404-3.363-4.134-.327-.4.349-.369Zm23.985-2.24 2.409 2.226.406.376-.381.401-3.92 4.14-.378.404-.424-.38-2.409-2.226-.406-.373.381-.404 3.92-4.14.382-.4.42.376Zm1.24 2.652-1.596-1.474-3.165 3.337 1.597 1.474 3.164-3.337Z" fill="#0D1414"/><path d="m117.094 45.653 2.409 2.226.406.376-.381.401-3.92 4.14-.378.404-.424-.38-2.409-2.226-.406-.373.381-.404 3.92-4.14.382-.4.42.376Zm1.24 2.652-1.596-1.474-3.165 3.337 1.597 1.474 3.164-3.337Z" stroke="#0D1414" stroke-width=".22"/></svg>